<ttFont>
    <TTGlyph name=".ttfautohint" xMin="0" yMin="0" xMax="0" yMax="0">
      <contour>
        <pt x="0" y="0" on="1"/>
      </contour>
    </TTGlyph>
    <TTGlyph name="A" xMin="15" yMin="0" xMax="585" yMax="700">
      <contour>
        <pt x="400" y="160" on="1"/>
        <pt x="200" y="160" on="1"/>
        <pt x="155" y="0" on="1"/>
        <pt x="15" y="0" on="1"/>
        <pt x="220" y="700" on="1"/>
        <pt x="380" y="700" on="1"/>
        <pt x="585" y="0" on="1"/>
        <pt x="445" y="0" on="1"/>
      </contour>
      <contour>
        <pt x="225" y="250" on="1"/>
        <pt x="375" y="250" on="1"/>
        <pt x="315" y="460" on="1"/>
        <pt x="311" y="472" on="0"/>
        <pt x="307" y="498" on="0"/>
        <pt x="305" y="509" on="1"/>
        <pt x="303" y="522" on="0"/>
        <pt x="302" y="535" on="1"/>
        <pt x="298" y="535" on="1"/>
        <pt x="296" y="522" on="0"/>
        <pt x="294" y="509" on="1"/>
        <pt x="292" y="498" on="0"/>
        <pt x="288" y="471" on="0"/>
        <pt x="285" y="460" on="1"/>
      </contour>
    </TTGlyph>
    <TTGlyph name="AE" xMin="-25" yMin="0" xMax="820" yMax="700">
      <contour>
        <pt x="400" y="0" on="1"/>
        <pt x="400" y="190" on="1"/>
        <pt x="195" y="190" on="1"/>
        <pt x="115" y="0" on="1"/>
        <pt x="-25" y="0" on="1"/>
        <pt x="270" y="700" on="1"/>
        <pt x="820" y="700" on="1"/>
        <pt x="820" y="610" on="1"/>
        <pt x="540" y="610" on="1"/>
        <pt x="540" y="410" on="1"/>
        <pt x="760" y="410" on="1"/>
        <pt x="760" y="320" on="1"/>
        <pt x="540" y="320" on="1"/>
        <pt x="540" y="90" on="1"/>
        <pt x="820" y="90" on="1"/>
        <pt x="820" y="0" on="1"/>
      </contour>
      <contour>
        <pt x="235" y="280" on="1"/>
        <pt x="400" y="280" on="1"/>
        <pt x="400" y="610" on="1"/>
        <pt x="370" y="610" on="1"/>
      </contour>
    </TTGlyph>
    <TTGlyph name="Aacute" xMin="15" yMin="0" xMax="585" yMax="900">
      <component glyphName=".ttfautohint" x="15" y="0" flags="0x1000"/>
      <component glyphName="A" x="0" y="0" flags="0x1204"/>
      <component glyphName="acute" x="227" y="200" flags="0x1004"/>
    </TTGlyph>
    <TTGlyph name="Abreve" xMin="15" yMin="0" xMax="585" yMax="900">
      <component glyphName=".ttfautohint" x="15" y="0" flags="0x1000"/>
      <component glyphName="A" x="0" y="0" flags="0x1204"/>
      <component glyphName="breve" x="130" y="200" flags="0x1004"/>
    </TTGlyph>
    <TTGlyph name="Acircumflex" xMin="15" yMin="0" xMax="585" yMax="884">
      <component glyphName=".ttfautohint" x="15" y="0" flags="0x1000"/>
      <component glyphName="A" x="0" y="0" flags="0x1204"/>
      <component glyphName="circumflex" x="130" y="190" flags="0x1004"/>
    </TTGlyph>
    <TTGlyph name="Adieresis" xMin="15" yMin="0" xMax="585" yMax="900">
      <component glyphName=".ttfautohint" x="15" y="0" flags="0x1000"/>
      <component glyphName="A" x="0" y="0" flags="0x1204"/>
      <component glyphName="dieresis" x="120" y="190" flags="0x1004"/>
    </TTGlyph>
    <TTGlyph name="Agrave" xMin="15" yMin="0" xMax="585" yMax="900">
      <component glyphName=".ttfautohint" x="15" y="0" flags="0x1000"/>
      <component glyphName="A" x="0" y="0" flags="0x1204"/>
      <component glyphName="grave" x="162" y="200" flags="0x1004"/>
    </TTGlyph>
    <TTGlyph name="Amacron" xMin="15" yMin="0" xMax="585" yMax="850">
      <component glyphName=".ttfautohint" x="15" y="0" flags="0x1000"/>
      <component glyphName="A" x="0" y="0" flags="0x1204"/>
      <component glyphName="macron" x="145" y="190" flags="0x1004"/>
    </TTGlyph>
    <TTGlyph name="Aogonek" xMin="15" yMin="-185" xMax="620" yMax="700">
      <component glyphName=".ttfautohint" x="15" y="0" flags="0x1000"/>
      <component glyphName="A" x="0" y="0" flags="0x1204"/>
      <component glyphName="ogonek" x="420" y="0" flags="0x1004"/>
    </TTGlyph>
    <TTGlyph name="Aring" xMin="15" yMin="0" xMax="585" yMax="955">
      <component glyphName=".ttfautohint" x="15" y="0" flags="0x1000"/>
      <component glyphName="A" x="0" y="0" flags="0x1204"/>
      <component glyphName="ring" x="180" y="200" flags="0x1004"/>
    </TTGlyph>
    <TTGlyph name="Atilde" xMin="15" yMin="0" xMax="585" yMax="890">
      <component glyphName=".ttfautohint" x="15" y="0" flags="0x1000"/>
      <component glyphName="A" x="0" y="0" flags="0x1204"/>
      <component glyphName="tilde" x="130" y="170" flags="0x1004"/>
    </TTGlyph>
    <TTGlyph name="B" xMin="85" yMin="0" xMax="560" yMax="700">
      <contour>
        <pt x="410" y="370" on="1"/>
        <pt x="452" y="362" on="0"/>
        <pt x="485" y="341" on="1"/>
        <pt x="513" y="323" on="0"/>
        <pt x="560" y="253" on="0"/>
        <pt x="560" y="195" on="1"/>
        <pt x="560" y="150" on="0"/>
        <pt x="531" y="78" on="0"/>
        <pt x="467" y="27" on="0"/>
        <pt x="366" y="0" on="0"/>
        <pt x="295" y="0" on="1"/>
        <pt x="85" y="0" on="1"/>
        <pt x="85" y="700" on="1"/>
        <pt x="295" y="700" on="1"/>
        <pt x="357" y="700" on="0"/>
        <pt x="447" y="673" on="0"/>
        <pt x="506" y="625" on="0"/>
        <pt x="535" y="559" on="0"/>
        <pt x="535" y="520" on="1"/>
        <pt x="535" y="471" on="0"/>
        <pt x="495" y="412" on="0"/>
        <pt x="472" y="396" on="1"/>
        <pt x="445" y="378" on="0"/>
      </contour>
      <contour>
        <pt x="225" y="410" on="1"/>
        <pt x="295" y="410" on="1"/>
        <pt x="340" y="410" on="0"/>
        <pt x="395" y="465" on="0"/>
        <pt x="395" y="510" on="1"/>
        <pt x="395" y="555" on="0"/>
        <pt x="340" y="610" on="0"/>
        <pt x="295" y="610" on="1"/>
        <pt x="225" y="610" on="1"/>
      </contour>
      <contour>
        <pt x="225" y="320" on="1"/>
        <pt x="225" y="90" on="1"/>
        <pt x="295" y="90" on="1"/>
        <pt x="420" y="90" on="0"/>
        <pt x="420" y="205" on="1"/>
        <pt x="420" y="320" on="0"/>
        <pt x="295" y="320" on="1"/>
      </contour>
    </TTGlyph>
    <TTGlyph name="C" xMin="50" yMin="-10" xMax="515" yMax="710">
      <contour>
        <pt x="50" y="350" on="1"/>
        <pt x="50" y="446" on="0"/>
        <pt x="88" y="582" on="0"/>
        <pt x="158" y="669" on="0"/>
        <pt x="258" y="710" on="0"/>
        <pt x="320" y="710" on="1"/>
        <pt x="363" y="710" on="0"/>
        <pt x="432" y="693" on="0"/>
        <pt x="456" y="682" on="1"/>
        <pt x="484" y="670" on="0"/>
        <pt x="505" y="655" on="1"/>
        <pt x="460" y="575" on="1"/>
        <pt x="450" y="575" on="1"/>
        <pt x="436" y="587" on="0"/>
        <pt x="418" y="597" on="1"/>
        <pt x="402" y="605" on="0"/>
        <pt x="358" y="620" on="0"/>
        <pt x="330" y="620" on="1"/>
        <pt x="300" y="620" on="0"/>
        <pt x="249" y="595" on="0"/>
        <pt x="211" y="533" on="0"/>
        <pt x="190" y="429" on="0"/>
        <pt x="190" y="350" on="1"/>
        <pt x="190" y="271" on="0"/>
        <pt x="212" y="167" on="0"/>
        <pt x="251" y="105" on="0"/>
        <pt x="306" y="80" on="0"/>
        <pt x="340" y="80" on="1"/>
        <pt x="368" y="80" on="0"/>
        <pt x="412" y="94" on="0"/>
        <pt x="428" y="102" on="1"/>
        <pt x="446" y="112" on="0"/>
        <pt x="460" y="125" on="1"/>
        <pt x="470" y="125" on="1"/>
        <pt x="515" y="45" on="1"/>
        <pt x="494" y="29" on="0"/>
        <pt x="466" y="17" on="1"/>
        <pt x="442" y="6" on="0"/>
        <pt x="373" y="-10" on="0"/>
        <pt x="330" y="-10" on="1"/>
        <pt x="264" y="-10" on="0"/>
        <pt x="160" y="31" on="0"/>
        <pt x="88" y="118" on="0"/>
        <pt x="50" y="254" on="0"/>
      </contour>
    </TTGlyph>
    <TTGlyph name="Cacute" xMin="50" yMin="-10" xMax="515" yMax="900">
      <component glyphName=".ttfautohint" x="50" y="0" flags="0x1000"/>
      <component glyphName="C" x="0" y="0" flags="0x1204"/>
      <component glyphName="acute" x="260" y="200" flags="0x1004"/>
    </TTGlyph>
    <TTGlyph name="Ccaron" xMin="50" yMin="-10" xMax="515" yMax="900">
      <component glyphName=".ttfautohint" x="50" y="0" flags="0x1000"/>
      <component glyphName="C" x="0" y="0" flags="0x1204"/>
      <component glyphName="caron" x="132" y="200" flags="0x1004"/>
    </TTGlyph>
    <TTGlyph name="Ccedilla" xMin="50" yMin="-195" xMax="515" yMax="710">
      <component glyphName=".ttfautohint" x="50" y="0" flags="0x1000"/>
      <component glyphName="C" x="0" y="0" flags="0x1204"/>
      <component glyphName="cedilla" x="225" y="0" flags="0x1004"/>
    </TTGlyph>
    <TTGlyph name="D" xMin="85" yMin="0" xMax="565" yMax="700">
      <contour>
        <pt x="85" y="0" on="1"/>
        <pt x="85" y="700" on="1"/>
        <pt x="255" y="700" on="1"/>
        <pt x="405" y="700" on="0"/>
        <pt x="565" y="530" on="0"/>
        <pt x="565" y="350" on="1"/>
        <pt x="565" y="170" on="0"/>
        <pt x="405" y="0" on="0"/>
        <pt x="255" y="0" on="1"/>
      </contour>
      <contour>
        <pt x="255" y="90" on="1"/>
        <pt x="296" y="90" on="0"/>
        <pt x="360" y="115" on="0"/>
        <pt x="403" y="175" on="0"/>
        <pt x="425" y="275" on="0"/>
        <pt x="425" y="350" on="1"/>
        <pt x="425" y="425" on="0"/>
        <pt x="403" y="525" on="0"/>
        <pt x="360" y="585" on="0"/>
        <pt x="296" y="610" on="0"/>
        <pt x="255" y="610" on="1"/>
        <pt x="225" y="610" on="1"/>
        <pt x="225" y="90" on="1"/>
      </contour>
    </TTGlyph>
    <TTGlyph name="Dcaron" xMin="85" yMin="0" xMax="565" yMax="900">
      <component glyphName=".ttfautohint" x="85" y="0" flags="0x1000"/>
      <component glyphName="D" x="0" y="0" flags="0x1204"/>
      <component glyphName="caron" x="112" y="200" flags="0x1004"/>
    </TTGlyph>
    <TTGlyph name="Dcroat" xMin="35" yMin="0" xMax="570" yMax="700">
      <contour>
        <pt x="35" y="410" on="1"/>
        <pt x="90" y="410" on="1"/>
        <pt x="90" y="700" on="1"/>
        <pt x="260" y="700" on="1"/>
        <pt x="410" y="700" on="0"/>
        <pt x="570" y="530" on="0"/>
        <pt x="570" y="350" on="1"/>
        <pt x="570" y="170" on="0"/>
        <pt x="410" y="0" on="0"/>
        <pt x="260" y="0" on="1"/>
        <pt x="90" y="0" on="1"/>
        <pt x="90" y="310" on="1"/>
        <pt x="35" y="310" on="1"/>
      </contour>
      <contour>
        <pt x="260" y="90" on="1"/>
        <pt x="301" y="90" on="0"/>
        <pt x="365" y="115" on="0"/>
        <pt x="408" y="175" on="0"/>
        <pt x="430" y="275" on="0"/>
        <pt x="430" y="350" on="1"/>
        <pt x="430" y="425" on="0"/>
        <pt x="408" y="525" on="0"/>
        <pt x="365" y="585" on="0"/>
        <pt x="301" y="610" on="0"/>
        <pt x="260" y="610" on="1"/>
        <pt x="230" y="610" on="1"/>
        <pt x="230" y="410" on="1"/>
        <pt x="325" y="410" on="1"/>
        <pt x="325" y="310" on="1"/>
        <pt x="230" y="310" on="1"/>
        <pt x="230" y="90" on="1"/>
      </contour>
    </TTGlyph>
    <TTGlyph name="E" xMin="85" yMin="0" xMax="505" yMax="700">
      <contour>
        <pt x="85" y="0" on="1"/>
        <pt x="85" y="700" on="1"/>
        <pt x="505" y="700" on="1"/>
        <pt x="505" y="610" on="1"/>
        <pt x="225" y="610" on="1"/>
        <pt x="225" y="410" on="1"/>
        <pt x="445" y="410" on="1"/>
        <pt x="445" y="320" on="1"/>
        <pt x="225" y="320" on="1"/>
        <pt x="225" y="90" on="1"/>
        <pt x="505" y="90" on="1"/>
        <pt x="505" y="0" on="1"/>
      </contour>
    </TTGlyph>
    <TTGlyph name="Eacute" xMin="85" yMin="0" xMax="505" yMax="900">
      <component glyphName=".ttfautohint" x="85" y="0" flags="0x1000"/>
      <component glyphName="E" x="0" y="0" flags="0x1204"/>
      <component glyphName="acute" x="220" y="200" flags="0x1004"/>
    </TTGlyph>
    <TTGlyph name="Ecaron" xMin="85" yMin="0" xMax="505" yMax="900">
      <component glyphName=".ttfautohint" x="85" y="0" flags="0x1000"/>
      <component glyphName="E" x="0" y="0" flags="0x1204"/>
      <component glyphName="caron" x="142" y="200" flags="0x1004"/>
    </TTGlyph>
    <TTGlyph name="Ecircumflex" xMin="85" yMin="0" xMax="505" yMax="894">
      <component glyphName=".ttfautohint" x="85" y="0" flags="0x1000"/>
      <component glyphName="E" x="0" y="0" flags="0x1204"/>
      <component glyphName="circumflex" x="132" y="200" flags="0x1004"/>
    </TTGlyph>
    <TTGlyph name="Edieresis" xMin="85" yMin="0" xMax="505" yMax="910">
      <component glyphName=".ttfautohint" x="85" y="0" flags="0x1000"/>
      <component glyphName="E" x="0" y="0" flags="0x1204"/>
      <component glyphName="dieresis" x="122" y="200" flags="0x1004"/>
    </TTGlyph>
    <TTGlyph name="Edotaccent" xMin="76" yMin="0" xMax="496" yMax="910">
      <component glyphName=".ttfautohint" x="76" y="0" flags="0x1000"/>
      <component glyphName="E" x="-9" y="0" flags="0x1004"/>
      <component glyphName="dotaccent" x="217" y="200" flags="0x1004"/>
    </TTGlyph>
    <TTGlyph name="Egrave" xMin="85" yMin="0" xMax="505" yMax="900">
      <component glyphName=".ttfautohint" x="85" y="0" flags="0x1000"/>
      <component glyphName="E" x="0" y="0" flags="0x1204"/>
      <component glyphName="grave" x="175" y="200" flags="0x1004"/>
    </TTGlyph>
    <TTGlyph name="Emacron" xMin="76" yMin="0" xMax="496" yMax="860">
      <component glyphName=".ttfautohint" x="76" y="0" flags="0x1000"/>
      <component glyphName="E" x="-9" y="0" flags="0x1004"/>
      <component glyphName="macron" x="137" y="200" flags="0x1004"/>
    </TTGlyph>
    <TTGlyph name="Eogonek" xMin="85" yMin="-185" xMax="505" yMax="700">
      <component glyphName=".ttfautohint" x="85" y="0" flags="0x1000"/>
      <component glyphName="E" x="0" y="0" flags="0x1204"/>
      <component glyphName="ogonek" x="205" y="0" flags="0x1004"/>
    </TTGlyph>
    <TTGlyph name="Eth" xMin="35" yMin="0" xMax="570" yMax="700">
      <contour>
        <pt x="35" y="410" on="1"/>
        <pt x="90" y="410" on="1"/>
        <pt x="90" y="700" on="1"/>
        <pt x="260" y="700" on="1"/>
        <pt x="410" y="700" on="0"/>
        <pt x="570" y="530" on="0"/>
        <pt x="570" y="350" on="1"/>
        <pt x="570" y="170" on="0"/>
        <pt x="410" y="0" on="0"/>
        <pt x="260" y="0" on="1"/>
        <pt x="90" y="0" on="1"/>
        <pt x="90" y="310" on="1"/>
        <pt x="35" y="310" on="1"/>
      </contour>
      <contour>
        <pt x="260" y="90" on="1"/>
        <pt x="301" y="90" on="0"/>
        <pt x="365" y="115" on="0"/>
        <pt x="408" y="175" on="0"/>
        <pt x="430" y="275" on="0"/>
        <pt x="430" y="350" on="1"/>
        <pt x="430" y="425" on="0"/>
        <pt x="408" y="525" on="0"/>
        <pt x="365" y="585" on="0"/>
        <pt x="301" y="610" on="0"/>
        <pt x="260" y="610" on="1"/>
        <pt x="230" y="610" on="1"/>
        <pt x="230" y="410" on="1"/>
        <pt x="325" y="410" on="1"/>
        <pt x="325" y="310" on="1"/>
        <pt x="230" y="310" on="1"/>
        <pt x="230" y="90" on="1"/>
      </contour>
    </TTGlyph>
    <TTGlyph name="Euro" xMin="10" yMin="-10" xMax="545" yMax="710">
      <contour>
        <pt x="25" y="325" on="1"/>
        <pt x="80" y="325" on="1"/>
        <pt x="80" y="375" on="1"/>
        <pt x="15" y="375" on="1"/>
        <pt x="30" y="450" on="1"/>
        <pt x="85" y="450" on="1"/>
        <pt x="94" y="519" on="0"/>
        <pt x="140" y="618" on="0"/>
        <pt x="209" y="681" on="0"/>
        <pt x="297" y="710" on="0"/>
        <pt x="350" y="710" on="1"/>
        <pt x="393" y="710" on="0"/>
        <pt x="462" y="693" on="0"/>
        <pt x="486" y="682" on="1"/>
        <pt x="514" y="670" on="0"/>
        <pt x="535" y="655" on="1"/>
        <pt x="490" y="575" on="1"/>
        <pt x="480" y="575" on="1"/>
        <pt x="466" y="587" on="0"/>
        <pt x="448" y="597" on="1"/>
        <pt x="432" y="605" on="0"/>
        <pt x="388" y="620" on="0"/>
        <pt x="360" y="620" on="1"/>
        <pt x="336" y="620" on="0"/>
        <pt x="292" y="603" on="0"/>
        <pt x="256" y="564" on="0"/>
        <pt x="231" y="499" on="0"/>
        <pt x="225" y="450" on="1"/>
        <pt x="435" y="450" on="1"/>
        <pt x="420" y="375" on="1"/>
        <pt x="220" y="375" on="1"/>
        <pt x="220" y="325" on="1"/>
        <pt x="420" y="325" on="1"/>
        <pt x="405" y="250" on="1"/>
        <pt x="225" y="250" on="1"/>
        <pt x="231" y="201" on="0"/>
        <pt x="256" y="136" on="0"/>
        <pt x="294" y="97" on="0"/>
        <pt x="342" y="80" on="0"/>
        <pt x="370" y="80" on="1"/>
        <pt x="398" y="80" on="0"/>
        <pt x="442" y="94" on="0"/>
        <pt x="458" y="102" on="1"/>
        <pt x="476" y="112" on="0"/>
        <pt x="490" y="125" on="1"/>
        <pt x="500" y="125" on="1"/>
        <pt x="545" y="45" on="1"/>
        <pt x="524" y="29" on="0"/>
        <pt x="496" y="17" on="1"/>
        <pt x="472" y="6" on="0"/>
        <pt x="403" y="-10" on="0"/>
        <pt x="360" y="-10" on="1"/>
        <pt x="304" y="-10" on="0"/>
        <pt x="211" y="19" on="0"/>
        <pt x="140" y="82" on="0"/>
        <pt x="94" y="181" on="0"/>
        <pt x="85" y="250" on="1"/>
        <pt x="10" y="250" on="1"/>
      </contour>
    </TTGlyph>
    <TTGlyph name="F" xMin="85" yMin="0" xMax="505" yMax="700">
      <contour>
        <pt x="85" y="0" on="1"/>
        <pt x="85" y="700" on="1"/>
        <pt x="505" y="700" on="1"/>
        <pt x="505" y="610" on="1"/>
        <pt x="225" y="610" on="1"/>
        <pt x="225" y="400" on="1"/>
        <pt x="445" y="400" on="1"/>
        <pt x="445" y="310" on="1"/>
        <pt x="225" y="310" on="1"/>
        <pt x="225" y="0" on="1"/>
      </contour>
    </TTGlyph>
    <TTGlyph name="G" xMin="50" yMin="-10" xMax="530" yMax="710">
      <contour>
        <pt x="50" y="350" on="1"/>
        <pt x="50" y="446" on="0"/>
        <pt x="88" y="582" on="0"/>
        <pt x="158" y="669" on="0"/>
        <pt x="258" y="710" on="0"/>
        <pt x="320" y="710" on="1"/>
        <pt x="363" y="710" on="0"/>
        <pt x="432" y="693" on="0"/>
        <pt x="456" y="682" on="1"/>
        <pt x="484" y="670" on="0"/>
        <pt x="505" y="655" on="1"/>
        <pt x="460" y="575" on="1"/>
        <pt x="450" y="575" on="1"/>
        <pt x="436" y="587" on="0"/>
        <pt x="418" y="597" on="1"/>
        <pt x="402" y="605" on="0"/>
        <pt x="358" y="620" on="0"/>
        <pt x="330" y="620" on="1"/>
        <pt x="300" y="620" on="0"/>
        <pt x="249" y="595" on="0"/>
        <pt x="211" y="533" on="0"/>
        <pt x="190" y="429" on="0"/>
        <pt x="190" y="350" on="1"/>
        <pt x="190" y="271" on="0"/>
        <pt x="212" y="167" on="0"/>
        <pt x="251" y="105" on="0"/>
        <pt x="306" y="80" on="0"/>
        <pt x="340" y="80" on="1"/>
        <pt x="359" y="80" on="0"/>
        <pt x="374" y="85" on="1"/>
        <pt x="382" y="87" on="0"/>
        <pt x="390" y="90" on="1"/>
        <pt x="390" y="300" on="1"/>
        <pt x="285" y="300" on="1"/>
        <pt x="285" y="390" on="1"/>
        <pt x="490" y="390" on="1"/>
        <pt x="530" y="350" on="1"/>
        <pt x="530" y="45" on="1"/>
        <pt x="509" y="29" on="0"/>
        <pt x="479" y="17" on="1"/>
        <pt x="453" y="6" on="0"/>
        <pt x="379" y="-10" on="0"/>
        <pt x="330" y="-10" on="1"/>
        <pt x="264" y="-10" on="0"/>
        <pt x="160" y="31" on="0"/>
        <pt x="88" y="118" on="0"/>
        <pt x="50" y="254" on="0"/>
      </contour>
    </TTGlyph>
    <TTGlyph name="Gbreve" xMin="50" yMin="-10" xMax="530" yMax="890">
      <component glyphName=".ttfautohint" x="50" y="0" flags="0x1000"/>
      <component glyphName="G" x="0" y="0" flags="0x1204"/>
      <component glyphName="breve" x="142" y="190" flags="0x1004"/>
    </TTGlyph>
    <TTGlyph name="Gcommaaccent" xMin="50" yMin="-289" xMax="530" yMax="710">
      <component glyphName=".ttfautohint" x="50" y="0" flags="0x1000"/>
      <component glyphName="G" x="0" y="0" flags="0x1204"/>
      <component glyphName="commaaccent" x="257" y="-39" flags="0x1004"/>
    </TTGlyph>
    <TTGlyph name="H" xMin="85" yMin="0" xMax="575" yMax="700">
      <contour>
        <pt x="575" y="700" on="1"/>
        <pt x="575" y="0" on="1"/>
        <pt x="435" y="0" on="1"/>
        <pt x="435" y="310" on="1"/>
        <pt x="225" y="310" on="1"/>
        <pt x="225" y="0" on="1"/>
        <pt x="85" y="0" on="1"/>
        <pt x="85" y="700" on="1"/>
        <pt x="225" y="700" on="1"/>
        <pt x="225" y="400" on="1"/>
        <pt x="435" y="400" on="1"/>
        <pt x="435" y="700" on="1"/>
      </contour>
    </TTGlyph>
    <TTGlyph name="I" xMin="85" yMin="0" xMax="225" yMax="700">
      <contour>
        <pt x="85" y="700" on="1"/>
        <pt x="225" y="700" on="1"/>
        <pt x="225" y="0" on="1"/>
        <pt x="85" y="0" on="1"/>
      </contour>
    </TTGlyph>
    <TTGlyph name="Iacute" xMin="76" yMin="0" xMax="272" yMax="900">
      <component glyphName=".ttfautohint" x="76" y="0" flags="0x1000"/>
      <component glyphName="I" x="-9" y="0" flags="0x1004"/>
      <component glyphName="acute" x="82" y="200" flags="0x1004"/>
    </TTGlyph>
    <TTGlyph name="Icircumflex" xMin="-14" yMin="0" xMax="306" yMax="894">
      <component glyphName=".ttfautohint" x="0" y="0" flags="0x1000"/>
      <component glyphName="I" x="-9" y="0" flags="0x1004"/>
      <component glyphName="circumflex" x="-24" y="200" flags="0x1004"/>
    </TTGlyph>
    <TTGlyph name="Idieresis" xMin="-14" yMin="0" xMax="321" yMax="910">
      <component glyphName=".ttfautohint" x="0" y="0" flags="0x1000"/>
      <component glyphName="I" x="0" y="0" flags="0x1204"/>
      <component glyphName="dieresis" x="-24" y="200" flags="0x1004"/>
    </TTGlyph>
    <TTGlyph name="Idotaccent" xMin="75" yMin="0" xMax="225" yMax="910">
      <component glyphName=".ttfautohint" x="75" y="0" flags="0x1000"/>
      <component glyphName="I" x="-4" y="0" flags="0x1004"/>
      <component glyphName="dotaccent" x="65" y="200" flags="0x1004"/>
    </TTGlyph>
    <TTGlyph name="Igrave" xMin="15" yMin="0" xMax="214" yMax="900">
      <component glyphName=".ttfautohint" x="15" y="0" flags="0x1000"/>
      <component glyphName="I" x="-11" y="0" flags="0x1004"/>
      <component glyphName="grave" x="5" y="200" flags="0x1004"/>
    </TTGlyph>
    <TTGlyph name="Imacron" xMin="6" yMin="0" xMax="296" yMax="850">
      <component glyphName=".ttfautohint" x="6" y="0" flags="0x1000"/>
      <component glyphName="I" x="-4" y="0" flags="0x1004"/>
      <component glyphName="macron" x="-4" y="190" flags="0x1004"/>
    </TTGlyph>
    <TTGlyph name="Iogonek" xMin="70" yMin="-185" xMax="260" yMax="700">
      <component glyphName=".ttfautohint" x="70" y="0" flags="0x1000"/>
      <component glyphName="I" x="5" y="0" flags="0x1004"/>
      <component glyphName="ogonek" x="60" y="0" flags="0x1004"/>
    </TTGlyph>
    <TTGlyph name="Itilde" xMin="-4" yMin="0" xMax="306" yMax="920">
      <component glyphName=".ttfautohint" x="0" y="0" flags="0x1000"/>
      <component glyphName="I" x="0" y="0" flags="0x1004"/>
      <component glyphName="tilde" x="-14" y="200" flags="0x1004"/>
    </TTGlyph>
    <TTGlyph name="J" xMin="0" yMin="-10" xMax="375" yMax="700">
      <contour>
        <pt x="140" y="80" on="1"/>
        <pt x="185" y="80" on="0"/>
        <pt x="235" y="133" on="0"/>
        <pt x="235" y="190" on="1"/>
        <pt x="235" y="700" on="1"/>
        <pt x="375" y="700" on="1"/>
        <pt x="375" y="190" on="1"/>
        <pt x="375" y="100" on="0"/>
        <pt x="259" y="-10" on="0"/>
        <pt x="150" y="-10" on="1"/>
        <pt x="120" y="-10" on="0"/>
        <pt x="65" y="4" on="0"/>
        <pt x="45" y="12" on="1"/>
        <pt x="20" y="22" on="0"/>
        <pt x="0" y="35" on="1"/>
        <pt x="40" y="120" on="1"/>
        <pt x="50" y="120" on="1"/>
        <pt x="63" y="109" on="0"/>
        <pt x="78" y="100" on="1"/>
        <pt x="91" y="92" on="0"/>
        <pt x="123" y="80" on="0"/>
      </contour>
    </TTGlyph>
    <TTGlyph name="Jcircumflex" xMin="0" yMin="-10" xMax="460" yMax="874">
      <component glyphName=".ttfautohint" x="0" y="0" flags="0x1000"/>
      <component glyphName="J" x="0" y="0" flags="0x1204"/>
      <component glyphName="circumflex" x="130" y="180" flags="0x1004"/>
    </TTGlyph>
    <TTGlyph name="K" xMin="85" yMin="0" xMax="580" yMax="700">
      <contour>
        <pt x="580" y="0" on="1"/>
        <pt x="420" y="0" on="1"/>
        <pt x="225" y="330" on="1"/>
        <pt x="225" y="0" on="1"/>
        <pt x="85" y="0" on="1"/>
        <pt x="85" y="700" on="1"/>
        <pt x="225" y="700" on="1"/>
        <pt x="225" y="390" on="1"/>
        <pt x="410" y="700" on="1"/>
        <pt x="565" y="700" on="1"/>
        <pt x="355" y="365" on="1"/>
      </contour>
    </TTGlyph>
    <TTGlyph name="Kcommaaccent" xMin="85" yMin="-240" xMax="580" yMax="700">
      <component glyphName=".ttfautohint" x="85" y="0" flags="0x1000"/>
      <component glyphName="K" x="0" y="0" flags="0x1204"/>
      <component glyphName="commaaccent" x="242" y="10" flags="0x1004"/>
    </TTGlyph>
    <TTGlyph name="L" xMin="85" yMin="0" xMax="495" yMax="700">
      <contour>
        <pt x="225" y="700" on="1"/>
        <pt x="225" y="90" on="1"/>
        <pt x="495" y="90" on="1"/>
        <pt x="495" y="0" on="1"/>
        <pt x="85" y="0" on="1"/>
        <pt x="85" y="700" on="1"/>
      </contour>
    </TTGlyph>
    <TTGlyph name="Lacute" xMin="85" yMin="0" xMax="495" yMax="900">
      <component glyphName=".ttfautohint" x="85" y="0" flags="0x1000"/>
      <component glyphName="L" x="0" y="0" flags="0x1204"/>
      <component glyphName="acute" x="110" y="200" flags="0x1004"/>
    </TTGlyph>
    <TTGlyph name="Lcaron" xMin="85" yMin="0" xMax="495" yMax="700">
      <contour>
        <pt x="280" y="635" on="1"/>
        <pt x="280" y="663" on="0"/>
        <pt x="316" y="700" on="0"/>
        <pt x="340" y="700" on="1"/>
        <pt x="372" y="700" on="0"/>
        <pt x="410" y="660" on="0"/>
        <pt x="410" y="625" on="1"/>
        <pt x="410" y="581" on="0"/>
        <pt x="383" y="519" on="0"/>
        <pt x="367" y="499" on="1"/>
        <pt x="349" y="475" on="0"/>
        <pt x="325" y="460" on="1"/>
        <pt x="295" y="494" on="1"/>
        <pt x="310" y="505" on="0"/>
        <pt x="322" y="518" on="1"/>
        <pt x="333" y="529" on="0"/>
        <pt x="350" y="558" on="0"/>
        <pt x="350" y="575" on="1"/>
        <pt x="318" y="575" on="0"/>
        <pt x="280" y="611" on="0"/>
      </contour>
      <contour>
        <pt x="225" y="700" on="1"/>
        <pt x="225" y="90" on="1"/>
        <pt x="495" y="90" on="1"/>
        <pt x="495" y="0" on="1"/>
        <pt x="85" y="0" on="1"/>
        <pt x="85" y="700" on="1"/>
      </contour>
    </TTGlyph>
    <TTGlyph name="Lcommaaccent" xMin="85" yMin="-289" xMax="495" yMax="700">
      <component glyphName=".ttfautohint" x="85" y="0" flags="0x1000"/>
      <component glyphName="L" x="0" y="0" flags="0x1204"/>
      <component glyphName="commaaccent" x="227" y="-39" flags="0x1004"/>
    </TTGlyph>
    <TTGlyph name="Lslash" xMin="35" yMin="0" xMax="500" yMax="700">
      <contour>
        <pt x="35" y="340" on="1"/>
        <pt x="90" y="380" on="1"/>
        <pt x="90" y="700" on="1"/>
        <pt x="230" y="700" on="1"/>
        <pt x="230" y="483" on="1"/>
        <pt x="320" y="550" on="1"/>
        <pt x="320" y="420" on="1"/>
        <pt x="230" y="353" on="1"/>
        <pt x="230" y="90" on="1"/>
        <pt x="500" y="90" on="1"/>
        <pt x="500" y="0" on="1"/>
        <pt x="90" y="0" on="1"/>
        <pt x="90" y="250" on="1"/>
        <pt x="35" y="210" on="1"/>
      </contour>
    </TTGlyph>
    <TTGlyph name="M" xMin="85" yMin="0" xMax="785" yMax="700">
      <contour>
        <pt x="375" y="115" on="1"/>
        <pt x="250" y="365" on="1"/>
        <pt x="244" y="376" on="0"/>
        <pt x="235" y="399" on="0"/>
        <pt x="231" y="409" on="1"/>
        <pt x="227" y="420" on="0"/>
        <pt x="224" y="431" on="1"/>
        <pt x="220" y="431" on="1"/>
        <pt x="221" y="420" on="0"/>
        <pt x="222" y="409" on="1"/>
        <pt x="223" y="399" on="0"/>
        <pt x="225" y="376" on="0"/>
        <pt x="225" y="365" on="1"/>
        <pt x="225" y="0" on="1"/>
        <pt x="85" y="0" on="1"/>
        <pt x="85" y="700" on="1"/>
        <pt x="220" y="700" on="1"/>
        <pt x="415" y="305" on="1"/>
        <pt x="423" y="289" on="0"/>
        <pt x="428" y="272" on="1"/>
        <pt x="431" y="263" on="0"/>
        <pt x="433" y="255" on="1"/>
        <pt x="437" y="255" on="1"/>
        <pt x="439" y="263" on="0"/>
        <pt x="442" y="272" on="1"/>
        <pt x="447" y="289" on="0"/>
        <pt x="455" y="305" on="1"/>
        <pt x="650" y="700" on="1"/>
        <pt x="785" y="700" on="1"/>
        <pt x="785" y="0" on="1"/>
        <pt x="645" y="0" on="1"/>
        <pt x="645" y="365" on="1"/>
        <pt x="645" y="376" on="0"/>
        <pt x="646" y="399" on="0"/>
        <pt x="647" y="409" on="1"/>
        <pt x="648" y="420" on="0"/>
        <pt x="650" y="431" on="1"/>
        <pt x="646" y="431" on="1"/>
        <pt x="643" y="420" on="0"/>
        <pt x="639" y="409" on="1"/>
        <pt x="635" y="399" on="0"/>
        <pt x="625" y="376" on="0"/>
        <pt x="620" y="365" on="1"/>
        <pt x="495" y="115" on="1"/>
      </contour>
    </TTGlyph>
    <TTGlyph name="N" xMin="85" yMin="0" xMax="575" yMax="700">
      <contour>
        <pt x="410" y="310" on="1"/>
        <pt x="415" y="299" on="0"/>
        <pt x="424" y="275" on="0"/>
        <pt x="428" y="266" on="1"/>
        <pt x="432" y="255" on="0"/>
        <pt x="436" y="245" on="1"/>
        <pt x="440" y="245" on="1"/>
        <pt x="438" y="255" on="0"/>
        <pt x="437" y="266" on="1"/>
        <pt x="436" y="275" on="0"/>
        <pt x="435" y="299" on="0"/>
        <pt x="435" y="310" on="1"/>
        <pt x="435" y="700" on="1"/>
        <pt x="575" y="700" on="1"/>
        <pt x="575" y="0" on="1"/>
        <pt x="425" y="0" on="1"/>
        <pt x="250" y="390" on="1"/>
        <pt x="245" y="401" on="0"/>
        <pt x="236" y="424" on="0"/>
        <pt x="232" y="434" on="1"/>
        <pt x="228" y="445" on="0"/>
        <pt x="224" y="455" on="1"/>
        <pt x="220" y="455" on="1"/>
        <pt x="221" y="445" on="0"/>
        <pt x="222" y="434" on="1"/>
        <pt x="223" y="424" on="0"/>
        <pt x="225" y="401" on="0"/>
        <pt x="225" y="390" on="1"/>
        <pt x="225" y="0" on="1"/>
        <pt x="85" y="0" on="1"/>
        <pt x="85" y="700" on="1"/>
        <pt x="235" y="700" on="1"/>
      </contour>
    </TTGlyph>
    <TTGlyph name="Nacute" xMin="85" yMin="0" xMax="575" yMax="890">
      <component glyphName=".ttfautohint" x="85" y="0" flags="0x1000"/>
      <component glyphName="N" x="0" y="0" flags="0x1204"/>
      <component glyphName="acute" x="257" y="190" flags="0x1004"/>
    </TTGlyph>
    <TTGlyph name="Ncaron" xMin="85" yMin="0" xMax="575" yMax="890">
      <component glyphName=".ttfautohint" x="85" y="0" flags="0x1000"/>
      <component glyphName="N" x="0" y="0" flags="0x1204"/>
      <component glyphName="caron" x="160" y="190" flags="0x1004"/>
    </TTGlyph>
    <TTGlyph name="Ncommaaccent" xMin="85" yMin="-240" xMax="575" yMax="700">
      <component glyphName=".ttfautohint" x="85" y="0" flags="0x1000"/>
      <component glyphName="N" x="0" y="0" flags="0x1204"/>
      <component glyphName="commaaccent" x="255" y="10" flags="0x1004"/>
    </TTGlyph>
    <TTGlyph name="Ntilde" xMin="76" yMin="0" xMax="566" yMax="890">
      <component glyphName=".ttfautohint" x="76" y="0" flags="0x1000"/>
      <component glyphName="N" x="-9" y="0" flags="0x1004"/>
      <component glyphName="tilde" x="150" y="170" flags="0x1004"/>
    </TTGlyph>
    <TTGlyph name="O" xMin="50" yMin="-10" xMax="580" yMax="710">
      <contour>
        <pt x="440" y="350" on="1"/>
        <pt x="440" y="429" on="0"/>
        <pt x="419" y="533" on="0"/>
        <pt x="385" y="595" on="0"/>
        <pt x="339" y="620" on="0"/>
        <pt x="315" y="620" on="1"/>
        <pt x="291" y="620" on="0"/>
        <pt x="245" y="595" on="0"/>
        <pt x="211" y="533" on="0"/>
        <pt x="190" y="429" on="0"/>
        <pt x="190" y="350" on="1"/>
        <pt x="190" y="271" on="0"/>
        <pt x="211" y="167" on="0"/>
        <pt x="245" y="105" on="0"/>
        <pt x="291" y="80" on="0"/>
        <pt x="315" y="80" on="1"/>
        <pt x="339" y="80" on="0"/>
        <pt x="385" y="105" on="0"/>
        <pt x="419" y="167" on="0"/>
        <pt x="440" y="271" on="0"/>
      </contour>
      <contour>
        <pt x="580" y="350" on="1"/>
        <pt x="580" y="254" on="0"/>
        <pt x="542" y="118" on="0"/>
        <pt x="473" y="31" on="0"/>
        <pt x="375" y="-10" on="0"/>
        <pt x="315" y="-10" on="1"/>
        <pt x="255" y="-10" on="0"/>
        <pt x="157" y="31" on="0"/>
        <pt x="88" y="118" on="0"/>
        <pt x="50" y="254" on="0"/>
        <pt x="50" y="350" on="1"/>
        <pt x="50" y="446" on="0"/>
        <pt x="88" y="582" on="0"/>
        <pt x="157" y="669" on="0"/>
        <pt x="255" y="710" on="0"/>
        <pt x="315" y="710" on="1"/>
        <pt x="375" y="710" on="0"/>
        <pt x="473" y="669" on="0"/>
        <pt x="542" y="582" on="0"/>
        <pt x="580" y="446" on="0"/>
      </contour>
    </TTGlyph>
    <TTGlyph name="OE" xMin="50" yMin="0" xMax="810" yMax="700">
      <contour>
        <pt x="370" y="610" on="1"/>
        <pt x="325" y="610" on="0"/>
        <pt x="257" y="585" on="0"/>
        <pt x="212" y="525" on="0"/>
        <pt x="190" y="425" on="0"/>
        <pt x="190" y="350" on="1"/>
        <pt x="190" y="275" on="0"/>
        <pt x="212" y="175" on="0"/>
        <pt x="257" y="115" on="0"/>
        <pt x="325" y="90" on="0"/>
        <pt x="370" y="90" on="1"/>
        <pt x="400" y="90" on="1"/>
        <pt x="400" y="610" on="1"/>
      </contour>
      <contour>
        <pt x="810" y="700" on="1"/>
        <pt x="810" y="610" on="1"/>
        <pt x="540" y="610" on="1"/>
        <pt x="540" y="410" on="1"/>
        <pt x="750" y="410" on="1"/>
        <pt x="750" y="320" on="1"/>
        <pt x="540" y="320" on="1"/>
        <pt x="540" y="90" on="1"/>
        <pt x="810" y="90" on="1"/>
        <pt x="810" y="0" on="1"/>
        <pt x="370" y="0" on="1"/>
        <pt x="212" y="0" on="0"/>
        <pt x="50" y="170" on="0"/>
        <pt x="50" y="350" on="1"/>
        <pt x="50" y="530" on="0"/>
        <pt x="212" y="700" on="0"/>
        <pt x="370" y="700" on="1"/>
      </contour>
    </TTGlyph>
    <TTGlyph name="Oacute" xMin="50" yMin="-10" xMax="580" yMax="900">
      <component glyphName=".ttfautohint" x="50" y="0" flags="0x1000"/>
      <component glyphName="O" x="0" y="0" flags="0x1204"/>
      <component glyphName="acute" x="242" y="200" flags="0x1004"/>
    </TTGlyph>
    <TTGlyph name="Ocircumflex" xMin="50" yMin="-10" xMax="580" yMax="894">
      <component glyphName=".ttfautohint" x="50" y="0" flags="0x1000"/>
      <component glyphName="O" x="0" y="0" flags="0x1204"/>
      <component glyphName="circumflex" x="145" y="200" flags="0x1004"/>
    </TTGlyph>
    <TTGlyph name="Odieresis" xMin="50" yMin="-10" xMax="580" yMax="910">
      <component glyphName=".ttfautohint" x="50" y="0" flags="0x1000"/>
      <component glyphName="O" x="0" y="0" flags="0x1204"/>
      <component glyphName="dieresis" x="135" y="200" flags="0x1004"/>
    </TTGlyph>
    <TTGlyph name="Ograve" xMin="50" yMin="-10" xMax="580" yMax="900">
      <component glyphName=".ttfautohint" x="50" y="0" flags="0x1000"/>
      <component glyphName="O" x="0" y="0" flags="0x1204"/>
      <component glyphName="grave" x="187" y="200" flags="0x1004"/>
    </TTGlyph>
    <TTGlyph name="Ohungarumlaut" xMin="50" yMin="-10" xMax="580" yMax="900">
      <component glyphName=".ttfautohint" x="50" y="0" flags="0x1000"/>
      <component glyphName="O" x="0" y="0" flags="0x1204"/>
      <component glyphName="hungarumlaut" x="192" y="200" flags="0x1004"/>
    </TTGlyph>
    <TTGlyph name="Omacron" xMin="50" yMin="-10" xMax="580" yMax="860">
      <component glyphName=".ttfautohint" x="50" y="0" flags="0x1000"/>
      <component glyphName="O" x="0" y="0" flags="0x1204"/>
      <component glyphName="macron" x="160" y="200" flags="0x1004"/>
    </TTGlyph>
    <TTGlyph name="Oslash" xMin="50" yMin="-10" xMax="580" yMax="710">
      <contour>
        <pt x="107" y="96" on="1"/>
        <pt x="79" y="140" on="0"/>
        <pt x="50" y="265" on="0"/>
        <pt x="50" y="350" on="1"/>
        <pt x="50" y="446" on="0"/>
        <pt x="88" y="582" on="0"/>
        <pt x="157" y="669" on="0"/>
        <pt x="255" y="710" on="0"/>
        <pt x="315" y="710" on="1"/>
        <pt x="394" y="710" on="0"/>
        <pt x="450" y="676" on="1"/>
        <pt x="465" y="700" on="1"/>
        <pt x="580" y="700" on="1"/>
        <pt x="523" y="604" on="1"/>
        <pt x="550" y="560" on="0"/>
        <pt x="580" y="435" on="0"/>
        <pt x="580" y="350" on="1"/>
        <pt x="580" y="254" on="0"/>
        <pt x="542" y="118" on="0"/>
        <pt x="473" y="31" on="0"/>
        <pt x="375" y="-10" on="0"/>
        <pt x="315" y="-10" on="1"/>
        <pt x="237" y="-10" on="0"/>
        <pt x="179" y="24" on="1"/>
        <pt x="165" y="0" on="1"/>
        <pt x="50" y="0" on="1"/>
      </contour>
      <contour>
        <pt x="190" y="350" on="1"/>
        <pt x="190" y="289" on="0"/>
        <pt x="196" y="246" on="1"/>
        <pt x="392" y="578" on="1"/>
        <pt x="375" y="601" on="0"/>
        <pt x="336" y="620" on="0"/>
        <pt x="315" y="620" on="1"/>
        <pt x="291" y="620" on="0"/>
        <pt x="245" y="595" on="0"/>
        <pt x="211" y="533" on="0"/>
        <pt x="190" y="429" on="0"/>
      </contour>
      <contour>
        <pt x="440" y="350" on="1"/>
        <pt x="440" y="409" on="0"/>
        <pt x="434" y="453" on="1"/>
        <pt x="237" y="122" on="1"/>
        <pt x="254" y="99" on="0"/>
        <pt x="293" y="80" on="0"/>
        <pt x="315" y="80" on="1"/>
        <pt x="339" y="80" on="0"/>
        <pt x="385" y="105" on="0"/>
        <pt x="419" y="167" on="0"/>
        <pt x="440" y="271" on="0"/>
      </contour>
    </TTGlyph>
    <TTGlyph name="Otilde" xMin="50" yMin="-10" xMax="580" yMax="900">
      <component glyphName=".ttfautohint" x="50" y="0" flags="0x1000"/>
      <component glyphName="O" x="0" y="0" flags="0x1204"/>
      <component glyphName="tilde" x="145" y="180" flags="0x1004"/>
    </TTGlyph>
    <TTGlyph name="P" xMin="85" yMin="0" xMax="555" yMax="700">
      <contour>
        <pt x="285" y="320" on="1"/>
        <pt x="353" y="320" on="0"/>
        <pt x="415" y="386" on="0"/>
        <pt x="415" y="465" on="1"/>
        <pt x="415" y="544" on="0"/>
        <pt x="353" y="610" on="0"/>
        <pt x="285" y="610" on="1"/>
        <pt x="225" y="610" on="1"/>
        <pt x="225" y="320" on="1"/>
      </contour>
      <contour>
        <pt x="225" y="230" on="1"/>
        <pt x="225" y="0" on="1"/>
        <pt x="85" y="0" on="1"/>
        <pt x="85" y="700" on="1"/>
        <pt x="285" y="700" on="1"/>
        <pt x="428" y="700" on="0"/>
        <pt x="555" y="582" on="0"/>
        <pt x="555" y="465" on="1"/>
        <pt x="555" y="348" on="0"/>
        <pt x="428" y="230" on="0"/>
        <pt x="285" y="230" on="1"/>
      </contour>
    </TTGlyph>
    <TTGlyph name="Q" xMin="50" yMin="-165" xMax="580" yMax="710">
      <contour>
        <pt x="580" y="350" on="1"/>
        <pt x="580" y="189" on="0"/>
        <pt x="475" y="22" on="0"/>
        <pt x="385" y="0" on="1"/>
        <pt x="385" y="-38" on="0"/>
        <pt x="416" y="-75" on="0"/>
        <pt x="435" y="-75" on="1"/>
        <pt x="453" y="-75" on="0"/>
        <pt x="461" y="-70" on="1"/>
        <pt x="465" y="-68" on="0"/>
        <pt x="469" y="-65" on="1"/>
        <pt x="479" y="-65" on="1"/>
        <pt x="505" y="-145" on="1"/>
        <pt x="496" y="-151" on="0"/>
        <pt x="484" y="-155" on="1"/>
        <pt x="473" y="-159" on="0"/>
        <pt x="444" y="-165" on="0"/>
        <pt x="425" y="-165" on="1"/>
        <pt x="384" y="-165" on="0"/>
        <pt x="318" y="-140" on="0"/>
        <pt x="271" y="-96" on="0"/>
        <pt x="245" y="-36" on="0"/>
        <pt x="245" y="0" on="1"/>
        <pt x="155" y="22" on="0"/>
        <pt x="50" y="189" on="0"/>
        <pt x="50" y="350" on="1"/>
        <pt x="50" y="446" on="0"/>
        <pt x="88" y="582" on="0"/>
        <pt x="157" y="669" on="0"/>
        <pt x="255" y="710" on="0"/>
        <pt x="315" y="710" on="1"/>
        <pt x="375" y="710" on="0"/>
        <pt x="473" y="669" on="0"/>
        <pt x="542" y="582" on="0"/>
        <pt x="580" y="446" on="0"/>
      </contour>
      <contour>
        <pt x="440" y="350" on="1"/>
        <pt x="440" y="429" on="0"/>
        <pt x="419" y="533" on="0"/>
        <pt x="385" y="595" on="0"/>
        <pt x="339" y="620" on="0"/>
        <pt x="315" y="620" on="1"/>
        <pt x="291" y="620" on="0"/>
        <pt x="245" y="595" on="0"/>
        <pt x="211" y="533" on="0"/>
        <pt x="190" y="429" on="0"/>
        <pt x="190" y="350" on="1"/>
        <pt x="190" y="271" on="0"/>
        <pt x="211" y="167" on="0"/>
        <pt x="245" y="105" on="0"/>
        <pt x="291" y="80" on="0"/>
        <pt x="315" y="80" on="1"/>
        <pt x="339" y="80" on="0"/>
        <pt x="385" y="105" on="0"/>
        <pt x="419" y="167" on="0"/>
        <pt x="440" y="271" on="0"/>
      </contour>
    </TTGlyph>
    <TTGlyph name="R" xMin="85" yMin="0" xMax="585" yMax="700">
      <contour>
        <pt x="225" y="250" on="1"/>
        <pt x="225" y="0" on="1"/>
        <pt x="85" y="0" on="1"/>
        <pt x="85" y="700" on="1"/>
        <pt x="275" y="700" on="1"/>
        <pt x="417" y="700" on="0"/>
        <pt x="545" y="584" on="0"/>
        <pt x="545" y="475" on="1"/>
        <pt x="545" y="412" on="0"/>
        <pt x="504" y="335" on="0"/>
        <pt x="480" y="313" on="1"/>
        <pt x="451" y="287" on="0"/>
        <pt x="415" y="275" on="1"/>
        <pt x="585" y="0" on="1"/>
        <pt x="425" y="0" on="1"/>
        <pt x="280" y="250" on="1"/>
      </contour>
      <contour>
        <pt x="275" y="340" on="1"/>
        <pt x="343" y="340" on="0"/>
        <pt x="405" y="403" on="0"/>
        <pt x="405" y="475" on="1"/>
        <pt x="405" y="547" on="0"/>
        <pt x="343" y="610" on="0"/>
        <pt x="275" y="610" on="1"/>
        <pt x="225" y="610" on="1"/>
        <pt x="225" y="340" on="1"/>
      </contour>
    </TTGlyph>
    <TTGlyph name="Racute" xMin="85" yMin="0" xMax="585" yMax="900">
      <component glyphName=".ttfautohint" x="85" y="0" flags="0x1000"/>
      <component glyphName="R" x="0" y="0" flags="0x1204"/>
      <component glyphName="acute" x="225" y="200" flags="0x1004"/>
    </TTGlyph>
    <TTGlyph name="Rcaron" xMin="85" yMin="0" xMax="585" yMax="900">
      <component glyphName=".ttfautohint" x="85" y="0" flags="0x1000"/>
      <component glyphName="R" x="0" y="0" flags="0x1204"/>
      <component glyphName="caron" x="117" y="200" flags="0x1004"/>
    </TTGlyph>
    <TTGlyph name="Rcommaaccent" xMin="76" yMin="-240" xMax="576" yMax="700">
      <component glyphName=".ttfautohint" x="76" y="0" flags="0x1000"/>
      <component glyphName="R" x="-9" y="0" flags="0x1004"/>
      <component glyphName="commaaccent" x="222" y="10" flags="0x1004"/>
    </TTGlyph>
    <TTGlyph name="S" xMin="35" yMin="-10" xMax="500" yMax="710">
      <contour>
        <pt x="275" y="710" on="1"/>
        <pt x="326" y="710" on="0"/>
        <pt x="402" y="693" on="0"/>
        <pt x="428" y="682" on="1"/>
        <pt x="458" y="670" on="0"/>
        <pt x="480" y="655" on="1"/>
        <pt x="435" y="575" on="1"/>
        <pt x="425" y="575" on="1"/>
        <pt x="411" y="587" on="0"/>
        <pt x="391" y="597" on="1"/>
        <pt x="374" y="605" on="0"/>
        <pt x="320" y="620" on="0"/>
        <pt x="285" y="620" on="1"/>
        <pt x="262" y="620" on="0"/>
        <pt x="224" y="605" on="0"/>
        <pt x="196" y="579" on="0"/>
        <pt x="180" y="547" on="0"/>
        <pt x="180" y="530" on="1"/>
        <pt x="180" y="495" on="0"/>
        <pt x="227" y="449" on="0"/>
        <pt x="299" y="411" on="0"/>
        <pt x="381" y="373" on="0"/>
        <pt x="453" y="321" on="0"/>
        <pt x="500" y="246" on="0"/>
        <pt x="500" y="190" on="1"/>
        <pt x="500" y="147" on="0"/>
        <pt x="468" y="74" on="0"/>
        <pt x="405" y="20" on="0"/>
        <pt x="312" y="-10" on="0"/>
        <pt x="250" y="-10" on="1"/>
        <pt x="195" y="-10" on="0"/>
        <pt x="115" y="6" on="0"/>
        <pt x="88" y="17" on="1"/>
        <pt x="56" y="29" on="0"/>
        <pt x="35" y="45" on="1"/>
        <pt x="80" y="125" on="1"/>
        <pt x="90" y="125" on="1"/>
        <pt x="105" y="112" on="0"/>
        <pt x="126" y="102" on="1"/>
        <pt x="144" y="94" on="0"/>
        <pt x="200" y="80" on="0"/>
        <pt x="240" y="80" on="1"/>
        <pt x="300" y="80" on="0"/>
        <pt x="360" y="135" on="0"/>
        <pt x="360" y="180" on="1"/>
        <pt x="360" y="215" on="0"/>
        <pt x="313" y="261" on="0"/>
        <pt x="241" y="299" on="0"/>
        <pt x="159" y="337" on="0"/>
        <pt x="87" y="389" on="0"/>
        <pt x="40" y="464" on="0"/>
        <pt x="40" y="520" on="1"/>
        <pt x="40" y="559" on="0"/>
        <pt x="71" y="629" on="0"/>
        <pt x="131" y="680" on="0"/>
        <pt x="219" y="710" on="0"/>
      </contour>
    </TTGlyph>
    <TTGlyph name="Sacute" xMin="35" yMin="-10" xMax="500" yMax="900">
      <component glyphName=".ttfautohint" x="35" y="0" flags="0x1000"/>
      <component glyphName="S" x="0" y="0" flags="0x1204"/>
      <component glyphName="acute" x="205" y="200" flags="0x1004"/>
    </TTGlyph>
    <TTGlyph name="Scaron" xMin="35" yMin="-10" xMax="500" yMax="900">
      <component glyphName=".ttfautohint" x="35" y="0" flags="0x1000"/>
      <component glyphName="S" x="0" y="0" flags="0x1204"/>
      <component glyphName="caron" x="97" y="200" flags="0x1004"/>
    </TTGlyph>
    <TTGlyph name="Scedilla" xMin="35" yMin="-195" xMax="500" yMax="710">
      <component glyphName=".ttfautohint" x="35" y="0" flags="0x1000"/>
      <component glyphName="S" x="0" y="0" flags="0x1204"/>
      <component glyphName="cedilla" x="180" y="0" flags="0x1004"/>
    </TTGlyph>
    <TTGlyph name="Scommaaccent" xMin="35" yMin="-284" xMax="500" yMax="710">
      <component glyphName=".ttfautohint" x="35" y="0" flags="0x1000"/>
      <component glyphName="S" x="0" y="0" flags="0x1204"/>
      <component glyphName="commaaccent" x="210" y="-34" flags="0x1004"/>
    </TTGlyph>
    <TTGlyph name="T" xMin="10" yMin="0" xMax="500" yMax="700">
      <contour>
        <pt x="185" y="0" on="1"/>
        <pt x="185" y="610" on="1"/>
        <pt x="10" y="610" on="1"/>
        <pt x="10" y="700" on="1"/>
        <pt x="500" y="700" on="1"/>
        <pt x="500" y="610" on="1"/>
        <pt x="325" y="610" on="1"/>
        <pt x="325" y="0" on="1"/>
      </contour>
    </TTGlyph>
    <TTGlyph name="Tcaron" xMin="10" yMin="0" xMax="500" yMax="900">
      <component glyphName=".ttfautohint" x="10" y="0" flags="0x1000"/>
      <component glyphName="T" x="0" y="0" flags="0x1204"/>
      <component glyphName="caron" x="85" y="200" flags="0x1004"/>
    </TTGlyph>
    <TTGlyph name="Tcommaaccent" xMin="10" yMin="-289" xMax="500" yMax="700">
      <component glyphName=".ttfautohint" x="10" y="0" flags="0x1000"/>
      <component glyphName="T" x="0" y="0" flags="0x1204"/>
      <component glyphName="commaaccent" x="180" y="-39" flags="0x1004"/>
    </TTGlyph>
    <TTGlyph name="Thorn" xMin="85" yMin="-20" xMax="605" yMax="720">
      <contour>
        <pt x="295" y="650" on="1"/>
        <pt x="368" y="650" on="0"/>
        <pt x="483" y="608" on="0"/>
        <pt x="563" y="530" on="0"/>
        <pt x="605" y="419" on="0"/>
        <pt x="605" y="350" on="1"/>
        <pt x="605" y="281" on="0"/>
        <pt x="563" y="170" on="0"/>
        <pt x="483" y="92" on="0"/>
        <pt x="368" y="50" on="0"/>
        <pt x="295" y="50" on="1"/>
        <pt x="225" y="50" on="1"/>
        <pt x="225" y="-20" on="1"/>
        <pt x="85" y="-20" on="1"/>
        <pt x="85" y="720" on="1"/>
        <pt x="225" y="720" on="1"/>
        <pt x="225" y="650" on="1"/>
      </contour>
      <contour>
        <pt x="225" y="560" on="1"/>
        <pt x="225" y="140" on="1"/>
        <pt x="295" y="140" on="1"/>
        <pt x="370" y="140" on="0"/>
        <pt x="465" y="245" on="0"/>
        <pt x="465" y="350" on="1"/>
        <pt x="465" y="455" on="0"/>
        <pt x="370" y="560" on="0"/>
        <pt x="295" y="560" on="1"/>
      </contour>
    </TTGlyph>
    <TTGlyph name="U" xMin="75" yMin="-10" xMax="565" yMax="700">
      <contour>
        <pt x="425" y="700" on="1"/>
        <pt x="565" y="700" on="1"/>
        <pt x="565" y="230" on="1"/>
        <pt x="565" y="117" on="0"/>
        <pt x="437" y="-10" on="0"/>
        <pt x="320" y="-10" on="1"/>
        <pt x="203" y="-10" on="0"/>
        <pt x="75" y="117" on="0"/>
        <pt x="75" y="230" on="1"/>
        <pt x="75" y="700" on="1"/>
        <pt x="215" y="700" on="1"/>
        <pt x="215" y="230" on="1"/>
        <pt x="215" y="151" on="0"/>
        <pt x="275" y="80" on="0"/>
        <pt x="320" y="80" on="1"/>
        <pt x="365" y="80" on="0"/>
        <pt x="425" y="151" on="0"/>
        <pt x="425" y="230" on="1"/>
      </contour>
    </TTGlyph>
    <TTGlyph name="Uacute" xMin="75" yMin="-10" xMax="565" yMax="880">
      <component glyphName=".ttfautohint" x="75" y="0" flags="0x1000"/>
      <component glyphName="U" x="0" y="0" flags="0x1204"/>
      <component glyphName="acute" x="257" y="180" flags="0x1004"/>
    </TTGlyph>
    <TTGlyph name="Ucircumflex" xMin="75" yMin="-10" xMax="565" yMax="894">
      <component glyphName=".ttfautohint" x="75" y="0" flags="0x1000"/>
      <component glyphName="U" x="0" y="0" flags="0x1204"/>
      <component glyphName="circumflex" x="150" y="200" flags="0x1004"/>
    </TTGlyph>
    <TTGlyph name="Udieresis" xMin="75" yMin="-10" xMax="565" yMax="910">
      <component glyphName=".ttfautohint" x="75" y="0" flags="0x1000"/>
      <component glyphName="U" x="0" y="0" flags="0x1204"/>
      <component glyphName="dieresis" x="140" y="200" flags="0x1004"/>
    </TTGlyph>
    <TTGlyph name="Ugrave" xMin="75" yMin="-10" xMax="565" yMax="880">
      <component glyphName=".ttfautohint" x="75" y="0" flags="0x1000"/>
      <component glyphName="U" x="0" y="0" flags="0x1204"/>
      <component glyphName="grave" x="192" y="180" flags="0x1004"/>
    </TTGlyph>
    <TTGlyph name="Uhungarumlaut" xMin="75" yMin="-10" xMax="565" yMax="890">
      <component glyphName=".ttfautohint" x="75" y="0" flags="0x1000"/>
      <component glyphName="U" x="0" y="0" flags="0x1204"/>
      <component glyphName="hungarumlaut" x="187" y="190" flags="0x1004"/>
    </TTGlyph>
    <TTGlyph name="Umacron" xMin="75" yMin="-10" xMax="565" yMax="850">
      <component glyphName=".ttfautohint" x="75" y="0" flags="0x1000"/>
      <component glyphName="U" x="0" y="0" flags="0x1204"/>
      <component glyphName="macron" x="165" y="190" flags="0x1004"/>
    </TTGlyph>
    <TTGlyph name="Uogonek" xMin="75" yMin="-185" xMax="565" yMax="700">
      <component glyphName=".ttfautohint" x="75" y="0" flags="0x1000"/>
      <component glyphName="U" x="0" y="0" flags="0x1204"/>
      <component glyphName="ogonek" x="215" y="0" flags="0x1004"/>
    </TTGlyph>
    <TTGlyph name="Uring" xMin="75" yMin="-10" xMax="565" yMax="945">
      <component glyphName=".ttfautohint" x="75" y="0" flags="0x1000"/>
      <component glyphName="U" x="0" y="0" flags="0x1204"/>
      <component glyphName="ring" x="200" y="190" flags="0x1004"/>
    </TTGlyph>
    <TTGlyph name="V" xMin="15" yMin="0" xMax="575" yMax="700">
      <contour>
        <pt x="280" y="240" on="1"/>
        <pt x="283" y="228" on="0"/>
        <pt x="287" y="202" on="0"/>
        <pt x="289" y="191" on="1"/>
        <pt x="291" y="178" on="0"/>
        <pt x="293" y="165" on="1"/>
        <pt x="297" y="165" on="1"/>
        <pt x="298" y="177" on="0"/>
        <pt x="300" y="190" on="1"/>
        <pt x="302" y="201" on="0"/>
        <pt x="306" y="228" on="0"/>
        <pt x="310" y="240" on="1"/>
        <pt x="435" y="700" on="1"/>
        <pt x="575" y="700" on="1"/>
        <pt x="375" y="0" on="1"/>
        <pt x="215" y="0" on="1"/>
        <pt x="15" y="700" on="1"/>
        <pt x="155" y="700" on="1"/>
      </contour>
    </TTGlyph>
    <TTGlyph name="W" xMin="15" yMin="0" xMax="885" yMax="700">
      <contour>
        <pt x="625" y="260" on="1"/>
        <pt x="629" y="241" on="0"/>
        <pt x="631" y="221" on="1"/>
        <pt x="632" y="210" on="0"/>
        <pt x="633" y="200" on="1"/>
        <pt x="637" y="200" on="1"/>
        <pt x="638" y="210" on="0"/>
        <pt x="639" y="221" on="1"/>
        <pt x="641" y="241" on="0"/>
        <pt x="645" y="260" on="1"/>
        <pt x="745" y="700" on="1"/>
        <pt x="885" y="700" on="1"/>
        <pt x="715" y="0" on="1"/>
        <pt x="565" y="0" on="1"/>
        <pt x="460" y="435" on="1"/>
        <pt x="458" y="444" on="0"/>
        <pt x="455" y="467" on="0"/>
        <pt x="454" y="477" on="1"/>
        <pt x="453" y="488" on="0"/>
        <pt x="452" y="500" on="1"/>
        <pt x="448" y="500" on="1"/>
        <pt x="447" y="488" on="0"/>
        <pt x="446" y="477" on="1"/>
        <pt x="445" y="467" on="0"/>
        <pt x="442" y="444" on="0"/>
        <pt x="440" y="435" on="1"/>
        <pt x="335" y="0" on="1"/>
        <pt x="185" y="0" on="1"/>
        <pt x="15" y="700" on="1"/>
        <pt x="155" y="700" on="1"/>
        <pt x="255" y="260" on="1"/>
        <pt x="259" y="241" on="0"/>
        <pt x="261" y="221" on="1"/>
        <pt x="262" y="210" on="0"/>
        <pt x="263" y="200" on="1"/>
        <pt x="267" y="200" on="1"/>
        <pt x="268" y="210" on="0"/>
        <pt x="269" y="221" on="1"/>
        <pt x="271" y="241" on="0"/>
        <pt x="275" y="260" on="1"/>
        <pt x="376" y="700" on="1"/>
        <pt x="524" y="700" on="1"/>
      </contour>
    </TTGlyph>
    <TTGlyph name="X" xMin="10" yMin="0" xMax="550" yMax="700">
      <contour>
        <pt x="395" y="700" on="1"/>
        <pt x="545" y="700" on="1"/>
        <pt x="375" y="355" on="1"/>
        <pt x="550" y="0" on="1"/>
        <pt x="400" y="0" on="1"/>
        <pt x="295" y="225" on="1"/>
        <pt x="291" y="233" on="0"/>
        <pt x="287" y="248" on="0"/>
        <pt x="285" y="255" on="1"/>
        <pt x="283" y="263" on="0"/>
        <pt x="282" y="270" on="1"/>
        <pt x="278" y="270" on="1"/>
        <pt x="277" y="263" on="0"/>
        <pt x="275" y="255" on="1"/>
        <pt x="273" y="248" on="0"/>
        <pt x="268" y="233" on="0"/>
        <pt x="265" y="225" on="1"/>
        <pt x="160" y="0" on="1"/>
        <pt x="10" y="0" on="1"/>
        <pt x="185" y="355" on="1"/>
        <pt x="15" y="700" on="1"/>
        <pt x="165" y="700" on="1"/>
        <pt x="265" y="485" on="1"/>
        <pt x="268" y="477" on="0"/>
        <pt x="273" y="462" on="0"/>
        <pt x="275" y="455" on="1"/>
        <pt x="277" y="447" on="0"/>
        <pt x="278" y="440" on="1"/>
        <pt x="282" y="440" on="1"/>
        <pt x="283" y="447" on="0"/>
        <pt x="285" y="455" on="1"/>
        <pt x="287" y="462" on="0"/>
        <pt x="291" y="477" on="0"/>
        <pt x="295" y="485" on="1"/>
      </contour>
    </TTGlyph>
    <TTGlyph name="Y" xMin="0" yMin="0" xMax="570" yMax="700">
      <contour>
        <pt x="425" y="700" on="1"/>
        <pt x="570" y="700" on="1"/>
        <pt x="355" y="230" on="1"/>
        <pt x="355" y="0" on="1"/>
        <pt x="215" y="0" on="1"/>
        <pt x="215" y="230" on="1"/>
        <pt x="0" y="700" on="1"/>
        <pt x="145" y="700" on="1"/>
        <pt x="270" y="405" on="1"/>
        <pt x="273" y="397" on="0"/>
        <pt x="278" y="382" on="0"/>
        <pt x="280" y="375" on="1"/>
        <pt x="282" y="367" on="0"/>
        <pt x="283" y="360" on="1"/>
        <pt x="287" y="360" on="1"/>
        <pt x="288" y="367" on="0"/>
        <pt x="290" y="375" on="1"/>
        <pt x="292" y="382" on="0"/>
        <pt x="296" y="397" on="0"/>
        <pt x="300" y="405" on="1"/>
      </contour>
    </TTGlyph>
    <TTGlyph name="Yacute" xMin="0" yMin="0" xMax="570" yMax="880">
      <component glyphName=".ttfautohint" x="0" y="0" flags="0x1000"/>
      <component glyphName="Y" x="0" y="0" flags="0x1204"/>
      <component glyphName="acute" x="222" y="180" flags="0x1004"/>
    </TTGlyph>
    <TTGlyph name="Ydieresis" xMin="0" yMin="0" xMax="570" yMax="910">
      <component glyphName=".ttfautohint" x="0" y="0" flags="0x1000"/>
      <component glyphName="Y" x="0" y="0" flags="0x1204"/>
      <component glyphName="dieresis" x="105" y="200" flags="0x1004"/>
    </TTGlyph>
    <TTGlyph name="Z" xMin="35" yMin="0" xMax="490" yMax="700">
      <contour>
        <pt x="35" y="0" on="1"/>
        <pt x="35" y="95" on="1"/>
        <pt x="325" y="610" on="1"/>
        <pt x="35" y="610" on="1"/>
        <pt x="35" y="700" on="1"/>
        <pt x="485" y="700" on="1"/>
        <pt x="485" y="605" on="1"/>
        <pt x="195" y="90" on="1"/>
        <pt x="490" y="90" on="1"/>
        <pt x="490" y="0" on="1"/>
      </contour>
    </TTGlyph>
    <TTGlyph name="Zacute" xMin="35" yMin="0" xMax="490" yMax="900">
      <component glyphName=".ttfautohint" x="35" y="0" flags="0x1000"/>
      <component glyphName="Z" x="0" y="0" flags="0x1204"/>
      <component glyphName="acute" x="190" y="200" flags="0x1004"/>
    </TTGlyph>
    <TTGlyph name="Zcaron" xMin="35" yMin="0" xMax="490" yMax="900">
      <component glyphName=".ttfautohint" x="35" y="0" flags="0x1000"/>
      <component glyphName="Z" x="0" y="0" flags="0x1204"/>
      <component glyphName="caron" x="92" y="200" flags="0x1004"/>
    </TTGlyph>
    <TTGlyph name="Zdotaccent" xMin="35" yMin="0" xMax="490" yMax="910">
      <component glyphName=".ttfautohint" x="35" y="0" flags="0x1000"/>
      <component glyphName="Z" x="0" y="0" flags="0x1204"/>
      <component glyphName="dotaccent" x="177" y="200" flags="0x1004"/>
    </TTGlyph>
    <TTGlyph name="a" xMin="40" yMin="-10" xMax="475" yMax="510">
      <contour>
        <pt x="335" y="320" on="1"/>
        <pt x="335" y="373" on="0"/>
        <pt x="289" y="420" on="0"/>
        <pt x="240" y="420" on="1"/>
        <pt x="215" y="420" on="0"/>
        <pt x="177" y="408" on="0"/>
        <pt x="163" y="400" on="1"/>
        <pt x="147" y="391" on="0"/>
        <pt x="135" y="380" on="1"/>
        <pt x="125" y="380" on="1"/>
        <pt x="80" y="460" on="1"/>
        <pt x="101" y="474" on="0"/>
        <pt x="127" y="485" on="1"/>
        <pt x="150" y="494" on="0"/>
        <pt x="212" y="510" on="0"/>
        <pt x="250" y="510" on="1"/>
        <pt x="304" y="510" on="0"/>
        <pt x="388" y="482" on="0"/>
        <pt x="445" y="431" on="0"/>
        <pt x="475" y="361" on="0"/>
        <pt x="475" y="320" on="1"/>
        <pt x="475" y="0" on="1"/>
        <pt x="375" y="0" on="1"/>
        <pt x="365" y="60" on="1"/>
        <pt x="360" y="60" on="1"/>
        <pt x="345" y="40" on="0"/>
        <pt x="326" y="25" on="1"/>
        <pt x="309" y="11" on="0"/>
        <pt x="259" y="-10" on="0"/>
        <pt x="225" y="-10" on="1"/>
        <pt x="135" y="-10" on="0"/>
        <pt x="40" y="77" on="0"/>
        <pt x="40" y="145" on="1"/>
        <pt x="40" y="181" on="0"/>
        <pt x="65" y="240" on="0"/>
        <pt x="120" y="282" on="0"/>
        <pt x="205" y="305" on="0"/>
        <pt x="265" y="305" on="1"/>
        <pt x="335" y="305" on="1"/>
      </contour>
      <contour>
        <pt x="335" y="215" on="1"/>
        <pt x="265" y="215" on="1"/>
        <pt x="220" y="215" on="0"/>
        <pt x="180" y="179" on="0"/>
        <pt x="180" y="145" on="1"/>
        <pt x="180" y="119" on="0"/>
        <pt x="216" y="85" on="0"/>
        <pt x="250" y="85" on="1"/>
        <pt x="269" y="85" on="0"/>
        <pt x="300" y="104" on="0"/>
        <pt x="311" y="115" on="1"/>
        <pt x="324" y="128" on="0"/>
        <pt x="335" y="145" on="1"/>
      </contour>
    </TTGlyph>
    <TTGlyph name="aacute" xMin="40" yMin="-10" xMax="475" yMax="700">
      <component glyphName=".ttfautohint" x="40" y="0" flags="0x1000"/>
      <component glyphName="a" x="0" y="0" flags="0x1204"/>
      <component glyphName="acute" x="197" y="0" flags="0x1004"/>
    </TTGlyph>
    <TTGlyph name="abreve" xMin="40" yMin="-10" xMax="475" yMax="691">
      <component glyphName=".ttfautohint" x="40" y="0" flags="0x1000"/>
      <component glyphName="a" x="0" y="0" flags="0x1204"/>
      <component glyphName="breve" x="100" y="-9" flags="0x1004"/>
    </TTGlyph>
    <TTGlyph name="acircumflex" xMin="40" yMin="-10" xMax="475" yMax="694">
      <component glyphName=".ttfautohint" x="40" y="0" flags="0x1000"/>
      <component glyphName="a" x="0" y="0" flags="0x1204"/>
      <component glyphName="circumflex" x="100" y="0" flags="0x1004"/>
    </TTGlyph>
    <TTGlyph name="acute" xMin="10" yMin="550" xMax="190" yMax="700">
      <contour>
        <pt x="190" y="700" on="1"/>
        <pt x="90" y="550" on="1"/>
        <pt x="10" y="550" on="1"/>
        <pt x="55" y="700" on="1"/>
      </contour>
    </TTGlyph>
    <TTGlyph name="adieresis" xMin="40" yMin="-10" xMax="475" yMax="710">
      <component glyphName=".ttfautohint" x="40" y="0" flags="0x1000"/>
      <component glyphName="a" x="0" y="0" flags="0x1204"/>
      <component glyphName="dieresis" x="90" y="0" flags="0x1004"/>
    </TTGlyph>
    <TTGlyph name="ae" xMin="40" yMin="-10" xMax="775" yMax="510">
      <contour>
        <pt x="585" y="-10" on="1"/>
        <pt x="549" y="-10" on="0"/>
        <pt x="491" y="3" on="0"/>
        <pt x="445" y="24" on="0"/>
        <pt x="411" y="50" on="0"/>
        <pt x="400" y="62" on="1"/>
        <pt x="389" y="50" on="0"/>
        <pt x="357" y="24" on="0"/>
        <pt x="313" y="3" on="0"/>
        <pt x="259" y="-10" on="0"/>
        <pt x="225" y="-10" on="1"/>
        <pt x="135" y="-10" on="0"/>
        <pt x="40" y="77" on="0"/>
        <pt x="40" y="145" on="1"/>
        <pt x="40" y="181" on="0"/>
        <pt x="65" y="240" on="0"/>
        <pt x="120" y="282" on="0"/>
        <pt x="205" y="305" on="0"/>
        <pt x="265" y="305" on="1"/>
        <pt x="335" y="305" on="1"/>
        <pt x="335" y="320" on="1"/>
        <pt x="335" y="373" on="0"/>
        <pt x="289" y="420" on="0"/>
        <pt x="240" y="420" on="1"/>
        <pt x="215" y="420" on="0"/>
        <pt x="177" y="408" on="0"/>
        <pt x="163" y="400" on="1"/>
        <pt x="147" y="391" on="0"/>
        <pt x="135" y="380" on="1"/>
        <pt x="125" y="380" on="1"/>
        <pt x="80" y="460" on="1"/>
        <pt x="101" y="474" on="0"/>
        <pt x="127" y="485" on="1"/>
        <pt x="150" y="494" on="0"/>
        <pt x="212" y="510" on="0"/>
        <pt x="250" y="510" on="1"/>
        <pt x="314" y="510" on="0"/>
        <pt x="387" y="473" on="0"/>
        <pt x="410" y="450" on="1"/>
        <pt x="433" y="473" on="0"/>
        <pt x="502" y="510" on="0"/>
        <pt x="555" y="510" on="1"/>
        <pt x="656" y="510" on="0"/>
        <pt x="775" y="384" on="0"/>
        <pt x="775" y="260" on="1"/>
        <pt x="775" y="235" on="1"/>
        <pt x="745" y="205" on="1"/>
        <pt x="475" y="205" on="1"/>
        <pt x="475" y="80" on="0"/>
        <pt x="595" y="80" on="1"/>
        <pt x="619" y="80" on="0"/>
        <pt x="658" y="92" on="0"/>
        <pt x="672" y="100" on="1"/>
        <pt x="688" y="109" on="0"/>
        <pt x="700" y="120" on="1"/>
        <pt x="710" y="120" on="1"/>
        <pt x="755" y="40" on="1"/>
        <pt x="733" y="26" on="0"/>
        <pt x="707" y="15" on="1"/>
        <pt x="684" y="5" on="0"/>
        <pt x="623" y="-10" on="0"/>
      </contour>
      <contour>
        <pt x="335" y="215" on="1"/>
        <pt x="265" y="215" on="1"/>
        <pt x="220" y="215" on="0"/>
        <pt x="180" y="179" on="0"/>
        <pt x="180" y="145" on="1"/>
        <pt x="180" y="119" on="0"/>
        <pt x="216" y="85" on="0"/>
        <pt x="250" y="85" on="1"/>
        <pt x="269" y="85" on="0"/>
        <pt x="300" y="104" on="0"/>
        <pt x="311" y="115" on="1"/>
        <pt x="324" y="128" on="0"/>
        <pt x="335" y="145" on="1"/>
      </contour>
      <contour>
        <pt x="555" y="420" on="1"/>
        <pt x="525" y="420" on="0"/>
        <pt x="475" y="359" on="0"/>
        <pt x="475" y="295" on="1"/>
        <pt x="635" y="295" on="1"/>
        <pt x="635" y="359" on="0"/>
        <pt x="585" y="420" on="0"/>
      </contour>
    </TTGlyph>
    <TTGlyph name="afii10017" xMin="15" yMin="0" xMax="585" yMax="700">
      <contour>
        <pt x="400" y="160" on="1"/>
        <pt x="200" y="160" on="1"/>
        <pt x="155" y="0" on="1"/>
        <pt x="15" y="0" on="1"/>
        <pt x="220" y="700" on="1"/>
        <pt x="380" y="700" on="1"/>
        <pt x="585" y="0" on="1"/>
        <pt x="445" y="0" on="1"/>
      </contour>
      <contour>
        <pt x="225" y="250" on="1"/>
        <pt x="375" y="250" on="1"/>
        <pt x="315" y="460" on="1"/>
        <pt x="311" y="472" on="0"/>
        <pt x="307" y="498" on="0"/>
        <pt x="305" y="509" on="1"/>
        <pt x="303" y="522" on="0"/>
        <pt x="302" y="535" on="1"/>
        <pt x="298" y="535" on="1"/>
        <pt x="296" y="522" on="0"/>
        <pt x="294" y="509" on="1"/>
        <pt x="292" y="498" on="0"/>
        <pt x="288" y="471" on="0"/>
        <pt x="285" y="460" on="1"/>
      </contour>
    </TTGlyph>
    <TTGlyph name="afii10018" xMin="85" yMin="0" xMax="560" yMax="700">
      <contour>
        <pt x="290" y="430" on="1"/>
        <pt x="361" y="430" on="0"/>
        <pt x="463" y="398" on="0"/>
        <pt x="529" y="341" on="0"/>
        <pt x="560" y="262" on="0"/>
        <pt x="560" y="215" on="1"/>
        <pt x="560" y="164" on="0"/>
        <pt x="529" y="85" on="0"/>
        <pt x="463" y="29" on="0"/>
        <pt x="361" y="0" on="0"/>
        <pt x="290" y="0" on="1"/>
        <pt x="85" y="0" on="1"/>
        <pt x="85" y="700" on="1"/>
        <pt x="505" y="700" on="1"/>
        <pt x="505" y="610" on="1"/>
        <pt x="225" y="610" on="1"/>
        <pt x="225" y="430" on="1"/>
      </contour>
      <contour>
        <pt x="225" y="340" on="1"/>
        <pt x="225" y="90" on="1"/>
        <pt x="290" y="90" on="1"/>
        <pt x="358" y="90" on="0"/>
        <pt x="420" y="151" on="0"/>
        <pt x="420" y="215" on="1"/>
        <pt x="420" y="279" on="0"/>
        <pt x="358" y="340" on="0"/>
        <pt x="290" y="340" on="1"/>
      </contour>
    </TTGlyph>
    <TTGlyph name="afii10019" xMin="85" yMin="0" xMax="560" yMax="700">
      <contour>
        <pt x="410" y="370" on="1"/>
        <pt x="452" y="362" on="0"/>
        <pt x="485" y="341" on="1"/>
        <pt x="513" y="323" on="0"/>
        <pt x="560" y="253" on="0"/>
        <pt x="560" y="195" on="1"/>
        <pt x="560" y="150" on="0"/>
        <pt x="531" y="78" on="0"/>
        <pt x="467" y="27" on="0"/>
        <pt x="366" y="0" on="0"/>
        <pt x="295" y="0" on="1"/>
        <pt x="85" y="0" on="1"/>
        <pt x="85" y="700" on="1"/>
        <pt x="295" y="700" on="1"/>
        <pt x="357" y="700" on="0"/>
        <pt x="447" y="673" on="0"/>
        <pt x="506" y="625" on="0"/>
        <pt x="535" y="559" on="0"/>
        <pt x="535" y="520" on="1"/>
        <pt x="535" y="471" on="0"/>
        <pt x="495" y="412" on="0"/>
        <pt x="472" y="396" on="1"/>
        <pt x="445" y="378" on="0"/>
      </contour>
      <contour>
        <pt x="225" y="410" on="1"/>
        <pt x="295" y="410" on="1"/>
        <pt x="340" y="410" on="0"/>
        <pt x="395" y="465" on="0"/>
        <pt x="395" y="510" on="1"/>
        <pt x="395" y="555" on="0"/>
        <pt x="340" y="610" on="0"/>
        <pt x="295" y="610" on="1"/>
        <pt x="225" y="610" on="1"/>
      </contour>
      <contour>
        <pt x="225" y="320" on="1"/>
        <pt x="225" y="90" on="1"/>
        <pt x="295" y="90" on="1"/>
        <pt x="420" y="90" on="0"/>
        <pt x="420" y="205" on="1"/>
        <pt x="420" y="320" on="0"/>
        <pt x="295" y="320" on="1"/>
      </contour>
    </TTGlyph>
    <TTGlyph name="afii10020" xMin="85" yMin="0" xMax="505" yMax="700">
      <contour>
        <pt x="85" y="0" on="1"/>
        <pt x="85" y="700" on="1"/>
        <pt x="505" y="700" on="1"/>
        <pt x="505" y="610" on="1"/>
        <pt x="225" y="610" on="1"/>
        <pt x="225" y="0" on="1"/>
      </contour>
    </TTGlyph>
    <TTGlyph name="afii10021" xMin="5" yMin="-150" xMax="615" yMax="700">
      <contour>
        <pt x="550" y="700" on="1"/>
        <pt x="550" y="90" on="1"/>
        <pt x="615" y="90" on="1"/>
        <pt x="615" y="-150" on="1"/>
        <pt x="510" y="-150" on="1"/>
        <pt x="490" y="0" on="1"/>
        <pt x="135" y="0" on="1"/>
        <pt x="115" y="-150" on="1"/>
        <pt x="5" y="-150" on="1"/>
        <pt x="5" y="90" on="1"/>
        <pt x="55" y="90" on="1"/>
        <pt x="69" y="103" on="0"/>
        <pt x="80" y="124" on="1"/>
        <pt x="90" y="142" on="0"/>
        <pt x="108" y="198" on="0"/>
        <pt x="110" y="240" on="1"/>
        <pt x="135" y="700" on="1"/>
      </contour>
      <contour>
        <pt x="410" y="90" on="1"/>
        <pt x="410" y="610" on="1"/>
        <pt x="265" y="610" on="1"/>
        <pt x="245" y="240" on="1"/>
        <pt x="243" y="198" on="0"/>
        <pt x="225" y="142" on="0"/>
        <pt x="215" y="124" on="1"/>
        <pt x="204" y="103" on="0"/>
        <pt x="190" y="90" on="1"/>
      </contour>
    </TTGlyph>
    <TTGlyph name="afii10022" xMin="85" yMin="0" xMax="505" yMax="700">
      <contour>
        <pt x="85" y="0" on="1"/>
        <pt x="85" y="700" on="1"/>
        <pt x="505" y="700" on="1"/>
        <pt x="505" y="610" on="1"/>
        <pt x="225" y="610" on="1"/>
        <pt x="225" y="410" on="1"/>
        <pt x="445" y="410" on="1"/>
        <pt x="445" y="320" on="1"/>
        <pt x="225" y="320" on="1"/>
        <pt x="225" y="90" on="1"/>
        <pt x="505" y="90" on="1"/>
        <pt x="505" y="0" on="1"/>
      </contour>
    </TTGlyph>
    <TTGlyph name="afii10023" xMin="85" yMin="0" xMax="505" yMax="905">
      <contour>
        <pt x="85" y="0" on="1"/>
        <pt x="85" y="700" on="1"/>
        <pt x="505" y="700" on="1"/>
        <pt x="505" y="610" on="1"/>
        <pt x="225" y="610" on="1"/>
        <pt x="225" y="410" on="1"/>
        <pt x="445" y="410" on="1"/>
        <pt x="445" y="320" on="1"/>
        <pt x="225" y="320" on="1"/>
        <pt x="225" y="90" on="1"/>
        <pt x="505" y="90" on="1"/>
        <pt x="505" y="0" on="1"/>
      </contour>
      <contour>
        <pt x="200" y="905" on="1"/>
        <pt x="228" y="905" on="0"/>
        <pt x="270" y="863" on="0"/>
        <pt x="270" y="835" on="1"/>
        <pt x="270" y="807" on="0"/>
        <pt x="228" y="765" on="0"/>
        <pt x="200" y="765" on="1"/>
        <pt x="172" y="765" on="0"/>
        <pt x="130" y="807" on="0"/>
        <pt x="130" y="835" on="1"/>
        <pt x="130" y="863" on="0"/>
        <pt x="172" y="905" on="0"/>
      </contour>
      <contour>
        <pt x="395" y="905" on="1"/>
        <pt x="423" y="905" on="0"/>
        <pt x="465" y="863" on="0"/>
        <pt x="465" y="835" on="1"/>
        <pt x="465" y="807" on="0"/>
        <pt x="423" y="765" on="0"/>
        <pt x="395" y="765" on="1"/>
        <pt x="367" y="765" on="0"/>
        <pt x="325" y="807" on="0"/>
        <pt x="325" y="835" on="1"/>
        <pt x="325" y="863" on="0"/>
        <pt x="367" y="905" on="0"/>
      </contour>
    </TTGlyph>
    <TTGlyph name="afii10024" xMin="25" yMin="-10" xMax="875" yMax="710">
      <contour>
        <pt x="380" y="405" on="1"/>
        <pt x="380" y="700" on="1"/>
        <pt x="520" y="700" on="1"/>
        <pt x="520" y="405" on="1"/>
        <pt x="540" y="405" on="1"/>
        <pt x="578" y="405" on="0"/>
        <pt x="612" y="437" on="0"/>
        <pt x="620" y="475" on="1"/>
        <pt x="650" y="610" on="1"/>
        <pt x="659" y="652" on="0"/>
        <pt x="722" y="710" on="0"/>
        <pt x="775" y="710" on="1"/>
        <pt x="794" y="710" on="0"/>
        <pt x="825" y="705" on="0"/>
        <pt x="836" y="702" on="1"/>
        <pt x="849" y="698" on="0"/>
        <pt x="860" y="695" on="1"/>
        <pt x="850" y="615" on="1"/>
        <pt x="845" y="615" on="1"/>
        <pt x="843" y="616" on="0"/>
        <pt x="839" y="617" on="1"/>
        <pt x="836" y="618" on="0"/>
        <pt x="829" y="620" on="0"/>
        <pt x="825" y="620" on="1"/>
        <pt x="797" y="620" on="0"/>
        <pt x="790" y="585" on="1"/>
        <pt x="765" y="470" on="1"/>
        <pt x="757" y="435" on="0"/>
        <pt x="723" y="394" on="0"/>
        <pt x="705" y="383" on="1"/>
        <pt x="684" y="370" on="0"/>
        <pt x="660" y="365" on="1"/>
        <pt x="687" y="360" on="0"/>
        <pt x="710" y="346" on="1"/>
        <pt x="730" y="334" on="0"/>
        <pt x="767" y="290" on="0"/>
        <pt x="775" y="255" on="1"/>
        <pt x="805" y="115" on="1"/>
        <pt x="812" y="80" on="0"/>
        <pt x="841" y="80" on="1"/>
        <pt x="846" y="80" on="0"/>
        <pt x="854" y="82" on="1"/>
        <pt x="857" y="83" on="0"/>
        <pt x="860" y="85" on="1"/>
        <pt x="865" y="85" on="1"/>
        <pt x="875" y="5" on="1"/>
        <pt x="865" y="1" on="0"/>
        <pt x="853" y="-3" on="1"/>
        <pt x="842" y="-6" on="0"/>
        <pt x="810" y="-10" on="0"/>
        <pt x="790" y="-10" on="1"/>
        <pt x="737" y="-10" on="0"/>
        <pt x="674" y="48" on="0"/>
        <pt x="665" y="90" on="1"/>
        <pt x="630" y="250" on="1"/>
        <pt x="622" y="284" on="0"/>
        <pt x="589" y="315" on="0"/>
        <pt x="555" y="315" on="1"/>
        <pt x="520" y="315" on="1"/>
        <pt x="520" y="0" on="1"/>
        <pt x="380" y="0" on="1"/>
        <pt x="380" y="315" on="1"/>
        <pt x="345" y="315" on="1"/>
        <pt x="311" y="315" on="0"/>
        <pt x="278" y="284" on="0"/>
        <pt x="270" y="250" on="1"/>
        <pt x="235" y="90" on="1"/>
        <pt x="226" y="48" on="0"/>
        <pt x="163" y="-10" on="0"/>
        <pt x="110" y="-10" on="1"/>
        <pt x="89" y="-10" on="0"/>
        <pt x="58" y="-6" on="0"/>
        <pt x="47" y="-3" on="1"/>
        <pt x="35" y="1" on="0"/>
        <pt x="25" y="5" on="1"/>
        <pt x="35" y="85" on="1"/>
        <pt x="40" y="85" on="1"/>
        <pt x="42" y="83" on="0"/>
        <pt x="46" y="82" on="1"/>
        <pt x="52" y="80" on="0"/>
        <pt x="59" y="80" on="1"/>
        <pt x="88" y="80" on="0"/>
        <pt x="95" y="115" on="1"/>
        <pt x="125" y="255" on="1"/>
        <pt x="133" y="290" on="0"/>
        <pt x="170" y="334" on="0"/>
        <pt x="190" y="346" on="1"/>
        <pt x="213" y="360" on="0"/>
        <pt x="240" y="365" on="1"/>
        <pt x="216" y="370" on="0"/>
        <pt x="195" y="383" on="1"/>
        <pt x="177" y="394" on="0"/>
        <pt x="143" y="435" on="0"/>
        <pt x="135" y="470" on="1"/>
        <pt x="110" y="585" on="1"/>
        <pt x="103" y="620" on="0"/>
        <pt x="75" y="620" on="1"/>
        <pt x="71" y="620" on="0"/>
        <pt x="64" y="618" on="0"/>
        <pt x="61" y="617" on="1"/>
        <pt x="57" y="616" on="0"/>
        <pt x="55" y="615" on="1"/>
        <pt x="50" y="615" on="1"/>
        <pt x="40" y="695" on="1"/>
        <pt x="51" y="698" on="0"/>
        <pt x="64" y="702" on="1"/>
        <pt x="75" y="705" on="0"/>
        <pt x="106" y="710" on="0"/>
        <pt x="125" y="710" on="1"/>
        <pt x="178" y="710" on="0"/>
        <pt x="241" y="652" on="0"/>
        <pt x="250" y="610" on="1"/>
        <pt x="280" y="475" on="1"/>
        <pt x="288" y="437" on="0"/>
        <pt x="322" y="405" on="0"/>
        <pt x="360" y="405" on="1"/>
      </contour>
    </TTGlyph>
    <TTGlyph name="afii10025" xMin="15" yMin="-10" xMax="490" yMax="710">
      <contour>
        <pt x="225" y="710" on="1"/>
        <pt x="289" y="710" on="0"/>
        <pt x="383" y="682" on="0"/>
        <pt x="445" y="632" on="0"/>
        <pt x="475" y="564" on="0"/>
        <pt x="475" y="525" on="1"/>
        <pt x="475" y="474" on="0"/>
        <pt x="433" y="414" on="0"/>
        <pt x="407" y="397" on="1"/>
        <pt x="377" y="378" on="0"/>
        <pt x="340" y="370" on="1"/>
        <pt x="382" y="362" on="0"/>
        <pt x="415" y="340" on="1"/>
        <pt x="443" y="321" on="0"/>
        <pt x="490" y="250" on="0"/>
        <pt x="490" y="190" on="1"/>
        <pt x="490" y="145" on="0"/>
        <pt x="459" y="71" on="0"/>
        <pt x="393" y="19" on="0"/>
        <pt x="291" y="-10" on="0"/>
        <pt x="220" y="-10" on="1"/>
        <pt x="169" y="-10" on="0"/>
        <pt x="93" y="6" on="0"/>
        <pt x="67" y="17" on="1"/>
        <pt x="37" y="29" on="0"/>
        <pt x="15" y="45" on="1"/>
        <pt x="60" y="125" on="1"/>
        <pt x="70" y="125" on="1"/>
        <pt x="84" y="112" on="0"/>
        <pt x="104" y="102" on="1"/>
        <pt x="121" y="94" on="0"/>
        <pt x="174" y="80" on="0"/>
        <pt x="210" y="80" on="1"/>
        <pt x="285" y="80" on="0"/>
        <pt x="350" y="140" on="0"/>
        <pt x="350" y="200" on="1"/>
        <pt x="350" y="260" on="0"/>
        <pt x="288" y="320" on="0"/>
        <pt x="220" y="320" on="1"/>
        <pt x="125" y="320" on="1"/>
        <pt x="125" y="410" on="1"/>
        <pt x="220" y="410" on="1"/>
        <pt x="277" y="410" on="0"/>
        <pt x="335" y="466" on="0"/>
        <pt x="335" y="515" on="1"/>
        <pt x="335" y="564" on="0"/>
        <pt x="279" y="620" on="0"/>
        <pt x="215" y="620" on="1"/>
        <pt x="183" y="620" on="0"/>
        <pt x="135" y="605" on="0"/>
        <pt x="118" y="597" on="1"/>
        <pt x="99" y="587" on="0"/>
        <pt x="85" y="575" on="1"/>
        <pt x="75" y="575" on="1"/>
        <pt x="30" y="655" on="1"/>
        <pt x="52" y="670" on="0"/>
        <pt x="81" y="682" on="1"/>
        <pt x="106" y="693" on="0"/>
        <pt x="177" y="710" on="0"/>
      </contour>
    </TTGlyph>
    <TTGlyph name="afii10026" xMin="85" yMin="0" xMax="575" yMax="700">
      <contour>
        <pt x="435" y="395" on="1"/>
        <pt x="435" y="406" on="0"/>
        <pt x="436" y="429" on="0"/>
        <pt x="437" y="439" on="1"/>
        <pt x="438" y="450" on="0"/>
        <pt x="440" y="461" on="1"/>
        <pt x="436" y="461" on="1"/>
        <pt x="433" y="450" on="0"/>
        <pt x="429" y="439" on="1"/>
        <pt x="425" y="429" on="0"/>
        <pt x="415" y="406" on="0"/>
        <pt x="410" y="395" on="1"/>
        <pt x="220" y="0" on="1"/>
        <pt x="85" y="0" on="1"/>
        <pt x="85" y="700" on="1"/>
        <pt x="225" y="700" on="1"/>
        <pt x="225" y="305" on="1"/>
        <pt x="225" y="294" on="0"/>
        <pt x="223" y="271" on="0"/>
        <pt x="222" y="261" on="1"/>
        <pt x="221" y="250" on="0"/>
        <pt x="220" y="239" on="1"/>
        <pt x="224" y="239" on="1"/>
        <pt x="227" y="250" on="0"/>
        <pt x="231" y="261" on="1"/>
        <pt x="235" y="271" on="0"/>
        <pt x="244" y="294" on="0"/>
        <pt x="250" y="305" on="1"/>
        <pt x="440" y="700" on="1"/>
        <pt x="575" y="700" on="1"/>
        <pt x="575" y="0" on="1"/>
        <pt x="435" y="0" on="1"/>
      </contour>
    </TTGlyph>
    <TTGlyph name="afii10027" xMin="85" yMin="0" xMax="575" yMax="890">
      <contour>
        <pt x="330" y="820" on="1"/>
        <pt x="353" y="820" on="0"/>
        <pt x="380" y="852" on="0"/>
        <pt x="380" y="890" on="1"/>
        <pt x="490" y="890" on="1"/>
        <pt x="490" y="822" on="0"/>
        <pt x="413" y="750" on="0"/>
        <pt x="330" y="750" on="1"/>
        <pt x="247" y="750" on="0"/>
        <pt x="170" y="822" on="0"/>
        <pt x="170" y="890" on="1"/>
        <pt x="280" y="890" on="1"/>
        <pt x="280" y="852" on="0"/>
        <pt x="307" y="820" on="0"/>
      </contour>
      <contour>
        <pt x="435" y="395" on="1"/>
        <pt x="435" y="406" on="0"/>
        <pt x="436" y="429" on="0"/>
        <pt x="437" y="439" on="1"/>
        <pt x="438" y="450" on="0"/>
        <pt x="440" y="461" on="1"/>
        <pt x="436" y="461" on="1"/>
        <pt x="433" y="450" on="0"/>
        <pt x="429" y="439" on="1"/>
        <pt x="425" y="429" on="0"/>
        <pt x="415" y="406" on="0"/>
        <pt x="410" y="395" on="1"/>
        <pt x="220" y="0" on="1"/>
        <pt x="85" y="0" on="1"/>
        <pt x="85" y="700" on="1"/>
        <pt x="225" y="700" on="1"/>
        <pt x="225" y="305" on="1"/>
        <pt x="225" y="294" on="0"/>
        <pt x="223" y="271" on="0"/>
        <pt x="222" y="261" on="1"/>
        <pt x="221" y="250" on="0"/>
        <pt x="220" y="239" on="1"/>
        <pt x="224" y="239" on="1"/>
        <pt x="227" y="250" on="0"/>
        <pt x="231" y="261" on="1"/>
        <pt x="235" y="271" on="0"/>
        <pt x="244" y="294" on="0"/>
        <pt x="250" y="305" on="1"/>
        <pt x="440" y="700" on="1"/>
        <pt x="575" y="700" on="1"/>
        <pt x="575" y="0" on="1"/>
        <pt x="435" y="0" on="1"/>
      </contour>
    </TTGlyph>
    <TTGlyph name="afii10028" xMin="85" yMin="-10" xMax="590" yMax="710">
      <contour>
        <pt x="375" y="365" on="1"/>
        <pt x="402" y="360" on="0"/>
        <pt x="425" y="346" on="1"/>
        <pt x="445" y="334" on="0"/>
        <pt x="482" y="290" on="0"/>
        <pt x="490" y="255" on="1"/>
        <pt x="520" y="115" on="1"/>
        <pt x="527" y="80" on="0"/>
        <pt x="556" y="80" on="1"/>
        <pt x="561" y="80" on="0"/>
        <pt x="569" y="82" on="1"/>
        <pt x="572" y="83" on="0"/>
        <pt x="575" y="85" on="1"/>
        <pt x="580" y="85" on="1"/>
        <pt x="590" y="5" on="1"/>
        <pt x="580" y="1" on="0"/>
        <pt x="568" y="-3" on="1"/>
        <pt x="557" y="-6" on="0"/>
        <pt x="525" y="-10" on="0"/>
        <pt x="505" y="-10" on="1"/>
        <pt x="452" y="-10" on="0"/>
        <pt x="389" y="48" on="0"/>
        <pt x="380" y="90" on="1"/>
        <pt x="345" y="250" on="1"/>
        <pt x="337" y="284" on="0"/>
        <pt x="304" y="315" on="0"/>
        <pt x="270" y="315" on="1"/>
        <pt x="225" y="315" on="1"/>
        <pt x="225" y="0" on="1"/>
        <pt x="85" y="0" on="1"/>
        <pt x="85" y="700" on="1"/>
        <pt x="225" y="700" on="1"/>
        <pt x="225" y="405" on="1"/>
        <pt x="255" y="405" on="1"/>
        <pt x="293" y="405" on="0"/>
        <pt x="327" y="437" on="0"/>
        <pt x="335" y="475" on="1"/>
        <pt x="365" y="610" on="1"/>
        <pt x="374" y="652" on="0"/>
        <pt x="437" y="710" on="0"/>
        <pt x="490" y="710" on="1"/>
        <pt x="509" y="710" on="0"/>
        <pt x="540" y="705" on="0"/>
        <pt x="551" y="702" on="1"/>
        <pt x="564" y="698" on="0"/>
        <pt x="575" y="695" on="1"/>
        <pt x="565" y="615" on="1"/>
        <pt x="560" y="615" on="1"/>
        <pt x="558" y="616" on="0"/>
        <pt x="554" y="617" on="1"/>
        <pt x="551" y="618" on="0"/>
        <pt x="544" y="620" on="0"/>
        <pt x="540" y="620" on="1"/>
        <pt x="512" y="620" on="0"/>
        <pt x="505" y="585" on="1"/>
        <pt x="480" y="470" on="1"/>
        <pt x="472" y="435" on="0"/>
        <pt x="438" y="394" on="0"/>
        <pt x="420" y="383" on="1"/>
        <pt x="399" y="370" on="0"/>
      </contour>
    </TTGlyph>
    <TTGlyph name="afii10029" xMin="5" yMin="-10" xMax="550" yMax="700">
      <contour>
        <pt x="50" y="80" on="1"/>
        <pt x="69" y="80" on="0"/>
        <pt x="93" y="115" on="0"/>
        <pt x="95" y="160" on="1"/>
        <pt x="125" y="700" on="1"/>
        <pt x="550" y="700" on="1"/>
        <pt x="550" y="0" on="1"/>
        <pt x="410" y="0" on="1"/>
        <pt x="410" y="610" on="1"/>
        <pt x="260" y="610" on="1"/>
        <pt x="235" y="160" on="1"/>
        <pt x="230" y="77" on="0"/>
        <pt x="150" y="-10" on="0"/>
        <pt x="75" y="-10" on="1"/>
        <pt x="61" y="-10" on="0"/>
        <pt x="37" y="-6" on="0"/>
        <pt x="27" y="-3" on="1"/>
        <pt x="16" y="1" on="0"/>
        <pt x="5" y="5" on="1"/>
        <pt x="15" y="85" on="1"/>
        <pt x="25" y="85" on="1"/>
        <pt x="30" y="83" on="0"/>
        <pt x="34" y="82" on="1"/>
        <pt x="44" y="80" on="0"/>
      </contour>
    </TTGlyph>
    <TTGlyph name="afii10030" xMin="85" yMin="0" xMax="785" yMax="700">
      <contour>
        <pt x="375" y="115" on="1"/>
        <pt x="250" y="365" on="1"/>
        <pt x="244" y="376" on="0"/>
        <pt x="235" y="399" on="0"/>
        <pt x="231" y="409" on="1"/>
        <pt x="227" y="420" on="0"/>
        <pt x="224" y="431" on="1"/>
        <pt x="220" y="431" on="1"/>
        <pt x="221" y="420" on="0"/>
        <pt x="222" y="409" on="1"/>
        <pt x="223" y="399" on="0"/>
        <pt x="225" y="376" on="0"/>
        <pt x="225" y="365" on="1"/>
        <pt x="225" y="0" on="1"/>
        <pt x="85" y="0" on="1"/>
        <pt x="85" y="700" on="1"/>
        <pt x="220" y="700" on="1"/>
        <pt x="415" y="305" on="1"/>
        <pt x="423" y="289" on="0"/>
        <pt x="428" y="272" on="1"/>
        <pt x="431" y="263" on="0"/>
        <pt x="433" y="255" on="1"/>
        <pt x="437" y="255" on="1"/>
        <pt x="439" y="263" on="0"/>
        <pt x="442" y="272" on="1"/>
        <pt x="447" y="289" on="0"/>
        <pt x="455" y="305" on="1"/>
        <pt x="650" y="700" on="1"/>
        <pt x="785" y="700" on="1"/>
        <pt x="785" y="0" on="1"/>
        <pt x="645" y="0" on="1"/>
        <pt x="645" y="365" on="1"/>
        <pt x="645" y="376" on="0"/>
        <pt x="646" y="399" on="0"/>
        <pt x="647" y="409" on="1"/>
        <pt x="648" y="420" on="0"/>
        <pt x="650" y="431" on="1"/>
        <pt x="646" y="431" on="1"/>
        <pt x="643" y="420" on="0"/>
        <pt x="639" y="409" on="1"/>
        <pt x="635" y="399" on="0"/>
        <pt x="625" y="376" on="0"/>
        <pt x="620" y="365" on="1"/>
        <pt x="495" y="115" on="1"/>
      </contour>
    </TTGlyph>
    <TTGlyph name="afii10031" xMin="85" yMin="0" xMax="575" yMax="700">
      <contour>
        <pt x="575" y="700" on="1"/>
        <pt x="575" y="0" on="1"/>
        <pt x="435" y="0" on="1"/>
        <pt x="435" y="310" on="1"/>
        <pt x="225" y="310" on="1"/>
        <pt x="225" y="0" on="1"/>
        <pt x="85" y="0" on="1"/>
        <pt x="85" y="700" on="1"/>
        <pt x="225" y="700" on="1"/>
        <pt x="225" y="400" on="1"/>
        <pt x="435" y="400" on="1"/>
        <pt x="435" y="700" on="1"/>
      </contour>
    </TTGlyph>
    <TTGlyph name="afii10032" xMin="50" yMin="-10" xMax="580" yMax="710">
      <contour>
        <pt x="580" y="350" on="1"/>
        <pt x="580" y="254" on="0"/>
        <pt x="542" y="118" on="0"/>
        <pt x="473" y="31" on="0"/>
        <pt x="375" y="-10" on="0"/>
        <pt x="315" y="-10" on="1"/>
        <pt x="255" y="-10" on="0"/>
        <pt x="157" y="31" on="0"/>
        <pt x="88" y="118" on="0"/>
        <pt x="50" y="254" on="0"/>
        <pt x="50" y="350" on="1"/>
        <pt x="50" y="446" on="0"/>
        <pt x="88" y="582" on="0"/>
        <pt x="157" y="669" on="0"/>
        <pt x="255" y="710" on="0"/>
        <pt x="315" y="710" on="1"/>
        <pt x="375" y="710" on="0"/>
        <pt x="473" y="669" on="0"/>
        <pt x="542" y="582" on="0"/>
        <pt x="580" y="446" on="0"/>
      </contour>
      <contour>
        <pt x="440" y="350" on="1"/>
        <pt x="440" y="429" on="0"/>
        <pt x="419" y="533" on="0"/>
        <pt x="385" y="595" on="0"/>
        <pt x="339" y="620" on="0"/>
        <pt x="315" y="620" on="1"/>
        <pt x="291" y="620" on="0"/>
        <pt x="245" y="595" on="0"/>
        <pt x="211" y="533" on="0"/>
        <pt x="190" y="429" on="0"/>
        <pt x="190" y="350" on="1"/>
        <pt x="190" y="271" on="0"/>
        <pt x="211" y="167" on="0"/>
        <pt x="245" y="105" on="0"/>
        <pt x="291" y="80" on="0"/>
        <pt x="315" y="80" on="1"/>
        <pt x="339" y="80" on="0"/>
        <pt x="385" y="105" on="0"/>
        <pt x="419" y="167" on="0"/>
        <pt x="440" y="271" on="0"/>
      </contour>
    </TTGlyph>
    <TTGlyph name="afii10033" xMin="85" yMin="0" xMax="575" yMax="700">
      <contour>
        <pt x="575" y="700" on="1"/>
        <pt x="575" y="0" on="1"/>
        <pt x="435" y="0" on="1"/>
        <pt x="435" y="610" on="1"/>
        <pt x="225" y="610" on="1"/>
        <pt x="225" y="0" on="1"/>
        <pt x="85" y="0" on="1"/>
        <pt x="85" y="700" on="1"/>
      </contour>
    </TTGlyph>
    <TTGlyph name="afii10034" xMin="85" yMin="0" xMax="555" yMax="700">
      <contour>
        <pt x="285" y="320" on="1"/>
        <pt x="353" y="320" on="0"/>
        <pt x="415" y="386" on="0"/>
        <pt x="415" y="465" on="1"/>
        <pt x="415" y="544" on="0"/>
        <pt x="353" y="610" on="0"/>
        <pt x="285" y="610" on="1"/>
        <pt x="225" y="610" on="1"/>
        <pt x="225" y="320" on="1"/>
      </contour>
      <contour>
        <pt x="225" y="230" on="1"/>
        <pt x="225" y="0" on="1"/>
        <pt x="85" y="0" on="1"/>
        <pt x="85" y="700" on="1"/>
        <pt x="285" y="700" on="1"/>
        <pt x="428" y="700" on="0"/>
        <pt x="555" y="582" on="0"/>
        <pt x="555" y="465" on="1"/>
        <pt x="555" y="348" on="0"/>
        <pt x="428" y="230" on="0"/>
        <pt x="285" y="230" on="1"/>
      </contour>
    </TTGlyph>
    <TTGlyph name="afii10035" xMin="50" yMin="-10" xMax="515" yMax="710">
      <contour>
        <pt x="50" y="350" on="1"/>
        <pt x="50" y="446" on="0"/>
        <pt x="88" y="582" on="0"/>
        <pt x="158" y="669" on="0"/>
        <pt x="258" y="710" on="0"/>
        <pt x="320" y="710" on="1"/>
        <pt x="363" y="710" on="0"/>
        <pt x="432" y="693" on="0"/>
        <pt x="456" y="682" on="1"/>
        <pt x="484" y="670" on="0"/>
        <pt x="505" y="655" on="1"/>
        <pt x="460" y="575" on="1"/>
        <pt x="450" y="575" on="1"/>
        <pt x="436" y="587" on="0"/>
        <pt x="418" y="597" on="1"/>
        <pt x="402" y="605" on="0"/>
        <pt x="358" y="620" on="0"/>
        <pt x="330" y="620" on="1"/>
        <pt x="300" y="620" on="0"/>
        <pt x="249" y="595" on="0"/>
        <pt x="211" y="533" on="0"/>
        <pt x="190" y="429" on="0"/>
        <pt x="190" y="350" on="1"/>
        <pt x="190" y="271" on="0"/>
        <pt x="212" y="167" on="0"/>
        <pt x="251" y="105" on="0"/>
        <pt x="306" y="80" on="0"/>
        <pt x="340" y="80" on="1"/>
        <pt x="368" y="80" on="0"/>
        <pt x="412" y="94" on="0"/>
        <pt x="428" y="102" on="1"/>
        <pt x="446" y="112" on="0"/>
        <pt x="460" y="125" on="1"/>
        <pt x="470" y="125" on="1"/>
        <pt x="515" y="45" on="1"/>
        <pt x="494" y="29" on="0"/>
        <pt x="466" y="17" on="1"/>
        <pt x="442" y="6" on="0"/>
        <pt x="373" y="-10" on="0"/>
        <pt x="330" y="-10" on="1"/>
        <pt x="264" y="-10" on="0"/>
        <pt x="160" y="31" on="0"/>
        <pt x="88" y="118" on="0"/>
        <pt x="50" y="254" on="0"/>
      </contour>
    </TTGlyph>
    <TTGlyph name="afii10036" xMin="10" yMin="0" xMax="500" yMax="700">
      <contour>
        <pt x="185" y="0" on="1"/>
        <pt x="185" y="610" on="1"/>
        <pt x="10" y="610" on="1"/>
        <pt x="10" y="700" on="1"/>
        <pt x="500" y="700" on="1"/>
        <pt x="500" y="610" on="1"/>
        <pt x="325" y="610" on="1"/>
        <pt x="325" y="0" on="1"/>
      </contour>
    </TTGlyph>
    <TTGlyph name="afii10037" xMin="10" yMin="-15" xMax="565" yMax="700">
      <contour>
        <pt x="420" y="700" on="1"/>
        <pt x="565" y="700" on="1"/>
        <pt x="385" y="135" on="1"/>
        <pt x="375" y="103" on="0"/>
        <pt x="341" y="48" on="0"/>
        <pt x="293" y="8" on="0"/>
        <pt x="229" y="-15" on="0"/>
        <pt x="190" y="-15" on="1"/>
        <pt x="165" y="-15" on="0"/>
        <pt x="124" y="-6" on="0"/>
        <pt x="108" y="0" on="1"/>
        <pt x="90" y="6" on="0"/>
        <pt x="75" y="15" on="1"/>
        <pt x="110" y="100" on="1"/>
        <pt x="120" y="100" on="1"/>
        <pt x="127" y="92" on="0"/>
        <pt x="137" y="87" on="1"/>
        <pt x="145" y="82" on="0"/>
        <pt x="166" y="75" on="0"/>
        <pt x="180" y="75" on="1"/>
        <pt x="206" y="75" on="0"/>
        <pt x="242" y="109" on="0"/>
        <pt x="250" y="135" on="1"/>
        <pt x="265" y="185" on="1"/>
        <pt x="224" y="185" on="1"/>
        <pt x="10" y="700" on="1"/>
        <pt x="155" y="700" on="1"/>
        <pt x="285" y="365" on="1"/>
        <pt x="290" y="351" on="0"/>
        <pt x="297" y="325" on="0"/>
        <pt x="299" y="314" on="1"/>
        <pt x="302" y="302" on="0"/>
        <pt x="303" y="290" on="1"/>
        <pt x="307" y="290" on="1"/>
        <pt x="307" y="302" on="0"/>
        <pt x="309" y="314" on="1"/>
        <pt x="311" y="325" on="0"/>
        <pt x="315" y="351" on="0"/>
        <pt x="320" y="365" on="1"/>
      </contour>
    </TTGlyph>
    <TTGlyph name="afii10038" xMin="35" yMin="-30" xMax="755" yMax="730">
      <contour>
        <pt x="465" y="130" on="1"/>
        <pt x="499" y="134" on="0"/>
        <pt x="554" y="161" on="0"/>
        <pt x="593" y="214" on="0"/>
        <pt x="615" y="294" on="0"/>
        <pt x="615" y="350" on="1"/>
        <pt x="615" y="406" on="0"/>
        <pt x="593" y="486" on="0"/>
        <pt x="554" y="539" on="0"/>
        <pt x="499" y="566" on="0"/>
        <pt x="465" y="570" on="1"/>
      </contour>
      <contour>
        <pt x="325" y="570" on="1"/>
        <pt x="291" y="566" on="0"/>
        <pt x="236" y="539" on="0"/>
        <pt x="197" y="486" on="0"/>
        <pt x="175" y="406" on="0"/>
        <pt x="175" y="350" on="1"/>
        <pt x="175" y="294" on="0"/>
        <pt x="197" y="214" on="0"/>
        <pt x="236" y="161" on="0"/>
        <pt x="291" y="134" on="0"/>
        <pt x="325" y="130" on="1"/>
      </contour>
      <contour>
        <pt x="325" y="730" on="1"/>
        <pt x="465" y="730" on="1"/>
        <pt x="465" y="660" on="1"/>
        <pt x="532" y="656" on="0"/>
        <pt x="640" y="612" on="0"/>
        <pt x="715" y="533" on="0"/>
        <pt x="755" y="421" on="0"/>
        <pt x="755" y="350" on="1"/>
        <pt x="755" y="279" on="0"/>
        <pt x="715" y="167" on="0"/>
        <pt x="640" y="88" on="0"/>
        <pt x="532" y="44" on="0"/>
        <pt x="465" y="40" on="1"/>
        <pt x="465" y="-30" on="1"/>
        <pt x="325" y="-30" on="1"/>
        <pt x="325" y="40" on="1"/>
        <pt x="257" y="44" on="0"/>
        <pt x="150" y="88" on="0"/>
        <pt x="75" y="167" on="0"/>
        <pt x="35" y="279" on="0"/>
        <pt x="35" y="350" on="1"/>
        <pt x="35" y="421" on="0"/>
        <pt x="75" y="533" on="0"/>
        <pt x="150" y="612" on="0"/>
        <pt x="257" y="656" on="0"/>
        <pt x="325" y="660" on="1"/>
      </contour>
    </TTGlyph>
    <TTGlyph name="afii10039" xMin="10" yMin="0" xMax="550" yMax="700">
      <contour>
        <pt x="395" y="700" on="1"/>
        <pt x="545" y="700" on="1"/>
        <pt x="375" y="355" on="1"/>
        <pt x="550" y="0" on="1"/>
        <pt x="400" y="0" on="1"/>
        <pt x="295" y="225" on="1"/>
        <pt x="291" y="233" on="0"/>
        <pt x="287" y="248" on="0"/>
        <pt x="285" y="255" on="1"/>
        <pt x="283" y="263" on="0"/>
        <pt x="282" y="270" on="1"/>
        <pt x="278" y="270" on="1"/>
        <pt x="277" y="263" on="0"/>
        <pt x="275" y="255" on="1"/>
        <pt x="273" y="248" on="0"/>
        <pt x="268" y="233" on="0"/>
        <pt x="265" y="225" on="1"/>
        <pt x="160" y="0" on="1"/>
        <pt x="10" y="0" on="1"/>
        <pt x="185" y="355" on="1"/>
        <pt x="15" y="700" on="1"/>
        <pt x="165" y="700" on="1"/>
        <pt x="265" y="485" on="1"/>
        <pt x="268" y="477" on="0"/>
        <pt x="273" y="462" on="0"/>
        <pt x="275" y="455" on="1"/>
        <pt x="277" y="447" on="0"/>
        <pt x="278" y="440" on="1"/>
        <pt x="282" y="440" on="1"/>
        <pt x="283" y="447" on="0"/>
        <pt x="285" y="455" on="1"/>
        <pt x="287" y="462" on="0"/>
        <pt x="291" y="477" on="0"/>
        <pt x="295" y="485" on="1"/>
      </contour>
    </TTGlyph>
    <TTGlyph name="afii10040" xMin="85" yMin="-150" xMax="630" yMax="700">
      <contour>
        <pt x="85" y="0" on="1"/>
        <pt x="85" y="700" on="1"/>
        <pt x="225" y="700" on="1"/>
        <pt x="225" y="90" on="1"/>
        <pt x="425" y="90" on="1"/>
        <pt x="425" y="700" on="1"/>
        <pt x="565" y="700" on="1"/>
        <pt x="565" y="90" on="1"/>
        <pt x="630" y="90" on="1"/>
        <pt x="630" y="-150" on="1"/>
        <pt x="525" y="-150" on="1"/>
        <pt x="505" y="0" on="1"/>
      </contour>
    </TTGlyph>
    <TTGlyph name="afii10041" xMin="55" yMin="0" xMax="545" yMax="700">
      <contour>
        <pt x="405" y="700" on="1"/>
        <pt x="545" y="700" on="1"/>
        <pt x="545" y="0" on="1"/>
        <pt x="405" y="0" on="1"/>
        <pt x="405" y="255" on="1"/>
        <pt x="389" y="251" on="0"/>
        <pt x="371" y="247" on="1"/>
        <pt x="355" y="244" on="0"/>
        <pt x="311" y="240" on="0"/>
        <pt x="285" y="240" on="1"/>
        <pt x="172" y="240" on="0"/>
        <pt x="55" y="351" on="0"/>
        <pt x="55" y="445" on="1"/>
        <pt x="55" y="700" on="1"/>
        <pt x="195" y="700" on="1"/>
        <pt x="195" y="445" on="1"/>
        <pt x="195" y="330" on="0"/>
        <pt x="310" y="330" on="1"/>
        <pt x="330" y="330" on="0"/>
        <pt x="365" y="334" on="0"/>
        <pt x="378" y="337" on="1"/>
        <pt x="393" y="341" on="0"/>
        <pt x="405" y="345" on="1"/>
      </contour>
    </TTGlyph>
    <TTGlyph name="afii10042" xMin="85" yMin="0" xMax="865" yMax="700">
      <contour>
        <pt x="865" y="0" on="1"/>
        <pt x="85" y="0" on="1"/>
        <pt x="85" y="700" on="1"/>
        <pt x="225" y="700" on="1"/>
        <pt x="225" y="90" on="1"/>
        <pt x="405" y="90" on="1"/>
        <pt x="405" y="700" on="1"/>
        <pt x="545" y="700" on="1"/>
        <pt x="545" y="90" on="1"/>
        <pt x="725" y="90" on="1"/>
        <pt x="725" y="700" on="1"/>
        <pt x="865" y="700" on="1"/>
      </contour>
    </TTGlyph>
    <TTGlyph name="afii10043" xMin="85" yMin="-150" xMax="930" yMax="700">
      <contour>
        <pt x="85" y="0" on="1"/>
        <pt x="85" y="700" on="1"/>
        <pt x="225" y="700" on="1"/>
        <pt x="225" y="90" on="1"/>
        <pt x="405" y="90" on="1"/>
        <pt x="405" y="700" on="1"/>
        <pt x="545" y="700" on="1"/>
        <pt x="545" y="90" on="1"/>
        <pt x="725" y="90" on="1"/>
        <pt x="725" y="700" on="1"/>
        <pt x="865" y="700" on="1"/>
        <pt x="865" y="90" on="1"/>
        <pt x="930" y="90" on="1"/>
        <pt x="930" y="-150" on="1"/>
        <pt x="825" y="-150" on="1"/>
        <pt x="805" y="0" on="1"/>
      </contour>
    </TTGlyph>
    <TTGlyph name="afii10044" xMin="10" yMin="0" xMax="615" yMax="700">
      <contour>
        <pt x="345" y="450" on="1"/>
        <pt x="487" y="450" on="0"/>
        <pt x="615" y="334" on="0"/>
        <pt x="615" y="225" on="1"/>
        <pt x="615" y="125" on="0"/>
        <pt x="509" y="11" on="0"/>
        <pt x="392" y="2" on="1"/>
        <pt x="384" y="1" on="0"/>
        <pt x="367" y="0" on="0"/>
        <pt x="359" y="0" on="1"/>
        <pt x="350" y="0" on="1"/>
        <pt x="140" y="0" on="1"/>
        <pt x="140" y="610" on="1"/>
        <pt x="10" y="610" on="1"/>
        <pt x="10" y="700" on="1"/>
        <pt x="280" y="700" on="1"/>
        <pt x="280" y="450" on="1"/>
      </contour>
      <contour>
        <pt x="280" y="360" on="1"/>
        <pt x="280" y="90" on="1"/>
        <pt x="345" y="90" on="1"/>
        <pt x="413" y="90" on="0"/>
        <pt x="475" y="153" on="0"/>
        <pt x="475" y="225" on="1"/>
        <pt x="475" y="297" on="0"/>
        <pt x="413" y="360" on="0"/>
        <pt x="345" y="360" on="1"/>
      </contour>
    </TTGlyph>
    <TTGlyph name="afii10045" xMin="85" yMin="0" xMax="770" yMax="700">
      <contour>
        <pt x="630" y="700" on="1"/>
        <pt x="770" y="700" on="1"/>
        <pt x="770" y="0" on="1"/>
        <pt x="630" y="0" on="1"/>
      </contour>
      <contour>
        <pt x="225" y="360" on="1"/>
        <pt x="225" y="90" on="1"/>
        <pt x="280" y="90" on="1"/>
        <pt x="348" y="90" on="0"/>
        <pt x="410" y="153" on="0"/>
        <pt x="410" y="225" on="1"/>
        <pt x="410" y="297" on="0"/>
        <pt x="348" y="360" on="0"/>
        <pt x="280" y="360" on="1"/>
      </contour>
      <contour>
        <pt x="280" y="450" on="1"/>
        <pt x="422" y="450" on="0"/>
        <pt x="550" y="334" on="0"/>
        <pt x="550" y="225" on="1"/>
        <pt x="550" y="116" on="0"/>
        <pt x="422" y="0" on="0"/>
        <pt x="280" y="0" on="1"/>
        <pt x="85" y="0" on="1"/>
        <pt x="85" y="700" on="1"/>
        <pt x="225" y="700" on="1"/>
        <pt x="225" y="450" on="1"/>
      </contour>
    </TTGlyph>
    <TTGlyph name="afii10046" xMin="85" yMin="0" xMax="560" yMax="700">
      <contour>
        <pt x="225" y="360" on="1"/>
        <pt x="225" y="90" on="1"/>
        <pt x="290" y="90" on="1"/>
        <pt x="358" y="90" on="0"/>
        <pt x="420" y="153" on="0"/>
        <pt x="420" y="225" on="1"/>
        <pt x="420" y="297" on="0"/>
        <pt x="358" y="360" on="0"/>
        <pt x="290" y="360" on="1"/>
      </contour>
      <contour>
        <pt x="290" y="450" on="1"/>
        <pt x="432" y="450" on="0"/>
        <pt x="560" y="334" on="0"/>
        <pt x="560" y="225" on="1"/>
        <pt x="560" y="116" on="0"/>
        <pt x="432" y="0" on="0"/>
        <pt x="290" y="0" on="1"/>
        <pt x="85" y="0" on="1"/>
        <pt x="85" y="700" on="1"/>
        <pt x="225" y="700" on="1"/>
        <pt x="225" y="450" on="1"/>
      </contour>
    </TTGlyph>
    <TTGlyph name="afii10047" xMin="20" yMin="-10" xMax="485" yMax="710">
      <contour>
        <pt x="120" y="400" on="1"/>
        <pt x="345" y="400" on="1"/>
        <pt x="341" y="464" on="0"/>
        <pt x="318" y="548" on="0"/>
        <pt x="281" y="599" on="0"/>
        <pt x="233" y="620" on="0"/>
        <pt x="205" y="620" on="1"/>
        <pt x="176" y="620" on="0"/>
        <pt x="133" y="605" on="0"/>
        <pt x="117" y="597" on="1"/>
        <pt x="99" y="587" on="0"/>
        <pt x="85" y="575" on="1"/>
        <pt x="75" y="575" on="1"/>
        <pt x="30" y="655" on="1"/>
        <pt x="51" y="670" on="0"/>
        <pt x="79" y="682" on="1"/>
        <pt x="103" y="693" on="0"/>
        <pt x="171" y="710" on="0"/>
        <pt x="215" y="710" on="1"/>
        <pt x="277" y="710" on="0"/>
        <pt x="377" y="669" on="0"/>
        <pt x="447" y="582" on="0"/>
        <pt x="485" y="446" on="0"/>
        <pt x="485" y="350" on="1"/>
        <pt x="485" y="254" on="0"/>
        <pt x="447" y="118" on="0"/>
        <pt x="375" y="31" on="0"/>
        <pt x="271" y="-10" on="0"/>
        <pt x="205" y="-10" on="1"/>
        <pt x="161" y="-10" on="0"/>
        <pt x="93" y="6" on="0"/>
        <pt x="69" y="17" on="1"/>
        <pt x="41" y="29" on="0"/>
        <pt x="20" y="45" on="1"/>
        <pt x="65" y="125" on="1"/>
        <pt x="75" y="125" on="1"/>
        <pt x="89" y="112" on="0"/>
        <pt x="107" y="102" on="1"/>
        <pt x="123" y="94" on="0"/>
        <pt x="166" y="80" on="0"/>
        <pt x="195" y="80" on="1"/>
        <pt x="227" y="80" on="0"/>
        <pt x="279" y="101" on="0"/>
        <pt x="317" y="154" on="0"/>
        <pt x="341" y="242" on="0"/>
        <pt x="345" y="310" on="1"/>
        <pt x="120" y="310" on="1"/>
      </contour>
    </TTGlyph>
    <TTGlyph name="afii10048" xMin="85" yMin="-10" xMax="810" yMax="710">
      <contour>
        <pt x="555" y="80" on="1"/>
        <pt x="576" y="80" on="0"/>
        <pt x="617" y="105" on="0"/>
        <pt x="650" y="167" on="0"/>
        <pt x="670" y="271" on="0"/>
        <pt x="670" y="350" on="1"/>
        <pt x="670" y="429" on="0"/>
        <pt x="650" y="533" on="0"/>
        <pt x="617" y="595" on="0"/>
        <pt x="576" y="620" on="0"/>
        <pt x="555" y="620" on="1"/>
        <pt x="534" y="620" on="0"/>
        <pt x="493" y="595" on="0"/>
        <pt x="460" y="533" on="0"/>
        <pt x="440" y="429" on="0"/>
        <pt x="440" y="350" on="1"/>
        <pt x="440" y="271" on="0"/>
        <pt x="460" y="167" on="0"/>
        <pt x="493" y="105" on="0"/>
        <pt x="534" y="80" on="0"/>
      </contour>
      <contour>
        <pt x="810" y="350" on="1"/>
        <pt x="810" y="254" on="0"/>
        <pt x="772" y="118" on="0"/>
        <pt x="705" y="31" on="0"/>
        <pt x="611" y="-10" on="0"/>
        <pt x="555" y="-10" on="1"/>
        <pt x="501" y="-10" on="0"/>
        <pt x="410" y="28" on="0"/>
        <pt x="344" y="107" on="0"/>
        <pt x="304" y="227" on="0"/>
        <pt x="300" y="310" on="1"/>
        <pt x="225" y="310" on="1"/>
        <pt x="225" y="0" on="1"/>
        <pt x="85" y="0" on="1"/>
        <pt x="85" y="700" on="1"/>
        <pt x="225" y="700" on="1"/>
        <pt x="225" y="400" on="1"/>
        <pt x="300" y="400" on="1"/>
        <pt x="308" y="558" on="0"/>
        <pt x="446" y="710" on="0"/>
        <pt x="555" y="710" on="1"/>
        <pt x="611" y="710" on="0"/>
        <pt x="705" y="669" on="0"/>
        <pt x="772" y="582" on="0"/>
        <pt x="810" y="446" on="0"/>
      </contour>
    </TTGlyph>
    <TTGlyph name="afii10049" xMin="25" yMin="-10" xMax="525" yMax="700">
      <contour>
        <pt x="340" y="260" on="1"/>
        <pt x="307" y="260" on="0"/>
        <pt x="274" y="229" on="0"/>
        <pt x="265" y="195" on="1"/>
        <pt x="236" y="90" on="1"/>
        <pt x="225" y="48" on="0"/>
        <pt x="160" y="-10" on="0"/>
        <pt x="115" y="-10" on="1"/>
        <pt x="92" y="-10" on="0"/>
        <pt x="58" y="-6" on="0"/>
        <pt x="47" y="-3" on="1"/>
        <pt x="34" y="1" on="0"/>
        <pt x="25" y="5" on="1"/>
        <pt x="35" y="85" on="1"/>
        <pt x="40" y="85" on="1"/>
        <pt x="42" y="83" on="0"/>
        <pt x="46" y="82" on="1"/>
        <pt x="52" y="80" on="0"/>
        <pt x="59" y="80" on="1"/>
        <pt x="75" y="80" on="0"/>
        <pt x="90" y="96" on="0"/>
        <pt x="95" y="115" on="1"/>
        <pt x="120" y="200" on="1"/>
        <pt x="129" y="230" on="0"/>
        <pt x="159" y="266" on="0"/>
        <pt x="174" y="277" on="1"/>
        <pt x="191" y="289" on="0"/>
        <pt x="210" y="295" on="1"/>
        <pt x="167" y="302" on="0"/>
        <pt x="134" y="324" on="1"/>
        <pt x="120" y="333" on="0"/>
        <pt x="93" y="360" on="0"/>
        <pt x="72" y="398" on="0"/>
        <pt x="59" y="447" on="0"/>
        <pt x="59" y="479" on="1"/>
        <pt x="59" y="532" on="0"/>
        <pt x="90" y="614" on="0"/>
        <pt x="156" y="671" on="0"/>
        <pt x="258" y="700" on="0"/>
        <pt x="329" y="700" on="1"/>
        <pt x="525" y="700" on="1"/>
        <pt x="525" y="0" on="1"/>
        <pt x="385" y="0" on="1"/>
        <pt x="385" y="260" on="1"/>
      </contour>
      <contour>
        <pt x="385" y="350" on="1"/>
        <pt x="385" y="610" on="1"/>
        <pt x="329" y="610" on="1"/>
        <pt x="261" y="610" on="0"/>
        <pt x="199" y="548" on="0"/>
        <pt x="199" y="480" on="1"/>
        <pt x="199" y="412" on="0"/>
        <pt x="261" y="350" on="0"/>
        <pt x="329" y="350" on="1"/>
      </contour>
    </TTGlyph>
    <TTGlyph name="afii10050" xMin="85" yMin="0" xMax="505" yMax="810">
      <contour>
        <pt x="225" y="610" on="1"/>
        <pt x="225" y="0" on="1"/>
        <pt x="85" y="0" on="1"/>
        <pt x="85" y="700" on="1"/>
        <pt x="395" y="700" on="1"/>
        <pt x="410" y="810" on="1"/>
        <pt x="505" y="810" on="1"/>
        <pt x="505" y="610" on="1"/>
      </contour>
    </TTGlyph>
    <TTGlyph name="afii10051" xMin="0" yMin="-30" xMax="620" yMax="700">
      <contour>
        <pt x="480" y="255" on="1"/>
        <pt x="480" y="370" on="0"/>
        <pt x="365" y="370" on="1"/>
        <pt x="344" y="370" on="0"/>
        <pt x="310" y="365" on="0"/>
        <pt x="297" y="362" on="1"/>
        <pt x="282" y="358" on="0"/>
        <pt x="270" y="355" on="1"/>
        <pt x="270" y="0" on="1"/>
        <pt x="130" y="0" on="1"/>
        <pt x="130" y="610" on="1"/>
        <pt x="0" y="610" on="1"/>
        <pt x="0" y="700" on="1"/>
        <pt x="440" y="700" on="1"/>
        <pt x="440" y="610" on="1"/>
        <pt x="270" y="610" on="1"/>
        <pt x="270" y="445" on="1"/>
        <pt x="286" y="448" on="0"/>
        <pt x="304" y="452" on="1"/>
        <pt x="320" y="455" on="0"/>
        <pt x="364" y="460" on="0"/>
        <pt x="390" y="460" on="1"/>
        <pt x="503" y="460" on="0"/>
        <pt x="620" y="349" on="0"/>
        <pt x="620" y="255" on="1"/>
        <pt x="620" y="140" on="1"/>
        <pt x="620" y="102" on="0"/>
        <pt x="595" y="40" on="0"/>
        <pt x="547" y="-5" on="0"/>
        <pt x="478" y="-30" on="0"/>
        <pt x="435" y="-30" on="1"/>
        <pt x="416" y="-30" on="0"/>
        <pt x="385" y="-24" on="0"/>
        <pt x="374" y="-20" on="1"/>
        <pt x="361" y="-16" on="0"/>
        <pt x="350" y="-10" on="1"/>
        <pt x="365" y="70" on="1"/>
        <pt x="375" y="70" on="1"/>
        <pt x="381" y="67" on="0"/>
        <pt x="389" y="65" on="1"/>
        <pt x="404" y="60" on="0"/>
        <pt x="425" y="60" on="1"/>
        <pt x="448" y="60" on="0"/>
        <pt x="480" y="98" on="0"/>
        <pt x="480" y="140" on="1"/>
      </contour>
    </TTGlyph>
    <TTGlyph name="afii10052" xMin="85" yMin="0" xMax="505" yMax="900">
      <contour>
        <pt x="85" y="0" on="1"/>
        <pt x="85" y="700" on="1"/>
        <pt x="505" y="700" on="1"/>
        <pt x="505" y="610" on="1"/>
        <pt x="225" y="610" on="1"/>
        <pt x="225" y="0" on="1"/>
      </contour>
      <contour>
        <pt x="425" y="900" on="1"/>
        <pt x="325" y="750" on="1"/>
        <pt x="245" y="750" on="1"/>
        <pt x="290" y="900" on="1"/>
      </contour>
    </TTGlyph>
    <TTGlyph name="afii10053" xMin="50" yMin="-10" xMax="515" yMax="710">
      <contour>
        <pt x="415" y="310" on="1"/>
        <pt x="190" y="310" on="1"/>
        <pt x="194" y="242" on="0"/>
        <pt x="218" y="154" on="0"/>
        <pt x="256" y="101" on="0"/>
        <pt x="308" y="80" on="0"/>
        <pt x="340" y="80" on="1"/>
        <pt x="368" y="80" on="0"/>
        <pt x="412" y="94" on="0"/>
        <pt x="428" y="102" on="1"/>
        <pt x="446" y="112" on="0"/>
        <pt x="460" y="125" on="1"/>
        <pt x="470" y="125" on="1"/>
        <pt x="515" y="45" on="1"/>
        <pt x="494" y="29" on="0"/>
        <pt x="466" y="17" on="1"/>
        <pt x="442" y="6" on="0"/>
        <pt x="373" y="-10" on="0"/>
        <pt x="330" y="-10" on="1"/>
        <pt x="264" y="-10" on="0"/>
        <pt x="160" y="31" on="0"/>
        <pt x="88" y="118" on="0"/>
        <pt x="50" y="254" on="0"/>
        <pt x="50" y="350" on="1"/>
        <pt x="50" y="446" on="0"/>
        <pt x="88" y="582" on="0"/>
        <pt x="158" y="669" on="0"/>
        <pt x="258" y="710" on="0"/>
        <pt x="320" y="710" on="1"/>
        <pt x="363" y="710" on="0"/>
        <pt x="432" y="693" on="0"/>
        <pt x="456" y="682" on="1"/>
        <pt x="484" y="670" on="0"/>
        <pt x="505" y="655" on="1"/>
        <pt x="460" y="575" on="1"/>
        <pt x="450" y="575" on="1"/>
        <pt x="436" y="587" on="0"/>
        <pt x="418" y="597" on="1"/>
        <pt x="402" y="605" on="0"/>
        <pt x="358" y="620" on="0"/>
        <pt x="330" y="620" on="1"/>
        <pt x="302" y="620" on="0"/>
        <pt x="254" y="599" on="0"/>
        <pt x="217" y="548" on="0"/>
        <pt x="194" y="464" on="0"/>
        <pt x="190" y="400" on="1"/>
        <pt x="415" y="400" on="1"/>
      </contour>
    </TTGlyph>
    <TTGlyph name="afii10054" xMin="35" yMin="-10" xMax="500" yMax="710">
      <contour>
        <pt x="275" y="710" on="1"/>
        <pt x="326" y="710" on="0"/>
        <pt x="402" y="693" on="0"/>
        <pt x="428" y="682" on="1"/>
        <pt x="458" y="670" on="0"/>
        <pt x="480" y="655" on="1"/>
        <pt x="435" y="575" on="1"/>
        <pt x="425" y="575" on="1"/>
        <pt x="411" y="587" on="0"/>
        <pt x="391" y="597" on="1"/>
        <pt x="374" y="605" on="0"/>
        <pt x="320" y="620" on="0"/>
        <pt x="285" y="620" on="1"/>
        <pt x="262" y="620" on="0"/>
        <pt x="224" y="605" on="0"/>
        <pt x="196" y="579" on="0"/>
        <pt x="180" y="547" on="0"/>
        <pt x="180" y="530" on="1"/>
        <pt x="180" y="495" on="0"/>
        <pt x="227" y="449" on="0"/>
        <pt x="299" y="411" on="0"/>
        <pt x="381" y="373" on="0"/>
        <pt x="453" y="321" on="0"/>
        <pt x="500" y="246" on="0"/>
        <pt x="500" y="190" on="1"/>
        <pt x="500" y="147" on="0"/>
        <pt x="468" y="74" on="0"/>
        <pt x="405" y="20" on="0"/>
        <pt x="312" y="-10" on="0"/>
        <pt x="250" y="-10" on="1"/>
        <pt x="195" y="-10" on="0"/>
        <pt x="115" y="6" on="0"/>
        <pt x="88" y="17" on="1"/>
        <pt x="56" y="29" on="0"/>
        <pt x="35" y="45" on="1"/>
        <pt x="80" y="125" on="1"/>
        <pt x="90" y="125" on="1"/>
        <pt x="105" y="112" on="0"/>
        <pt x="126" y="102" on="1"/>
        <pt x="144" y="94" on="0"/>
        <pt x="200" y="80" on="0"/>
        <pt x="240" y="80" on="1"/>
        <pt x="300" y="80" on="0"/>
        <pt x="360" y="135" on="0"/>
        <pt x="360" y="180" on="1"/>
        <pt x="360" y="215" on="0"/>
        <pt x="313" y="261" on="0"/>
        <pt x="241" y="299" on="0"/>
        <pt x="159" y="337" on="0"/>
        <pt x="87" y="389" on="0"/>
        <pt x="40" y="464" on="0"/>
        <pt x="40" y="520" on="1"/>
        <pt x="40" y="559" on="0"/>
        <pt x="71" y="629" on="0"/>
        <pt x="131" y="680" on="0"/>
        <pt x="219" y="710" on="0"/>
      </contour>
    </TTGlyph>
    <TTGlyph name="afii10055" xMin="75" yMin="0" xMax="215" yMax="700">
      <contour>
        <pt x="75" y="700" on="1"/>
        <pt x="215" y="700" on="1"/>
        <pt x="215" y="0" on="1"/>
        <pt x="75" y="0" on="1"/>
      </contour>
    </TTGlyph>
    <TTGlyph name="afii10056" xMin="-25" yMin="0" xMax="325" yMax="915">
      <contour>
        <pt x="85" y="700" on="1"/>
        <pt x="225" y="700" on="1"/>
        <pt x="225" y="0" on="1"/>
        <pt x="85" y="0" on="1"/>
      </contour>
      <contour>
        <pt x="50" y="915" on="1"/>
        <pt x="80" y="915" on="0"/>
        <pt x="125" y="870" on="0"/>
        <pt x="125" y="840" on="1"/>
        <pt x="125" y="810" on="0"/>
        <pt x="80" y="765" on="0"/>
        <pt x="50" y="765" on="1"/>
        <pt x="20" y="765" on="0"/>
        <pt x="-25" y="810" on="0"/>
        <pt x="-25" y="840" on="1"/>
        <pt x="-25" y="870" on="0"/>
        <pt x="20" y="915" on="0"/>
      </contour>
      <contour>
        <pt x="250" y="915" on="1"/>
        <pt x="280" y="915" on="0"/>
        <pt x="325" y="870" on="0"/>
        <pt x="325" y="840" on="1"/>
        <pt x="325" y="810" on="0"/>
        <pt x="280" y="765" on="0"/>
        <pt x="250" y="765" on="1"/>
        <pt x="220" y="765" on="0"/>
        <pt x="175" y="810" on="0"/>
        <pt x="175" y="840" on="1"/>
        <pt x="175" y="870" on="0"/>
        <pt x="220" y="915" on="0"/>
      </contour>
    </TTGlyph>
    <TTGlyph name="afii10057" xMin="0" yMin="-10" xMax="375" yMax="700">
      <contour>
        <pt x="140" y="80" on="1"/>
        <pt x="185" y="80" on="0"/>
        <pt x="235" y="133" on="0"/>
        <pt x="235" y="190" on="1"/>
        <pt x="235" y="700" on="1"/>
        <pt x="375" y="700" on="1"/>
        <pt x="375" y="190" on="1"/>
        <pt x="375" y="100" on="0"/>
        <pt x="259" y="-10" on="0"/>
        <pt x="150" y="-10" on="1"/>
        <pt x="120" y="-10" on="0"/>
        <pt x="65" y="4" on="0"/>
        <pt x="45" y="12" on="1"/>
        <pt x="20" y="22" on="0"/>
        <pt x="0" y="35" on="1"/>
        <pt x="40" y="120" on="1"/>
        <pt x="50" y="120" on="1"/>
        <pt x="63" y="109" on="0"/>
        <pt x="78" y="100" on="1"/>
        <pt x="91" y="92" on="0"/>
        <pt x="123" y="80" on="0"/>
      </contour>
    </TTGlyph>
    <TTGlyph name="afii10058" xMin="5" yMin="-10" xMax="890" yMax="700">
      <contour>
        <pt x="50" y="80" on="1"/>
        <pt x="68" y="80" on="0"/>
        <pt x="93" y="115" on="0"/>
        <pt x="95" y="160" on="1"/>
        <pt x="125" y="700" on="1"/>
        <pt x="550" y="700" on="1"/>
        <pt x="550" y="450" on="1"/>
        <pt x="620" y="450" on="1"/>
        <pt x="762" y="450" on="0"/>
        <pt x="890" y="334" on="0"/>
        <pt x="890" y="225" on="1"/>
        <pt x="890" y="116" on="0"/>
        <pt x="762" y="0" on="0"/>
        <pt x="620" y="0" on="1"/>
        <pt x="410" y="0" on="1"/>
        <pt x="410" y="610" on="1"/>
        <pt x="260" y="610" on="1"/>
        <pt x="235" y="160" on="1"/>
        <pt x="230" y="77" on="0"/>
        <pt x="150" y="-10" on="0"/>
        <pt x="75" y="-10" on="1"/>
        <pt x="61" y="-10" on="0"/>
        <pt x="37" y="-6" on="0"/>
        <pt x="27" y="-3" on="1"/>
        <pt x="16" y="1" on="0"/>
        <pt x="5" y="5" on="1"/>
        <pt x="15" y="85" on="1"/>
        <pt x="25" y="85" on="1"/>
        <pt x="30" y="83" on="0"/>
        <pt x="34" y="82" on="1"/>
        <pt x="44" y="80" on="0"/>
      </contour>
      <contour>
        <pt x="550" y="360" on="1"/>
        <pt x="550" y="90" on="1"/>
        <pt x="620" y="90" on="1"/>
        <pt x="688" y="90" on="0"/>
        <pt x="750" y="153" on="0"/>
        <pt x="750" y="225" on="1"/>
        <pt x="750" y="297" on="0"/>
        <pt x="688" y="360" on="0"/>
        <pt x="620" y="360" on="1"/>
      </contour>
    </TTGlyph>
    <TTGlyph name="afii10059" xMin="85" yMin="0" xMax="900" yMax="700">
      <contour>
        <pt x="630" y="430" on="1"/>
        <pt x="701" y="430" on="0"/>
        <pt x="803" y="401" on="0"/>
        <pt x="869" y="345" on="0"/>
        <pt x="900" y="266" on="0"/>
        <pt x="900" y="215" on="1"/>
        <pt x="900" y="164" on="0"/>
        <pt x="869" y="85" on="0"/>
        <pt x="803" y="29" on="0"/>
        <pt x="701" y="0" on="0"/>
        <pt x="630" y="0" on="1"/>
        <pt x="420" y="0" on="1"/>
        <pt x="420" y="340" on="1"/>
        <pt x="225" y="340" on="1"/>
        <pt x="225" y="0" on="1"/>
        <pt x="85" y="0" on="1"/>
        <pt x="85" y="700" on="1"/>
        <pt x="225" y="700" on="1"/>
        <pt x="225" y="430" on="1"/>
        <pt x="420" y="430" on="1"/>
        <pt x="420" y="700" on="1"/>
        <pt x="560" y="700" on="1"/>
        <pt x="560" y="430" on="1"/>
      </contour>
      <contour>
        <pt x="560" y="340" on="1"/>
        <pt x="560" y="90" on="1"/>
        <pt x="630" y="90" on="1"/>
        <pt x="698" y="90" on="0"/>
        <pt x="760" y="151" on="0"/>
        <pt x="760" y="215" on="1"/>
        <pt x="760" y="279" on="0"/>
        <pt x="698" y="340" on="0"/>
        <pt x="630" y="340" on="1"/>
      </contour>
    </TTGlyph>
    <TTGlyph name="afii10060" xMin="0" yMin="0" xMax="620" yMax="700">
      <contour>
        <pt x="270" y="0" on="1"/>
        <pt x="130" y="0" on="1"/>
        <pt x="130" y="610" on="1"/>
        <pt x="0" y="610" on="1"/>
        <pt x="0" y="700" on="1"/>
        <pt x="440" y="700" on="1"/>
        <pt x="440" y="610" on="1"/>
        <pt x="270" y="610" on="1"/>
        <pt x="270" y="445" on="1"/>
        <pt x="286" y="448" on="0"/>
        <pt x="304" y="452" on="1"/>
        <pt x="320" y="455" on="0"/>
        <pt x="364" y="460" on="0"/>
        <pt x="390" y="460" on="1"/>
        <pt x="503" y="460" on="0"/>
        <pt x="620" y="349" on="0"/>
        <pt x="620" y="255" on="1"/>
        <pt x="620" y="0" on="1"/>
        <pt x="480" y="0" on="1"/>
        <pt x="480" y="255" on="1"/>
        <pt x="480" y="370" on="0"/>
        <pt x="365" y="370" on="1"/>
        <pt x="344" y="370" on="0"/>
        <pt x="310" y="365" on="0"/>
        <pt x="297" y="362" on="1"/>
        <pt x="282" y="358" on="0"/>
        <pt x="270" y="355" on="1"/>
      </contour>
    </TTGlyph>
    <TTGlyph name="afii10061" xMin="85" yMin="-10" xMax="590" yMax="890">
      <contour>
        <pt x="435" y="890" on="1"/>
        <pt x="335" y="740" on="1"/>
        <pt x="255" y="740" on="1"/>
        <pt x="300" y="890" on="1"/>
      </contour>
      <contour>
        <pt x="385" y="365" on="1"/>
        <pt x="409" y="360" on="0"/>
        <pt x="430" y="346" on="1"/>
        <pt x="448" y="334" on="0"/>
        <pt x="482" y="290" on="0"/>
        <pt x="490" y="255" on="1"/>
        <pt x="520" y="115" on="1"/>
        <pt x="527" y="80" on="0"/>
        <pt x="556" y="80" on="1"/>
        <pt x="561" y="80" on="0"/>
        <pt x="569" y="82" on="1"/>
        <pt x="572" y="83" on="0"/>
        <pt x="575" y="85" on="1"/>
        <pt x="580" y="85" on="1"/>
        <pt x="590" y="5" on="1"/>
        <pt x="580" y="1" on="0"/>
        <pt x="568" y="-3" on="1"/>
        <pt x="557" y="-6" on="0"/>
        <pt x="525" y="-10" on="0"/>
        <pt x="505" y="-10" on="1"/>
        <pt x="452" y="-10" on="0"/>
        <pt x="389" y="48" on="0"/>
        <pt x="380" y="90" on="1"/>
        <pt x="345" y="250" on="1"/>
        <pt x="337" y="284" on="0"/>
        <pt x="304" y="315" on="0"/>
        <pt x="270" y="315" on="1"/>
        <pt x="225" y="315" on="1"/>
        <pt x="225" y="0" on="1"/>
        <pt x="85" y="0" on="1"/>
        <pt x="85" y="700" on="1"/>
        <pt x="225" y="700" on="1"/>
        <pt x="225" y="405" on="1"/>
        <pt x="255" y="405" on="1"/>
        <pt x="293" y="405" on="0"/>
        <pt x="327" y="437" on="0"/>
        <pt x="335" y="475" on="1"/>
        <pt x="365" y="610" on="1"/>
        <pt x="374" y="652" on="0"/>
        <pt x="437" y="710" on="0"/>
        <pt x="490" y="710" on="1"/>
        <pt x="509" y="710" on="0"/>
        <pt x="540" y="705" on="0"/>
        <pt x="551" y="702" on="1"/>
        <pt x="564" y="698" on="0"/>
        <pt x="575" y="695" on="1"/>
        <pt x="565" y="615" on="1"/>
        <pt x="560" y="615" on="1"/>
        <pt x="558" y="616" on="0"/>
        <pt x="554" y="617" on="1"/>
        <pt x="551" y="618" on="0"/>
        <pt x="544" y="620" on="0"/>
        <pt x="540" y="620" on="1"/>
        <pt x="512" y="620" on="0"/>
        <pt x="505" y="585" on="1"/>
        <pt x="480" y="470" on="1"/>
        <pt x="472" y="435" on="0"/>
        <pt x="441" y="394" on="0"/>
        <pt x="425" y="383" on="1"/>
        <pt x="407" y="370" on="0"/>
      </contour>
    </TTGlyph>
    <TTGlyph name="afii10062" xMin="10" yMin="-15" xMax="565" yMax="875">
      <contour>
        <pt x="290" y="805" on="1"/>
        <pt x="313" y="805" on="0"/>
        <pt x="340" y="837" on="0"/>
        <pt x="340" y="875" on="1"/>
        <pt x="450" y="875" on="1"/>
        <pt x="450" y="807" on="0"/>
        <pt x="373" y="735" on="0"/>
        <pt x="290" y="735" on="1"/>
        <pt x="207" y="735" on="0"/>
        <pt x="130" y="807" on="0"/>
        <pt x="130" y="875" on="1"/>
        <pt x="240" y="875" on="1"/>
        <pt x="240" y="837" on="0"/>
        <pt x="267" y="805" on="0"/>
      </contour>
      <contour>
        <pt x="420" y="700" on="1"/>
        <pt x="565" y="700" on="1"/>
        <pt x="385" y="135" on="1"/>
        <pt x="375" y="103" on="0"/>
        <pt x="341" y="48" on="0"/>
        <pt x="293" y="8" on="0"/>
        <pt x="229" y="-15" on="0"/>
        <pt x="190" y="-15" on="1"/>
        <pt x="165" y="-15" on="0"/>
        <pt x="124" y="-6" on="0"/>
        <pt x="108" y="0" on="1"/>
        <pt x="90" y="6" on="0"/>
        <pt x="75" y="15" on="1"/>
        <pt x="110" y="100" on="1"/>
        <pt x="120" y="100" on="1"/>
        <pt x="127" y="92" on="0"/>
        <pt x="137" y="87" on="1"/>
        <pt x="145" y="82" on="0"/>
        <pt x="166" y="75" on="0"/>
        <pt x="180" y="75" on="1"/>
        <pt x="206" y="75" on="0"/>
        <pt x="242" y="109" on="0"/>
        <pt x="250" y="135" on="1"/>
        <pt x="265" y="185" on="1"/>
        <pt x="224" y="185" on="1"/>
        <pt x="10" y="700" on="1"/>
        <pt x="155" y="700" on="1"/>
        <pt x="285" y="365" on="1"/>
        <pt x="290" y="351" on="0"/>
        <pt x="297" y="325" on="0"/>
        <pt x="299" y="314" on="1"/>
        <pt x="302" y="302" on="0"/>
        <pt x="303" y="290" on="1"/>
        <pt x="307" y="290" on="1"/>
        <pt x="307" y="302" on="0"/>
        <pt x="309" y="314" on="1"/>
        <pt x="311" y="325" on="0"/>
        <pt x="315" y="351" on="0"/>
        <pt x="320" y="365" on="1"/>
      </contour>
    </TTGlyph>
    <TTGlyph name="afii10065" xMin="40" yMin="-10" xMax="475" yMax="510">
      <contour>
        <pt x="335" y="320" on="1"/>
        <pt x="335" y="373" on="0"/>
        <pt x="289" y="420" on="0"/>
        <pt x="240" y="420" on="1"/>
        <pt x="215" y="420" on="0"/>
        <pt x="177" y="408" on="0"/>
        <pt x="163" y="400" on="1"/>
        <pt x="147" y="391" on="0"/>
        <pt x="135" y="380" on="1"/>
        <pt x="125" y="380" on="1"/>
        <pt x="80" y="460" on="1"/>
        <pt x="101" y="474" on="0"/>
        <pt x="127" y="485" on="1"/>
        <pt x="150" y="494" on="0"/>
        <pt x="212" y="510" on="0"/>
        <pt x="250" y="510" on="1"/>
        <pt x="304" y="510" on="0"/>
        <pt x="388" y="482" on="0"/>
        <pt x="445" y="431" on="0"/>
        <pt x="475" y="361" on="0"/>
        <pt x="475" y="320" on="1"/>
        <pt x="475" y="0" on="1"/>
        <pt x="375" y="0" on="1"/>
        <pt x="365" y="60" on="1"/>
        <pt x="360" y="60" on="1"/>
        <pt x="345" y="40" on="0"/>
        <pt x="326" y="25" on="1"/>
        <pt x="309" y="11" on="0"/>
        <pt x="259" y="-10" on="0"/>
        <pt x="225" y="-10" on="1"/>
        <pt x="135" y="-10" on="0"/>
        <pt x="40" y="77" on="0"/>
        <pt x="40" y="145" on="1"/>
        <pt x="40" y="181" on="0"/>
        <pt x="65" y="240" on="0"/>
        <pt x="120" y="282" on="0"/>
        <pt x="205" y="305" on="0"/>
        <pt x="265" y="305" on="1"/>
        <pt x="335" y="305" on="1"/>
      </contour>
      <contour>
        <pt x="335" y="215" on="1"/>
        <pt x="265" y="215" on="1"/>
        <pt x="220" y="215" on="0"/>
        <pt x="180" y="179" on="0"/>
        <pt x="180" y="145" on="1"/>
        <pt x="180" y="119" on="0"/>
        <pt x="216" y="85" on="0"/>
        <pt x="250" y="85" on="1"/>
        <pt x="269" y="85" on="0"/>
        <pt x="300" y="104" on="0"/>
        <pt x="311" y="115" on="1"/>
        <pt x="324" y="128" on="0"/>
        <pt x="335" y="145" on="1"/>
      </contour>
    </TTGlyph>
    <TTGlyph name="afii10066" xMin="50" yMin="-10" xMax="510" yMax="715">
      <contour>
        <pt x="350" y="585" on="1"/>
        <pt x="297" y="576" on="0"/>
        <pt x="225" y="547" on="0"/>
        <pt x="180" y="500" on="0"/>
        <pt x="160" y="432" on="0"/>
        <pt x="160" y="385" on="1"/>
        <pt x="206" y="470" on="0"/>
        <pt x="305" y="470" on="1"/>
        <pt x="350" y="470" on="0"/>
        <pt x="425" y="439" on="0"/>
        <pt x="480" y="378" on="0"/>
        <pt x="510" y="288" on="0"/>
        <pt x="510" y="230" on="1"/>
        <pt x="510" y="113" on="0"/>
        <pt x="389" y="-10" on="0"/>
        <pt x="280" y="-10" on="1"/>
        <pt x="171" y="-10" on="0"/>
        <pt x="50" y="113" on="0"/>
        <pt x="50" y="230" on="1"/>
        <pt x="50" y="325" on="1"/>
        <pt x="50" y="417" on="0"/>
        <pt x="84" y="545" on="0"/>
        <pt x="153" y="630" on="0"/>
        <pt x="259" y="678" on="0"/>
        <pt x="330" y="690" on="1"/>
        <pt x="480" y="715" on="1"/>
        <pt x="500" y="610" on="1"/>
      </contour>
      <contour>
        <pt x="280" y="375" on="1"/>
        <pt x="261" y="375" on="0"/>
        <pt x="228" y="359" on="0"/>
        <pt x="204" y="325" on="0"/>
        <pt x="190" y="269" on="0"/>
        <pt x="190" y="230" on="1"/>
        <pt x="190" y="189" on="0"/>
        <pt x="204" y="132" on="0"/>
        <pt x="228" y="96" on="0"/>
        <pt x="261" y="80" on="0"/>
        <pt x="280" y="80" on="1"/>
        <pt x="299" y="80" on="0"/>
        <pt x="332" y="96" on="0"/>
        <pt x="356" y="132" on="0"/>
        <pt x="370" y="189" on="0"/>
        <pt x="370" y="230" on="1"/>
        <pt x="370" y="269" on="0"/>
        <pt x="356" y="325" on="0"/>
        <pt x="332" y="359" on="0"/>
        <pt x="299" y="375" on="0"/>
      </contour>
    </TTGlyph>
    <TTGlyph name="afii10067" xMin="70" yMin="0" xMax="495" yMax="500">
      <contour>
        <pt x="370" y="260" on="1"/>
        <pt x="405" y="254" on="0"/>
        <pt x="432" y="239" on="1"/>
        <pt x="455" y="225" on="0"/>
        <pt x="495" y="177" on="0"/>
        <pt x="495" y="135" on="1"/>
        <pt x="495" y="107" on="0"/>
        <pt x="471" y="58" on="0"/>
        <pt x="418" y="21" on="0"/>
        <pt x="332" y="0" on="0"/>
        <pt x="270" y="0" on="1"/>
        <pt x="70" y="0" on="1"/>
        <pt x="70" y="500" on="1"/>
        <pt x="270" y="500" on="1"/>
        <pt x="324" y="500" on="0"/>
        <pt x="402" y="479" on="0"/>
        <pt x="452" y="443" on="0"/>
        <pt x="475" y="396" on="0"/>
        <pt x="475" y="370" on="1"/>
        <pt x="475" y="336" on="0"/>
        <pt x="442" y="293" on="0"/>
        <pt x="422" y="281" on="1"/>
        <pt x="399" y="267" on="0"/>
      </contour>
      <contour>
        <pt x="210" y="410" on="1"/>
        <pt x="210" y="300" on="1"/>
        <pt x="270" y="300" on="1"/>
        <pt x="300" y="300" on="0"/>
        <pt x="335" y="332" on="0"/>
        <pt x="335" y="355" on="1"/>
        <pt x="335" y="378" on="0"/>
        <pt x="300" y="410" on="0"/>
        <pt x="270" y="410" on="1"/>
      </contour>
      <contour>
        <pt x="210" y="210" on="1"/>
        <pt x="210" y="90" on="1"/>
        <pt x="270" y="90" on="1"/>
        <pt x="315" y="90" on="0"/>
        <pt x="355" y="124" on="0"/>
        <pt x="355" y="150" on="1"/>
        <pt x="355" y="176" on="0"/>
        <pt x="315" y="210" on="0"/>
        <pt x="270" y="210" on="1"/>
      </contour>
    </TTGlyph>
    <TTGlyph name="afii10068" xMin="70" yMin="0" xMax="420" yMax="500">
      <contour>
        <pt x="420" y="410" on="1"/>
        <pt x="210" y="410" on="1"/>
        <pt x="210" y="0" on="1"/>
        <pt x="70" y="0" on="1"/>
        <pt x="70" y="500" on="1"/>
        <pt x="420" y="500" on="1"/>
      </contour>
    </TTGlyph>
    <TTGlyph name="afii10069" xMin="5" yMin="-140" xMax="565" yMax="500">
      <contour>
        <pt x="500" y="500" on="1"/>
        <pt x="500" y="90" on="1"/>
        <pt x="565" y="90" on="1"/>
        <pt x="565" y="-140" on="1"/>
        <pt x="460" y="-140" on="1"/>
        <pt x="440" y="0" on="1"/>
        <pt x="135" y="0" on="1"/>
        <pt x="115" y="-140" on="1"/>
        <pt x="5" y="-140" on="1"/>
        <pt x="5" y="90" on="1"/>
        <pt x="55" y="90" on="1"/>
        <pt x="67" y="101" on="0"/>
        <pt x="78" y="118" on="1"/>
        <pt x="87" y="132" on="0"/>
        <pt x="103" y="178" on="0"/>
        <pt x="105" y="210" on="1"/>
        <pt x="125" y="500" on="1"/>
      </contour>
      <contour>
        <pt x="360" y="90" on="1"/>
        <pt x="360" y="410" on="1"/>
        <pt x="255" y="410" on="1"/>
        <pt x="241" y="210" on="1"/>
        <pt x="239" y="178" on="0"/>
        <pt x="223" y="132" on="0"/>
        <pt x="214" y="118" on="1"/>
        <pt x="203" y="101" on="0"/>
        <pt x="191" y="90" on="1"/>
      </contour>
    </TTGlyph>
    <TTGlyph name="afii10070" xMin="40" yMin="-10" xMax="480" yMax="510">
      <contour>
        <pt x="260" y="420" on="1"/>
        <pt x="230" y="420" on="0"/>
        <pt x="180" y="359" on="0"/>
        <pt x="180" y="295" on="1"/>
        <pt x="340" y="295" on="1"/>
        <pt x="340" y="359" on="0"/>
        <pt x="290" y="420" on="0"/>
      </contour>
      <contour>
        <pt x="290" y="-10" on="1"/>
        <pt x="40" y="-10" on="0"/>
        <pt x="40" y="250" on="1"/>
        <pt x="40" y="381" on="0"/>
        <pt x="159" y="510" on="0"/>
        <pt x="260" y="510" on="1"/>
        <pt x="361" y="510" on="0"/>
        <pt x="480" y="384" on="0"/>
        <pt x="480" y="260" on="1"/>
        <pt x="480" y="235" on="1"/>
        <pt x="450" y="205" on="1"/>
        <pt x="180" y="205" on="1"/>
        <pt x="180" y="80" on="0"/>
        <pt x="300" y="80" on="1"/>
        <pt x="324" y="80" on="0"/>
        <pt x="363" y="92" on="0"/>
        <pt x="377" y="100" on="1"/>
        <pt x="393" y="109" on="0"/>
        <pt x="405" y="120" on="1"/>
        <pt x="415" y="120" on="1"/>
        <pt x="460" y="40" on="1"/>
        <pt x="438" y="26" on="0"/>
        <pt x="412" y="15" on="1"/>
        <pt x="389" y="5" on="0"/>
        <pt x="328" y="-10" on="0"/>
      </contour>
    </TTGlyph>
    <TTGlyph name="afii10071" xMin="40" yMin="-10" xMax="480" yMax="705">
      <contour>
        <pt x="260" y="420" on="1"/>
        <pt x="230" y="420" on="0"/>
        <pt x="180" y="359" on="0"/>
        <pt x="180" y="295" on="1"/>
        <pt x="340" y="295" on="1"/>
        <pt x="340" y="359" on="0"/>
        <pt x="290" y="420" on="0"/>
      </contour>
      <contour>
        <pt x="290" y="-10" on="1"/>
        <pt x="40" y="-10" on="0"/>
        <pt x="40" y="250" on="1"/>
        <pt x="40" y="381" on="0"/>
        <pt x="159" y="510" on="0"/>
        <pt x="260" y="510" on="1"/>
        <pt x="361" y="510" on="0"/>
        <pt x="480" y="384" on="0"/>
        <pt x="480" y="260" on="1"/>
        <pt x="480" y="235" on="1"/>
        <pt x="450" y="205" on="1"/>
        <pt x="180" y="205" on="1"/>
        <pt x="180" y="80" on="0"/>
        <pt x="300" y="80" on="1"/>
        <pt x="324" y="80" on="0"/>
        <pt x="363" y="92" on="0"/>
        <pt x="377" y="100" on="1"/>
        <pt x="393" y="109" on="0"/>
        <pt x="405" y="120" on="1"/>
        <pt x="415" y="120" on="1"/>
        <pt x="460" y="40" on="1"/>
        <pt x="438" y="26" on="0"/>
        <pt x="412" y="15" on="1"/>
        <pt x="389" y="5" on="0"/>
        <pt x="328" y="-10" on="0"/>
      </contour>
      <contour>
        <pt x="155" y="705" on="1"/>
        <pt x="183" y="705" on="0"/>
        <pt x="225" y="663" on="0"/>
        <pt x="225" y="635" on="1"/>
        <pt x="225" y="607" on="0"/>
        <pt x="183" y="565" on="0"/>
        <pt x="155" y="565" on="1"/>
        <pt x="127" y="565" on="0"/>
        <pt x="85" y="607" on="0"/>
        <pt x="85" y="635" on="1"/>
        <pt x="85" y="663" on="0"/>
        <pt x="127" y="705" on="0"/>
      </contour>
      <contour>
        <pt x="350" y="705" on="1"/>
        <pt x="378" y="705" on="0"/>
        <pt x="420" y="663" on="0"/>
        <pt x="420" y="635" on="1"/>
        <pt x="420" y="607" on="0"/>
        <pt x="378" y="565" on="0"/>
        <pt x="350" y="565" on="1"/>
        <pt x="322" y="565" on="0"/>
        <pt x="280" y="607" on="0"/>
        <pt x="280" y="635" on="1"/>
        <pt x="280" y="663" on="0"/>
        <pt x="322" y="705" on="0"/>
      </contour>
    </TTGlyph>
    <TTGlyph name="afii10072" xMin="20" yMin="-10" xMax="750" yMax="510">
      <contour>
        <pt x="290" y="210" on="1"/>
        <pt x="267" y="210" on="0"/>
        <pt x="245" y="189" on="0"/>
        <pt x="240" y="170" on="1"/>
        <pt x="215" y="70" on="1"/>
        <pt x="207" y="36" on="0"/>
        <pt x="153" y="-10" on="0"/>
        <pt x="100" y="-10" on="1"/>
        <pt x="83" y="-10" on="0"/>
        <pt x="54" y="-6" on="0"/>
        <pt x="43" y="-3" on="1"/>
        <pt x="31" y="1" on="0"/>
        <pt x="20" y="5" on="1"/>
        <pt x="35" y="85" on="1"/>
        <pt x="40" y="85" on="1"/>
        <pt x="42" y="83" on="0"/>
        <pt x="46" y="82" on="1"/>
        <pt x="54" y="80" on="0"/>
        <pt x="60" y="80" on="1"/>
        <pt x="68" y="80" on="0"/>
        <pt x="82" y="94" on="0"/>
        <pt x="85" y="105" on="1"/>
        <pt x="105" y="185" on="1"/>
        <pt x="111" y="209" on="0"/>
        <pt x="144" y="239" on="0"/>
        <pt x="161" y="247" on="1"/>
        <pt x="181" y="257" on="0"/>
        <pt x="205" y="260" on="1"/>
        <pt x="184" y="264" on="0"/>
        <pt x="166" y="272" on="1"/>
        <pt x="150" y="279" on="0"/>
        <pt x="121" y="304" on="0"/>
        <pt x="115" y="325" on="1"/>
        <pt x="95" y="395" on="1"/>
        <pt x="92" y="406" on="0"/>
        <pt x="78" y="420" on="0"/>
        <pt x="70" y="420" on="1"/>
        <pt x="66" y="420" on="0"/>
        <pt x="59" y="418" on="0"/>
        <pt x="56" y="417" on="1"/>
        <pt x="52" y="416" on="0"/>
        <pt x="50" y="415" on="1"/>
        <pt x="45" y="415" on="1"/>
        <pt x="30" y="495" on="1"/>
        <pt x="41" y="498" on="0"/>
        <pt x="53" y="502" on="1"/>
        <pt x="64" y="505" on="0"/>
        <pt x="93" y="510" on="0"/>
        <pt x="110" y="510" on="1"/>
        <pt x="163" y="510" on="0"/>
        <pt x="216" y="464" on="0"/>
        <pt x="225" y="430" on="1"/>
        <pt x="250" y="340" on="1"/>
        <pt x="255" y="321" on="0"/>
        <pt x="277" y="300" on="0"/>
        <pt x="300" y="300" on="1"/>
        <pt x="315" y="300" on="1"/>
        <pt x="315" y="500" on="1"/>
        <pt x="455" y="500" on="1"/>
        <pt x="455" y="300" on="1"/>
        <pt x="470" y="300" on="1"/>
        <pt x="493" y="300" on="0"/>
        <pt x="515" y="321" on="0"/>
        <pt x="520" y="340" on="1"/>
        <pt x="545" y="430" on="1"/>
        <pt x="554" y="464" on="0"/>
        <pt x="607" y="510" on="0"/>
        <pt x="660" y="510" on="1"/>
        <pt x="677" y="510" on="0"/>
        <pt x="706" y="505" on="0"/>
        <pt x="717" y="502" on="1"/>
        <pt x="729" y="498" on="0"/>
        <pt x="740" y="495" on="1"/>
        <pt x="725" y="415" on="1"/>
        <pt x="720" y="415" on="1"/>
        <pt x="718" y="416" on="0"/>
        <pt x="714" y="417" on="1"/>
        <pt x="711" y="418" on="0"/>
        <pt x="704" y="420" on="0"/>
        <pt x="700" y="420" on="1"/>
        <pt x="692" y="420" on="0"/>
        <pt x="678" y="406" on="0"/>
        <pt x="675" y="395" on="1"/>
        <pt x="655" y="325" on="1"/>
        <pt x="649" y="304" on="0"/>
        <pt x="619" y="279" on="0"/>
        <pt x="604" y="272" on="1"/>
        <pt x="586" y="264" on="0"/>
        <pt x="565" y="260" on="1"/>
        <pt x="589" y="257" on="0"/>
        <pt x="609" y="247" on="1"/>
        <pt x="626" y="239" on="0"/>
        <pt x="659" y="209" on="0"/>
        <pt x="665" y="185" on="1"/>
        <pt x="685" y="105" on="1"/>
        <pt x="688" y="94" on="0"/>
        <pt x="702" y="80" on="0"/>
        <pt x="710" y="80" on="1"/>
        <pt x="716" y="80" on="0"/>
        <pt x="724" y="82" on="1"/>
        <pt x="728" y="83" on="0"/>
        <pt x="730" y="85" on="1"/>
        <pt x="735" y="85" on="1"/>
        <pt x="750" y="5" on="1"/>
        <pt x="739" y="1" on="0"/>
        <pt x="727" y="-3" on="1"/>
        <pt x="716" y="-6" on="0"/>
        <pt x="687" y="-10" on="0"/>
        <pt x="670" y="-10" on="1"/>
        <pt x="617" y="-10" on="0"/>
        <pt x="563" y="36" on="0"/>
        <pt x="555" y="70" on="1"/>
        <pt x="530" y="170" on="1"/>
        <pt x="525" y="189" on="0"/>
        <pt x="503" y="210" on="0"/>
        <pt x="480" y="210" on="1"/>
        <pt x="455" y="210" on="1"/>
        <pt x="455" y="0" on="1"/>
        <pt x="315" y="0" on="1"/>
        <pt x="315" y="210" on="1"/>
      </contour>
    </TTGlyph>
    <TTGlyph name="afii10073" xMin="15" yMin="-10" xMax="430" yMax="510">
      <contour>
        <pt x="200" y="80" on="1"/>
        <pt x="249" y="80" on="0"/>
        <pt x="290" y="115" on="0"/>
        <pt x="290" y="145" on="1"/>
        <pt x="290" y="175" on="0"/>
        <pt x="250" y="210" on="0"/>
        <pt x="205" y="210" on="1"/>
        <pt x="120" y="210" on="1"/>
        <pt x="120" y="300" on="1"/>
        <pt x="205" y="300" on="1"/>
        <pt x="243" y="300" on="0"/>
        <pt x="280" y="335" on="0"/>
        <pt x="280" y="365" on="1"/>
        <pt x="280" y="388" on="0"/>
        <pt x="240" y="420" on="0"/>
        <pt x="195" y="420" on="1"/>
        <pt x="166" y="420" on="0"/>
        <pt x="123" y="408" on="0"/>
        <pt x="109" y="400" on="1"/>
        <pt x="92" y="391" on="0"/>
        <pt x="80" y="380" on="1"/>
        <pt x="70" y="380" on="1"/>
        <pt x="25" y="460" on="1"/>
        <pt x="47" y="474" on="0"/>
        <pt x="74" y="485" on="1"/>
        <pt x="97" y="494" on="0"/>
        <pt x="163" y="510" on="0"/>
        <pt x="205" y="510" on="1"/>
        <pt x="263" y="510" on="0"/>
        <pt x="345" y="489" on="0"/>
        <pt x="396" y="452" on="0"/>
        <pt x="420" y="403" on="0"/>
        <pt x="420" y="375" on="1"/>
        <pt x="420" y="337" on="0"/>
        <pt x="384" y="292" on="0"/>
        <pt x="362" y="280" on="1"/>
        <pt x="336" y="266" on="0"/>
        <pt x="305" y="260" on="1"/>
        <pt x="340" y="254" on="0"/>
        <pt x="367" y="238" on="1"/>
        <pt x="390" y="224" on="0"/>
        <pt x="430" y="173" on="0"/>
        <pt x="430" y="130" on="1"/>
        <pt x="430" y="100" on="0"/>
        <pt x="406" y="49" on="0"/>
        <pt x="354" y="11" on="0"/>
        <pt x="270" y="-10" on="0"/>
        <pt x="210" y="-10" on="1"/>
        <pt x="162" y="-10" on="0"/>
        <pt x="91" y="5" on="0"/>
        <pt x="66" y="15" on="1"/>
        <pt x="37" y="26" on="0"/>
        <pt x="15" y="40" on="1"/>
        <pt x="60" y="120" on="1"/>
        <pt x="70" y="120" on="1"/>
        <pt x="83" y="109" on="0"/>
        <pt x="101" y="100" on="1"/>
        <pt x="117" y="92" on="0"/>
        <pt x="166" y="80" on="0"/>
      </contour>
    </TTGlyph>
    <TTGlyph name="afii10074" xMin="70" yMin="0" xMax="510" yMax="500">
      <contour>
        <pt x="510" y="500" on="1"/>
        <pt x="510" y="0" on="1"/>
        <pt x="370" y="0" on="1"/>
        <pt x="370" y="245" on="1"/>
        <pt x="370" y="256" on="0"/>
        <pt x="371" y="278" on="0"/>
        <pt x="372" y="286" on="1"/>
        <pt x="373" y="296" on="0"/>
        <pt x="374" y="305" on="1"/>
        <pt x="370" y="305" on="1"/>
        <pt x="368" y="296" on="0"/>
        <pt x="364" y="286" on="1"/>
        <pt x="361" y="278" on="0"/>
        <pt x="351" y="256" on="0"/>
        <pt x="345" y="245" on="1"/>
        <pt x="205" y="0" on="1"/>
        <pt x="70" y="0" on="1"/>
        <pt x="70" y="500" on="1"/>
        <pt x="210" y="500" on="1"/>
        <pt x="210" y="255" on="1"/>
        <pt x="210" y="244" on="0"/>
        <pt x="209" y="222" on="0"/>
        <pt x="208" y="214" on="1"/>
        <pt x="207" y="204" on="0"/>
        <pt x="206" y="195" on="1"/>
        <pt x="210" y="195" on="1"/>
        <pt x="212" y="204" on="0"/>
        <pt x="216" y="214" on="1"/>
        <pt x="219" y="222" on="0"/>
        <pt x="228" y="244" on="0"/>
        <pt x="235" y="255" on="1"/>
        <pt x="375" y="500" on="1"/>
      </contour>
    </TTGlyph>
    <TTGlyph name="afii10075" xMin="70" yMin="0" xMax="510" yMax="690">
      <contour>
        <pt x="510" y="500" on="1"/>
        <pt x="510" y="0" on="1"/>
        <pt x="370" y="0" on="1"/>
        <pt x="370" y="245" on="1"/>
        <pt x="370" y="256" on="0"/>
        <pt x="371" y="278" on="0"/>
        <pt x="372" y="286" on="1"/>
        <pt x="373" y="296" on="0"/>
        <pt x="374" y="305" on="1"/>
        <pt x="370" y="305" on="1"/>
        <pt x="368" y="296" on="0"/>
        <pt x="364" y="286" on="1"/>
        <pt x="361" y="278" on="0"/>
        <pt x="351" y="256" on="0"/>
        <pt x="345" y="245" on="1"/>
        <pt x="205" y="0" on="1"/>
        <pt x="70" y="0" on="1"/>
        <pt x="70" y="500" on="1"/>
        <pt x="210" y="500" on="1"/>
        <pt x="210" y="255" on="1"/>
        <pt x="210" y="244" on="0"/>
        <pt x="209" y="222" on="0"/>
        <pt x="208" y="214" on="1"/>
        <pt x="207" y="204" on="0"/>
        <pt x="206" y="195" on="1"/>
        <pt x="210" y="195" on="1"/>
        <pt x="212" y="204" on="0"/>
        <pt x="216" y="214" on="1"/>
        <pt x="219" y="222" on="0"/>
        <pt x="228" y="244" on="0"/>
        <pt x="235" y="255" on="1"/>
        <pt x="375" y="500" on="1"/>
      </contour>
      <contour>
        <pt x="290" y="620" on="1"/>
        <pt x="313" y="620" on="0"/>
        <pt x="340" y="652" on="0"/>
        <pt x="340" y="690" on="1"/>
        <pt x="450" y="690" on="1"/>
        <pt x="450" y="622" on="0"/>
        <pt x="373" y="550" on="0"/>
        <pt x="290" y="550" on="1"/>
        <pt x="207" y="550" on="0"/>
        <pt x="130" y="622" on="0"/>
        <pt x="130" y="690" on="1"/>
        <pt x="240" y="690" on="1"/>
        <pt x="240" y="652" on="0"/>
        <pt x="267" y="620" on="0"/>
      </contour>
    </TTGlyph>
    <TTGlyph name="afii10076" xMin="70" yMin="-10" xMax="520" yMax="510">
      <contour>
        <pt x="425" y="325" on="1"/>
        <pt x="419" y="304" on="0"/>
        <pt x="389" y="279" on="0"/>
        <pt x="374" y="272" on="1"/>
        <pt x="356" y="264" on="0"/>
        <pt x="335" y="260" on="1"/>
        <pt x="359" y="257" on="0"/>
        <pt x="379" y="247" on="1"/>
        <pt x="396" y="239" on="0"/>
        <pt x="429" y="209" on="0"/>
        <pt x="435" y="185" on="1"/>
        <pt x="455" y="105" on="1"/>
        <pt x="458" y="94" on="0"/>
        <pt x="472" y="80" on="0"/>
        <pt x="480" y="80" on="1"/>
        <pt x="486" y="80" on="0"/>
        <pt x="494" y="82" on="1"/>
        <pt x="498" y="83" on="0"/>
        <pt x="500" y="85" on="1"/>
        <pt x="505" y="85" on="1"/>
        <pt x="520" y="5" on="1"/>
        <pt x="509" y="1" on="0"/>
        <pt x="497" y="-3" on="1"/>
        <pt x="486" y="-6" on="0"/>
        <pt x="457" y="-10" on="0"/>
        <pt x="440" y="-10" on="1"/>
        <pt x="387" y="-10" on="0"/>
        <pt x="333" y="36" on="0"/>
        <pt x="325" y="70" on="1"/>
        <pt x="300" y="170" on="1"/>
        <pt x="295" y="189" on="0"/>
        <pt x="273" y="210" on="0"/>
        <pt x="250" y="210" on="1"/>
        <pt x="210" y="210" on="1"/>
        <pt x="210" y="0" on="1"/>
        <pt x="70" y="0" on="1"/>
        <pt x="70" y="500" on="1"/>
        <pt x="210" y="500" on="1"/>
        <pt x="210" y="300" on="1"/>
        <pt x="240" y="300" on="1"/>
        <pt x="263" y="300" on="0"/>
        <pt x="285" y="321" on="0"/>
        <pt x="290" y="340" on="1"/>
        <pt x="315" y="430" on="1"/>
        <pt x="324" y="464" on="0"/>
        <pt x="377" y="510" on="0"/>
        <pt x="430" y="510" on="1"/>
        <pt x="447" y="510" on="0"/>
        <pt x="476" y="505" on="0"/>
        <pt x="487" y="502" on="1"/>
        <pt x="499" y="498" on="0"/>
        <pt x="510" y="495" on="1"/>
        <pt x="495" y="415" on="1"/>
        <pt x="490" y="415" on="1"/>
        <pt x="488" y="416" on="0"/>
        <pt x="484" y="417" on="1"/>
        <pt x="481" y="418" on="0"/>
        <pt x="474" y="420" on="0"/>
        <pt x="470" y="420" on="1"/>
        <pt x="462" y="420" on="0"/>
        <pt x="448" y="406" on="0"/>
        <pt x="445" y="395" on="1"/>
      </contour>
    </TTGlyph>
    <TTGlyph name="afii10077" xMin="5" yMin="-10" xMax="495" yMax="500">
      <contour>
        <pt x="45" y="80" on="1"/>
        <pt x="60" y="80" on="0"/>
        <pt x="87" y="115" on="0"/>
        <pt x="90" y="160" on="1"/>
        <pt x="110" y="500" on="1"/>
        <pt x="495" y="500" on="1"/>
        <pt x="495" y="0" on="1"/>
        <pt x="355" y="0" on="1"/>
        <pt x="355" y="410" on="1"/>
        <pt x="240" y="410" on="1"/>
        <pt x="225" y="160" on="1"/>
        <pt x="220" y="73" on="0"/>
        <pt x="143" y="-10" on="0"/>
        <pt x="75" y="-10" on="1"/>
        <pt x="61" y="-10" on="0"/>
        <pt x="37" y="-6" on="0"/>
        <pt x="27" y="-3" on="1"/>
        <pt x="16" y="1" on="0"/>
        <pt x="5" y="5" on="1"/>
        <pt x="15" y="85" on="1"/>
        <pt x="25" y="85" on="1"/>
        <pt x="27" y="83" on="0"/>
        <pt x="31" y="82" on="1"/>
        <pt x="39" y="80" on="0"/>
      </contour>
    </TTGlyph>
    <TTGlyph name="afii10078" xMin="70" yMin="0" xMax="660" yMax="500">
      <contour>
        <pt x="210" y="0" on="1"/>
        <pt x="70" y="0" on="1"/>
        <pt x="70" y="500" on="1"/>
        <pt x="210" y="500" on="1"/>
        <pt x="345" y="250" on="1"/>
        <pt x="353" y="234" on="0"/>
        <pt x="358" y="217" on="1"/>
        <pt x="361" y="208" on="0"/>
        <pt x="363" y="200" on="1"/>
        <pt x="367" y="200" on="1"/>
        <pt x="369" y="208" on="0"/>
        <pt x="372" y="217" on="1"/>
        <pt x="374" y="225" on="0"/>
        <pt x="380" y="242" on="0"/>
        <pt x="385" y="250" on="1"/>
        <pt x="520" y="500" on="1"/>
        <pt x="660" y="500" on="1"/>
        <pt x="660" y="0" on="1"/>
        <pt x="520" y="0" on="1"/>
        <pt x="520" y="220" on="1"/>
        <pt x="520" y="231" on="0"/>
        <pt x="521" y="253" on="0"/>
        <pt x="522" y="261" on="1"/>
        <pt x="523" y="271" on="0"/>
        <pt x="524" y="280" on="1"/>
        <pt x="520" y="280" on="1"/>
        <pt x="517" y="271" on="0"/>
        <pt x="513" y="261" on="1"/>
        <pt x="510" y="253" on="0"/>
        <pt x="501" y="231" on="0"/>
        <pt x="495" y="220" on="1"/>
        <pt x="420" y="80" on="1"/>
        <pt x="310" y="80" on="1"/>
        <pt x="235" y="220" on="1"/>
        <pt x="222" y="244" on="0"/>
        <pt x="216" y="261" on="1"/>
        <pt x="212" y="271" on="0"/>
        <pt x="210" y="280" on="1"/>
        <pt x="206" y="280" on="1"/>
        <pt x="207" y="271" on="0"/>
        <pt x="208" y="261" on="1"/>
        <pt x="209" y="253" on="0"/>
        <pt x="210" y="231" on="0"/>
        <pt x="210" y="220" on="1"/>
      </contour>
    </TTGlyph>
    <TTGlyph name="afii10079" xMin="70" yMin="0" xMax="510" yMax="500">
      <contour>
        <pt x="510" y="0" on="1"/>
        <pt x="370" y="0" on="1"/>
        <pt x="370" y="210" on="1"/>
        <pt x="210" y="210" on="1"/>
        <pt x="210" y="0" on="1"/>
        <pt x="70" y="0" on="1"/>
        <pt x="70" y="500" on="1"/>
        <pt x="210" y="500" on="1"/>
        <pt x="210" y="300" on="1"/>
        <pt x="370" y="300" on="1"/>
        <pt x="370" y="500" on="1"/>
        <pt x="510" y="500" on="1"/>
      </contour>
    </TTGlyph>
    <TTGlyph name="afii10080" xMin="40" yMin="-10" xMax="500" yMax="510">
      <contour>
        <pt x="360" y="250" on="1"/>
        <pt x="360" y="299" on="0"/>
        <pt x="346" y="364" on="0"/>
        <pt x="322" y="403" on="0"/>
        <pt x="289" y="420" on="0"/>
        <pt x="270" y="420" on="1"/>
        <pt x="251" y="420" on="0"/>
        <pt x="218" y="403" on="0"/>
        <pt x="194" y="364" on="0"/>
        <pt x="180" y="299" on="0"/>
        <pt x="180" y="250" on="1"/>
        <pt x="180" y="201" on="0"/>
        <pt x="194" y="136" on="0"/>
        <pt x="218" y="97" on="0"/>
        <pt x="251" y="80" on="0"/>
        <pt x="270" y="80" on="1"/>
        <pt x="289" y="80" on="0"/>
        <pt x="322" y="97" on="0"/>
        <pt x="346" y="136" on="0"/>
        <pt x="360" y="201" on="0"/>
      </contour>
      <contour>
        <pt x="500" y="250" on="1"/>
        <pt x="500" y="118" on="0"/>
        <pt x="379" y="-10" on="0"/>
        <pt x="270" y="-10" on="1"/>
        <pt x="161" y="-10" on="0"/>
        <pt x="40" y="118" on="0"/>
        <pt x="40" y="250" on="1"/>
        <pt x="40" y="382" on="0"/>
        <pt x="161" y="510" on="0"/>
        <pt x="270" y="510" on="1"/>
        <pt x="379" y="510" on="0"/>
        <pt x="500" y="382" on="0"/>
      </contour>
    </TTGlyph>
    <TTGlyph name="afii10081" xMin="70" yMin="0" xMax="510" yMax="500">
      <contour>
        <pt x="510" y="0" on="1"/>
        <pt x="370" y="0" on="1"/>
        <pt x="370" y="410" on="1"/>
        <pt x="210" y="410" on="1"/>
        <pt x="210" y="0" on="1"/>
        <pt x="70" y="0" on="1"/>
        <pt x="70" y="500" on="1"/>
        <pt x="510" y="500" on="1"/>
      </contour>
    </TTGlyph>
    <TTGlyph name="afii10082" xMin="70" yMin="-200" xMax="520" yMax="510">
      <contour>
        <pt x="210" y="110" on="1"/>
        <pt x="220" y="101" on="0"/>
        <pt x="231" y="95" on="1"/>
        <pt x="241" y="89" on="0"/>
        <pt x="268" y="80" on="0"/>
        <pt x="285" y="80" on="1"/>
        <pt x="306" y="80" on="0"/>
        <pt x="340" y="97" on="0"/>
        <pt x="366" y="136" on="0"/>
        <pt x="380" y="201" on="0"/>
        <pt x="380" y="250" on="1"/>
        <pt x="380" y="297" on="0"/>
        <pt x="366" y="360" on="0"/>
        <pt x="343" y="399" on="0"/>
        <pt x="312" y="415" on="0"/>
        <pt x="295" y="415" on="1"/>
        <pt x="274" y="415" on="0"/>
        <pt x="243" y="396" on="0"/>
        <pt x="232" y="385" on="1"/>
        <pt x="220" y="372" on="0"/>
        <pt x="210" y="355" on="1"/>
      </contour>
      <contour>
        <pt x="70" y="500" on="1"/>
        <pt x="170" y="500" on="1"/>
        <pt x="180" y="440" on="1"/>
        <pt x="185" y="440" on="1"/>
        <pt x="199" y="459" on="0"/>
        <pt x="219" y="475" on="1"/>
        <pt x="236" y="488" on="0"/>
        <pt x="286" y="510" on="0"/>
        <pt x="320" y="510" on="1"/>
        <pt x="363" y="510" on="0"/>
        <pt x="436" y="478" on="0"/>
        <pt x="490" y="413" on="0"/>
        <pt x="520" y="316" on="0"/>
        <pt x="520" y="250" on="1"/>
        <pt x="520" y="184" on="0"/>
        <pt x="490" y="87" on="0"/>
        <pt x="434" y="22" on="0"/>
        <pt x="357" y="-10" on="0"/>
        <pt x="310" y="-10" on="1"/>
        <pt x="287" y="-10" on="0"/>
        <pt x="250" y="-1" on="0"/>
        <pt x="237" y="5" on="1"/>
        <pt x="221" y="11" on="0"/>
        <pt x="210" y="20" on="1"/>
        <pt x="210" y="-160" on="1"/>
        <pt x="170" y="-200" on="1"/>
        <pt x="70" y="-200" on="1"/>
      </contour>
    </TTGlyph>
    <TTGlyph name="afii10083" xMin="40" yMin="-10" xMax="455" yMax="510">
      <contour>
        <pt x="285" y="420" on="1"/>
        <pt x="261" y="420" on="0"/>
        <pt x="222" y="403" on="0"/>
        <pt x="195" y="364" on="0"/>
        <pt x="180" y="299" on="0"/>
        <pt x="180" y="250" on="1"/>
        <pt x="180" y="201" on="0"/>
        <pt x="195" y="136" on="0"/>
        <pt x="224" y="97" on="0"/>
        <pt x="267" y="80" on="0"/>
        <pt x="295" y="80" on="1"/>
        <pt x="319" y="80" on="0"/>
        <pt x="358" y="92" on="0"/>
        <pt x="372" y="100" on="1"/>
        <pt x="388" y="109" on="0"/>
        <pt x="400" y="120" on="1"/>
        <pt x="410" y="120" on="1"/>
        <pt x="455" y="40" on="1"/>
        <pt x="433" y="26" on="0"/>
        <pt x="407" y="15" on="1"/>
        <pt x="384" y="5" on="0"/>
        <pt x="323" y="-10" on="0"/>
        <pt x="285" y="-10" on="1"/>
        <pt x="164" y="-10" on="0"/>
        <pt x="40" y="118" on="0"/>
        <pt x="40" y="250" on="1"/>
        <pt x="40" y="382" on="0"/>
        <pt x="162" y="510" on="0"/>
        <pt x="275" y="510" on="1"/>
        <pt x="313" y="510" on="0"/>
        <pt x="374" y="494" on="0"/>
        <pt x="397" y="485" on="1"/>
        <pt x="423" y="474" on="0"/>
        <pt x="445" y="460" on="1"/>
        <pt x="400" y="380" on="1"/>
        <pt x="390" y="380" on="1"/>
        <pt x="378" y="391" on="0"/>
        <pt x="362" y="400" on="1"/>
        <pt x="348" y="408" on="0"/>
        <pt x="309" y="420" on="0"/>
      </contour>
    </TTGlyph>
    <TTGlyph name="afii10084" xMin="10" yMin="0" xMax="440" yMax="500">
      <contour>
        <pt x="440" y="410" on="1"/>
        <pt x="295" y="410" on="1"/>
        <pt x="295" y="0" on="1"/>
        <pt x="155" y="0" on="1"/>
        <pt x="155" y="410" on="1"/>
        <pt x="10" y="410" on="1"/>
        <pt x="10" y="500" on="1"/>
        <pt x="440" y="500" on="1"/>
      </contour>
    </TTGlyph>
    <TTGlyph name="afii10085" xMin="10" yMin="-210" xMax="495" yMax="500">
      <contour>
        <pt x="355" y="500" on="1"/>
        <pt x="495" y="500" on="1"/>
        <pt x="330" y="-50" on="1"/>
        <pt x="307" y="-125" on="0"/>
        <pt x="217" y="-210" on="0"/>
        <pt x="145" y="-210" on="1"/>
        <pt x="122" y="-210" on="0"/>
        <pt x="82" y="-201" on="0"/>
        <pt x="67" y="-195" on="1"/>
        <pt x="49" y="-189" on="0"/>
        <pt x="35" y="-180" on="1"/>
        <pt x="70" y="-95" on="1"/>
        <pt x="80" y="-95" on="1"/>
        <pt x="87" y="-103" on="0"/>
        <pt x="96" y="-108" on="1"/>
        <pt x="104" y="-113" on="0"/>
        <pt x="124" y="-120" on="0"/>
        <pt x="135" y="-120" on="1"/>
        <pt x="182" y="-120" on="0"/>
        <pt x="201" y="-50" on="1"/>
        <pt x="215" y="0" on="1"/>
        <pt x="175" y="0" on="1"/>
        <pt x="10" y="500" on="1"/>
        <pt x="150" y="500" on="1"/>
        <pt x="250" y="175" on="1"/>
        <pt x="252" y="167" on="0"/>
        <pt x="255" y="148" on="0"/>
        <pt x="256" y="140" on="1"/>
        <pt x="257" y="130" on="0"/>
        <pt x="258" y="120" on="1"/>
        <pt x="262" y="120" on="1"/>
        <pt x="263" y="130" on="0"/>
        <pt x="264" y="140" on="1"/>
        <pt x="265" y="148" on="0"/>
        <pt x="268" y="167" on="0"/>
        <pt x="270" y="175" on="1"/>
      </contour>
    </TTGlyph>
    <TTGlyph name="afii10086" xMin="40" yMin="-200" xMax="670" yMax="700">
      <contour>
        <pt x="285" y="-10" on="1"/>
        <pt x="164" y="-6" on="0"/>
        <pt x="40" y="122" on="0"/>
        <pt x="40" y="250" on="1"/>
        <pt x="40" y="378" on="0"/>
        <pt x="164" y="506" on="0"/>
        <pt x="285" y="510" on="1"/>
        <pt x="285" y="660" on="1"/>
        <pt x="325" y="700" on="1"/>
        <pt x="425" y="700" on="1"/>
        <pt x="425" y="510" on="1"/>
        <pt x="546" y="506" on="0"/>
        <pt x="670" y="378" on="0"/>
        <pt x="670" y="250" on="1"/>
        <pt x="670" y="122" on="0"/>
        <pt x="546" y="-6" on="0"/>
        <pt x="425" y="-10" on="1"/>
        <pt x="425" y="-200" on="1"/>
        <pt x="285" y="-200" on="1"/>
      </contour>
      <contour>
        <pt x="425" y="80" on="1"/>
        <pt x="449" y="82" on="0"/>
        <pt x="488" y="100" on="0"/>
        <pt x="515" y="140" on="0"/>
        <pt x="530" y="203" on="0"/>
        <pt x="530" y="250" on="1"/>
        <pt x="530" y="297" on="0"/>
        <pt x="515" y="360" on="0"/>
        <pt x="488" y="400" on="0"/>
        <pt x="449" y="418" on="0"/>
        <pt x="425" y="420" on="1"/>
      </contour>
      <contour>
        <pt x="285" y="420" on="1"/>
        <pt x="261" y="418" on="0"/>
        <pt x="222" y="400" on="0"/>
        <pt x="195" y="360" on="0"/>
        <pt x="180" y="297" on="0"/>
        <pt x="180" y="250" on="1"/>
        <pt x="180" y="203" on="0"/>
        <pt x="195" y="140" on="0"/>
        <pt x="222" y="100" on="0"/>
        <pt x="261" y="82" on="0"/>
        <pt x="285" y="80" on="1"/>
      </contour>
    </TTGlyph>
    <TTGlyph name="afii10087" xMin="10" yMin="0" xMax="480" yMax="500">
      <contour>
        <pt x="155" y="0" on="1"/>
        <pt x="10" y="0" on="1"/>
        <pt x="160" y="255" on="1"/>
        <pt x="15" y="500" on="1"/>
        <pt x="160" y="500" on="1"/>
        <pt x="230" y="370" on="1"/>
        <pt x="234" y="362" on="0"/>
        <pt x="239" y="347" on="0"/>
        <pt x="241" y="342" on="1"/>
        <pt x="243" y="335" on="0"/>
        <pt x="243" y="330" on="1"/>
        <pt x="247" y="330" on="1"/>
        <pt x="247" y="335" on="0"/>
        <pt x="249" y="342" on="1"/>
        <pt x="251" y="347" on="0"/>
        <pt x="255" y="362" on="0"/>
        <pt x="260" y="370" on="1"/>
        <pt x="330" y="500" on="1"/>
        <pt x="475" y="500" on="1"/>
        <pt x="330" y="255" on="1"/>
        <pt x="480" y="0" on="1"/>
        <pt x="335" y="0" on="1"/>
        <pt x="260" y="135" on="1"/>
        <pt x="255" y="143" on="0"/>
        <pt x="251" y="156" on="0"/>
        <pt x="249" y="162" on="1"/>
        <pt x="247" y="168" on="0"/>
        <pt x="247" y="175" on="1"/>
        <pt x="243" y="175" on="1"/>
        <pt x="243" y="168" on="0"/>
        <pt x="241" y="162" on="1"/>
        <pt x="238" y="152" on="0"/>
        <pt x="230" y="135" on="1"/>
      </contour>
    </TTGlyph>
    <TTGlyph name="afii10088" xMin="70" yMin="-140" xMax="565" yMax="500">
      <contour>
        <pt x="70" y="0" on="1"/>
        <pt x="70" y="500" on="1"/>
        <pt x="210" y="500" on="1"/>
        <pt x="210" y="90" on="1"/>
        <pt x="360" y="90" on="1"/>
        <pt x="360" y="500" on="1"/>
        <pt x="500" y="500" on="1"/>
        <pt x="500" y="90" on="1"/>
        <pt x="565" y="90" on="1"/>
        <pt x="565" y="-140" on="1"/>
        <pt x="460" y="-140" on="1"/>
        <pt x="440" y="0" on="1"/>
      </contour>
    </TTGlyph>
    <TTGlyph name="afii10089" xMin="50" yMin="0" xMax="480" yMax="500">
      <contour>
        <pt x="245" y="160" on="1"/>
        <pt x="147" y="160" on="0"/>
        <pt x="50" y="252" on="0"/>
        <pt x="50" y="335" on="1"/>
        <pt x="50" y="500" on="1"/>
        <pt x="190" y="500" on="1"/>
        <pt x="190" y="335" on="1"/>
        <pt x="190" y="293" on="0"/>
        <pt x="232" y="250" on="0"/>
        <pt x="270" y="250" on="1"/>
        <pt x="287" y="250" on="0"/>
        <pt x="313" y="254" on="0"/>
        <pt x="322" y="257" on="1"/>
        <pt x="333" y="261" on="0"/>
        <pt x="340" y="265" on="1"/>
        <pt x="340" y="500" on="1"/>
        <pt x="480" y="500" on="1"/>
        <pt x="480" y="0" on="1"/>
        <pt x="340" y="0" on="1"/>
        <pt x="340" y="175" on="1"/>
        <pt x="331" y="171" on="0"/>
        <pt x="317" y="167" on="1"/>
        <pt x="305" y="164" on="0"/>
        <pt x="269" y="160" on="0"/>
      </contour>
    </TTGlyph>
    <TTGlyph name="afii10090" xMin="70" yMin="0" xMax="750" yMax="500">
      <contour>
        <pt x="750" y="0" on="1"/>
        <pt x="70" y="0" on="1"/>
        <pt x="70" y="500" on="1"/>
        <pt x="210" y="500" on="1"/>
        <pt x="210" y="90" on="1"/>
        <pt x="340" y="90" on="1"/>
        <pt x="340" y="500" on="1"/>
        <pt x="480" y="500" on="1"/>
        <pt x="480" y="90" on="1"/>
        <pt x="610" y="90" on="1"/>
        <pt x="610" y="500" on="1"/>
        <pt x="750" y="500" on="1"/>
      </contour>
    </TTGlyph>
    <TTGlyph name="afii10091" xMin="70" yMin="-140" xMax="815" yMax="500">
      <contour>
        <pt x="70" y="0" on="1"/>
        <pt x="70" y="500" on="1"/>
        <pt x="210" y="500" on="1"/>
        <pt x="210" y="90" on="1"/>
        <pt x="340" y="90" on="1"/>
        <pt x="340" y="500" on="1"/>
        <pt x="480" y="500" on="1"/>
        <pt x="480" y="90" on="1"/>
        <pt x="610" y="90" on="1"/>
        <pt x="610" y="500" on="1"/>
        <pt x="750" y="500" on="1"/>
        <pt x="750" y="90" on="1"/>
        <pt x="815" y="90" on="1"/>
        <pt x="815" y="-140" on="1"/>
        <pt x="710" y="-140" on="1"/>
        <pt x="690" y="0" on="1"/>
      </contour>
    </TTGlyph>
    <TTGlyph name="afii10092" xMin="10" yMin="0" xMax="560" yMax="500">
      <contour>
        <pt x="335" y="340" on="1"/>
        <pt x="397" y="340" on="0"/>
        <pt x="483" y="318" on="0"/>
        <pt x="536" y="275" on="0"/>
        <pt x="560" y="211" on="0"/>
        <pt x="560" y="170" on="1"/>
        <pt x="560" y="93" on="0"/>
        <pt x="473" y="7" on="0"/>
        <pt x="370" y="1" on="1"/>
        <pt x="362" y="0" on="0"/>
        <pt x="348" y="0" on="0"/>
        <pt x="340" y="0" on="1"/>
        <pt x="335" y="0" on="1"/>
        <pt x="130" y="0" on="1"/>
        <pt x="130" y="410" on="1"/>
        <pt x="10" y="410" on="1"/>
        <pt x="10" y="500" on="1"/>
        <pt x="270" y="500" on="1"/>
        <pt x="270" y="340" on="1"/>
      </contour>
      <contour>
        <pt x="270" y="250" on="1"/>
        <pt x="270" y="90" on="1"/>
        <pt x="335" y="90" on="1"/>
        <pt x="377" y="90" on="0"/>
        <pt x="420" y="132" on="0"/>
        <pt x="420" y="170" on="1"/>
        <pt x="420" y="208" on="0"/>
        <pt x="377" y="250" on="0"/>
        <pt x="335" y="250" on="1"/>
      </contour>
    </TTGlyph>
    <TTGlyph name="afii10093" xMin="70" yMin="0" xMax="705" yMax="500">
      <contour>
        <pt x="705" y="0" on="1"/>
        <pt x="565" y="0" on="1"/>
        <pt x="565" y="500" on="1"/>
        <pt x="705" y="500" on="1"/>
      </contour>
      <contour>
        <pt x="265" y="340" on="1"/>
        <pt x="327" y="340" on="0"/>
        <pt x="413" y="318" on="0"/>
        <pt x="466" y="275" on="0"/>
        <pt x="490" y="211" on="0"/>
        <pt x="490" y="170" on="1"/>
        <pt x="490" y="129" on="0"/>
        <pt x="466" y="65" on="0"/>
        <pt x="413" y="22" on="0"/>
        <pt x="327" y="0" on="0"/>
        <pt x="265" y="0" on="1"/>
        <pt x="70" y="0" on="1"/>
        <pt x="70" y="500" on="1"/>
        <pt x="210" y="500" on="1"/>
        <pt x="210" y="340" on="1"/>
      </contour>
      <contour>
        <pt x="210" y="250" on="1"/>
        <pt x="210" y="90" on="1"/>
        <pt x="265" y="90" on="1"/>
        <pt x="307" y="90" on="0"/>
        <pt x="350" y="132" on="0"/>
        <pt x="350" y="170" on="1"/>
        <pt x="350" y="208" on="0"/>
        <pt x="307" y="250" on="0"/>
        <pt x="265" y="250" on="1"/>
      </contour>
    </TTGlyph>
    <TTGlyph name="afii10094" xMin="70" yMin="0" xMax="500" yMax="500">
      <contour>
        <pt x="275" y="340" on="1"/>
        <pt x="337" y="340" on="0"/>
        <pt x="423" y="318" on="0"/>
        <pt x="476" y="275" on="0"/>
        <pt x="500" y="211" on="0"/>
        <pt x="500" y="170" on="1"/>
        <pt x="500" y="129" on="0"/>
        <pt x="476" y="65" on="0"/>
        <pt x="423" y="22" on="0"/>
        <pt x="337" y="0" on="0"/>
        <pt x="275" y="0" on="1"/>
        <pt x="70" y="0" on="1"/>
        <pt x="70" y="500" on="1"/>
        <pt x="210" y="500" on="1"/>
        <pt x="210" y="340" on="1"/>
      </contour>
      <contour>
        <pt x="210" y="250" on="1"/>
        <pt x="210" y="90" on="1"/>
        <pt x="275" y="90" on="1"/>
        <pt x="317" y="90" on="0"/>
        <pt x="360" y="132" on="0"/>
        <pt x="360" y="170" on="1"/>
        <pt x="360" y="208" on="0"/>
        <pt x="317" y="250" on="0"/>
        <pt x="275" y="250" on="1"/>
      </contour>
    </TTGlyph>
    <TTGlyph name="afii10095" xMin="20" yMin="-10" xMax="435" yMax="510">
      <contour>
        <pt x="120" y="300" on="1"/>
        <pt x="290" y="300" on="1"/>
        <pt x="282" y="368" on="0"/>
        <pt x="232" y="420" on="0"/>
        <pt x="190" y="420" on="1"/>
        <pt x="165" y="420" on="0"/>
        <pt x="127" y="408" on="0"/>
        <pt x="113" y="400" on="1"/>
        <pt x="97" y="391" on="0"/>
        <pt x="85" y="380" on="1"/>
        <pt x="75" y="380" on="1"/>
        <pt x="30" y="460" on="1"/>
        <pt x="51" y="474" on="0"/>
        <pt x="77" y="485" on="1"/>
        <pt x="100" y="494" on="0"/>
        <pt x="162" y="510" on="0"/>
        <pt x="200" y="510" on="1"/>
        <pt x="313" y="510" on="0"/>
        <pt x="435" y="382" on="0"/>
        <pt x="435" y="250" on="1"/>
        <pt x="435" y="118" on="0"/>
        <pt x="311" y="-10" on="0"/>
        <pt x="190" y="-10" on="1"/>
        <pt x="152" y="-10" on="0"/>
        <pt x="90" y="5" on="0"/>
        <pt x="67" y="15" on="1"/>
        <pt x="41" y="26" on="0"/>
        <pt x="20" y="40" on="1"/>
        <pt x="65" y="120" on="1"/>
        <pt x="75" y="120" on="1"/>
        <pt x="87" y="109" on="0"/>
        <pt x="103" y="100" on="1"/>
        <pt x="117" y="92" on="0"/>
        <pt x="155" y="80" on="0"/>
        <pt x="180" y="80" on="1"/>
        <pt x="229" y="80" on="0"/>
        <pt x="287" y="135" on="0"/>
        <pt x="295" y="210" on="1"/>
        <pt x="120" y="210" on="1"/>
      </contour>
    </TTGlyph>
    <TTGlyph name="afii10096" xMin="70" yMin="-10" xMax="710" yMax="510">
      <contour>
        <pt x="490" y="80" on="1"/>
        <pt x="507" y="80" on="0"/>
        <pt x="536" y="95" on="0"/>
        <pt x="558" y="134" on="0"/>
        <pt x="570" y="199" on="0"/>
        <pt x="570" y="250" on="1"/>
        <pt x="570" y="301" on="0"/>
        <pt x="558" y="366" on="0"/>
        <pt x="536" y="405" on="0"/>
        <pt x="507" y="420" on="0"/>
        <pt x="490" y="420" on="1"/>
        <pt x="473" y="420" on="0"/>
        <pt x="444" y="405" on="0"/>
        <pt x="422" y="366" on="0"/>
        <pt x="410" y="301" on="0"/>
        <pt x="410" y="250" on="1"/>
        <pt x="410" y="199" on="0"/>
        <pt x="422" y="134" on="0"/>
        <pt x="444" y="95" on="0"/>
        <pt x="473" y="80" on="0"/>
      </contour>
      <contour>
        <pt x="490" y="-10" on="1"/>
        <pt x="389" y="-10" on="0"/>
        <pt x="281" y="109" on="0"/>
        <pt x="270" y="210" on="1"/>
        <pt x="210" y="210" on="1"/>
        <pt x="210" y="0" on="1"/>
        <pt x="70" y="0" on="1"/>
        <pt x="70" y="500" on="1"/>
        <pt x="210" y="500" on="1"/>
        <pt x="210" y="300" on="1"/>
        <pt x="270" y="300" on="1"/>
        <pt x="281" y="397" on="0"/>
        <pt x="389" y="510" on="0"/>
        <pt x="490" y="510" on="1"/>
        <pt x="591" y="510" on="0"/>
        <pt x="710" y="381" on="0"/>
        <pt x="710" y="250" on="1"/>
        <pt x="710" y="119" on="0"/>
        <pt x="591" y="-10" on="0"/>
      </contour>
    </TTGlyph>
    <TTGlyph name="afii10097" xMin="25" yMin="-10" xMax="475" yMax="500">
      <contour>
        <pt x="335" y="270" on="1"/>
        <pt x="335" y="410" on="1"/>
        <pt x="275" y="410" on="1"/>
        <pt x="195" y="410" on="0"/>
        <pt x="195" y="340" on="1"/>
        <pt x="195" y="270" on="0"/>
        <pt x="275" y="270" on="1"/>
      </contour>
      <contour>
        <pt x="185" y="215" on="1"/>
        <pt x="148" y="221" on="0"/>
        <pt x="120" y="237" on="1"/>
        <pt x="95" y="251" on="0"/>
        <pt x="55" y="301" on="0"/>
        <pt x="55" y="345" on="1"/>
        <pt x="55" y="379" on="0"/>
        <pt x="80" y="436" on="0"/>
        <pt x="134" y="477" on="0"/>
        <pt x="217" y="500" on="0"/>
        <pt x="275" y="500" on="1"/>
        <pt x="475" y="500" on="1"/>
        <pt x="475" y="0" on="1"/>
        <pt x="335" y="0" on="1"/>
        <pt x="335" y="180" on="1"/>
        <pt x="290" y="180" on="1"/>
        <pt x="251" y="180" on="0"/>
        <pt x="240" y="140" on="1"/>
        <pt x="220" y="70" on="1"/>
        <pt x="210" y="36" on="0"/>
        <pt x="158" y="-10" on="0"/>
        <pt x="105" y="-10" on="1"/>
        <pt x="88" y="-10" on="0"/>
        <pt x="59" y="-6" on="0"/>
        <pt x="48" y="-3" on="1"/>
        <pt x="36" y="1" on="0"/>
        <pt x="25" y="5" on="1"/>
        <pt x="40" y="85" on="1"/>
        <pt x="45" y="85" on="1"/>
        <pt x="47" y="83" on="0"/>
        <pt x="51" y="82" on="1"/>
        <pt x="59" y="80" on="0"/>
        <pt x="65" y="80" on="1"/>
        <pt x="73" y="80" on="0"/>
        <pt x="87" y="94" on="0"/>
        <pt x="90" y="105" on="1"/>
        <pt x="105" y="160" on="1"/>
        <pt x="110" y="179" on="0"/>
        <pt x="136" y="200" on="0"/>
        <pt x="150" y="206" on="1"/>
        <pt x="166" y="212" on="0"/>
      </contour>
    </TTGlyph>
    <TTGlyph name="afii10098" xMin="70" yMin="0" xMax="420" yMax="600">
      <contour>
        <pt x="210" y="410" on="1"/>
        <pt x="210" y="0" on="1"/>
        <pt x="70" y="0" on="1"/>
        <pt x="70" y="500" on="1"/>
        <pt x="310" y="500" on="1"/>
        <pt x="325" y="600" on="1"/>
        <pt x="420" y="600" on="1"/>
        <pt x="420" y="410" on="1"/>
      </contour>
    </TTGlyph>
    <TTGlyph name="afii10099" xMin="25" yMin="-140" xMax="520" yMax="700">
      <contour>
        <pt x="325" y="-50" on="1"/>
        <pt x="348" y="-50" on="0"/>
        <pt x="380" y="-12" on="0"/>
        <pt x="380" y="30" on="1"/>
        <pt x="380" y="260" on="1"/>
        <pt x="380" y="309" on="0"/>
        <pt x="339" y="355" on="0"/>
        <pt x="305" y="355" on="1"/>
        <pt x="284" y="355" on="0"/>
        <pt x="253" y="336" on="0"/>
        <pt x="242" y="325" on="1"/>
        <pt x="230" y="312" on="0"/>
        <pt x="220" y="295" on="1"/>
        <pt x="220" y="0" on="1"/>
        <pt x="80" y="0" on="1"/>
        <pt x="80" y="500" on="1"/>
        <pt x="25" y="500" on="1"/>
        <pt x="25" y="590" on="1"/>
        <pt x="80" y="590" on="1"/>
        <pt x="80" y="660" on="1"/>
        <pt x="120" y="700" on="1"/>
        <pt x="220" y="700" on="1"/>
        <pt x="220" y="590" on="1"/>
        <pt x="345" y="590" on="1"/>
        <pt x="345" y="500" on="1"/>
        <pt x="220" y="500" on="1"/>
        <pt x="220" y="405" on="1"/>
        <pt x="232" y="417" on="0"/>
        <pt x="249" y="427" on="1"/>
        <pt x="263" y="435" on="0"/>
        <pt x="304" y="450" on="0"/>
        <pt x="330" y="450" on="1"/>
        <pt x="421" y="450" on="0"/>
        <pt x="520" y="351" on="0"/>
        <pt x="520" y="260" on="1"/>
        <pt x="520" y="30" on="1"/>
        <pt x="520" y="-8" on="0"/>
        <pt x="495" y="-70" on="0"/>
        <pt x="447" y="-115" on="0"/>
        <pt x="378" y="-140" on="0"/>
        <pt x="335" y="-140" on="1"/>
        <pt x="316" y="-140" on="0"/>
        <pt x="285" y="-134" on="0"/>
        <pt x="274" y="-130" on="1"/>
        <pt x="261" y="-126" on="0"/>
        <pt x="250" y="-120" on="1"/>
        <pt x="265" y="-40" on="1"/>
        <pt x="275" y="-40" on="1"/>
        <pt x="281" y="-43" on="0"/>
        <pt x="289" y="-45" on="1"/>
        <pt x="304" y="-50" on="0"/>
      </contour>
    </TTGlyph>
    <TTGlyph name="afii10100" xMin="70" yMin="0" xMax="420" yMax="700">
      <contour>
        <pt x="420" y="410" on="1"/>
        <pt x="210" y="410" on="1"/>
        <pt x="210" y="0" on="1"/>
        <pt x="70" y="0" on="1"/>
        <pt x="70" y="500" on="1"/>
        <pt x="420" y="500" on="1"/>
      </contour>
      <contour>
        <pt x="370" y="700" on="1"/>
        <pt x="270" y="550" on="1"/>
        <pt x="190" y="550" on="1"/>
        <pt x="235" y="700" on="1"/>
      </contour>
    </TTGlyph>
    <TTGlyph name="afii10101" xMin="40" yMin="-10" xMax="455" yMax="510">
      <contour>
        <pt x="355" y="210" on="1"/>
        <pt x="180" y="210" on="1"/>
        <pt x="188" y="135" on="0"/>
        <pt x="246" y="80" on="0"/>
        <pt x="295" y="80" on="1"/>
        <pt x="319" y="80" on="0"/>
        <pt x="358" y="92" on="0"/>
        <pt x="372" y="100" on="1"/>
        <pt x="388" y="109" on="0"/>
        <pt x="400" y="120" on="1"/>
        <pt x="410" y="120" on="1"/>
        <pt x="455" y="40" on="1"/>
        <pt x="433" y="26" on="0"/>
        <pt x="407" y="15" on="1"/>
        <pt x="384" y="5" on="0"/>
        <pt x="323" y="-10" on="0"/>
        <pt x="285" y="-10" on="1"/>
        <pt x="164" y="-10" on="0"/>
        <pt x="40" y="118" on="0"/>
        <pt x="40" y="250" on="1"/>
        <pt x="40" y="382" on="0"/>
        <pt x="162" y="510" on="0"/>
        <pt x="275" y="510" on="1"/>
        <pt x="313" y="510" on="0"/>
        <pt x="374" y="494" on="0"/>
        <pt x="397" y="485" on="1"/>
        <pt x="423" y="474" on="0"/>
        <pt x="445" y="460" on="1"/>
        <pt x="400" y="380" on="1"/>
        <pt x="390" y="380" on="1"/>
        <pt x="378" y="391" on="0"/>
        <pt x="362" y="400" on="1"/>
        <pt x="348" y="408" on="0"/>
        <pt x="309" y="420" on="0"/>
        <pt x="285" y="420" on="1"/>
        <pt x="243" y="420" on="0"/>
        <pt x="193" y="368" on="0"/>
        <pt x="185" y="300" on="1"/>
        <pt x="355" y="300" on="1"/>
      </contour>
    </TTGlyph>
    <TTGlyph name="afii10102" xMin="30" yMin="-10" xMax="455" yMax="510">
      <contour>
        <pt x="250" y="510" on="1"/>
        <pt x="292" y="510" on="0"/>
        <pt x="360" y="494" on="0"/>
        <pt x="386" y="485" on="1"/>
        <pt x="416" y="474" on="0"/>
        <pt x="440" y="460" on="1"/>
        <pt x="395" y="380" on="1"/>
        <pt x="385" y="380" on="1"/>
        <pt x="370" y="391" on="0"/>
        <pt x="351" y="400" on="1"/>
        <pt x="334" y="408" on="0"/>
        <pt x="288" y="420" on="0"/>
        <pt x="260" y="420" on="1"/>
        <pt x="218" y="420" on="0"/>
        <pt x="180" y="389" on="0"/>
        <pt x="180" y="370" on="1"/>
        <pt x="180" y="349" on="0"/>
        <pt x="221" y="323" on="0"/>
        <pt x="282" y="301" on="0"/>
        <pt x="353" y="279" on="0"/>
        <pt x="414" y="243" on="0"/>
        <pt x="455" y="188" on="0"/>
        <pt x="455" y="146" on="1"/>
        <pt x="455" y="112" on="0"/>
        <pt x="430" y="55" on="0"/>
        <pt x="376" y="13" on="0"/>
        <pt x="293" y="-10" on="0"/>
        <pt x="235" y="-10" on="1"/>
        <pt x="190" y="-10" on="0"/>
        <pt x="114" y="5" on="0"/>
        <pt x="87" y="15" on="1"/>
        <pt x="55" y="26" on="0"/>
        <pt x="30" y="40" on="1"/>
        <pt x="75" y="120" on="1"/>
        <pt x="85" y="120" on="1"/>
        <pt x="101" y="109" on="0"/>
        <pt x="121" y="100" on="1"/>
        <pt x="138" y="92" on="0"/>
        <pt x="188" y="80" on="0"/>
        <pt x="220" y="80" on="1"/>
        <pt x="273" y="80" on="0"/>
        <pt x="315" y="113" on="0"/>
        <pt x="315" y="136" on="1"/>
        <pt x="315" y="157" on="0"/>
        <pt x="274" y="183" on="0"/>
        <pt x="213" y="205" on="0"/>
        <pt x="142" y="227" on="0"/>
        <pt x="81" y="263" on="0"/>
        <pt x="40" y="317" on="0"/>
        <pt x="40" y="360" on="1"/>
        <pt x="40" y="392" on="0"/>
        <pt x="65" y="447" on="0"/>
        <pt x="116" y="487" on="0"/>
        <pt x="196" y="510" on="0"/>
      </contour>
    </TTGlyph>
    <TTGlyph name="afii10103" xMin="65" yMin="0" xMax="215" yMax="715">
      <contour>
        <pt x="210" y="500" on="1"/>
        <pt x="210" y="0" on="1"/>
        <pt x="70" y="0" on="1"/>
        <pt x="70" y="500" on="1"/>
      </contour>
      <contour>
        <pt x="140" y="715" on="1"/>
        <pt x="170" y="715" on="0"/>
        <pt x="215" y="670" on="0"/>
        <pt x="215" y="640" on="1"/>
        <pt x="215" y="610" on="0"/>
        <pt x="170" y="565" on="0"/>
        <pt x="140" y="565" on="1"/>
        <pt x="110" y="565" on="0"/>
        <pt x="65" y="610" on="0"/>
        <pt x="65" y="640" on="1"/>
        <pt x="65" y="670" on="0"/>
        <pt x="110" y="715" on="0"/>
      </contour>
    </TTGlyph>
    <TTGlyph name="afii10104" xMin="-25" yMin="0" xMax="325" yMax="715">
      <contour>
        <pt x="220" y="500" on="1"/>
        <pt x="220" y="0" on="1"/>
        <pt x="80" y="0" on="1"/>
        <pt x="80" y="500" on="1"/>
      </contour>
      <contour>
        <pt x="50" y="715" on="1"/>
        <pt x="80" y="715" on="0"/>
        <pt x="125" y="670" on="0"/>
        <pt x="125" y="640" on="1"/>
        <pt x="125" y="610" on="0"/>
        <pt x="80" y="565" on="0"/>
        <pt x="50" y="565" on="1"/>
        <pt x="20" y="565" on="0"/>
        <pt x="-25" y="610" on="0"/>
        <pt x="-25" y="640" on="1"/>
        <pt x="-25" y="670" on="0"/>
        <pt x="20" y="715" on="0"/>
      </contour>
      <contour>
        <pt x="250" y="715" on="1"/>
        <pt x="280" y="715" on="0"/>
        <pt x="325" y="670" on="0"/>
        <pt x="325" y="640" on="1"/>
        <pt x="325" y="610" on="0"/>
        <pt x="280" y="565" on="0"/>
        <pt x="250" y="565" on="1"/>
        <pt x="220" y="565" on="0"/>
        <pt x="175" y="610" on="0"/>
        <pt x="175" y="640" on="1"/>
        <pt x="175" y="670" on="0"/>
        <pt x="220" y="715" on="0"/>
      </contour>
      <contour>
        <pt x="220" y="500" on="1"/>
        <pt x="220" y="0" on="1"/>
        <pt x="80" y="0" on="1"/>
        <pt x="80" y="500" on="1"/>
      </contour>
    </TTGlyph>
    <TTGlyph name="afii10105" xMin="-75" yMin="-200" xMax="235" yMax="715">
      <contour>
        <pt x="25" y="-110" on="1"/>
        <pt x="55" y="-110" on="0"/>
        <pt x="90" y="-72" on="0"/>
        <pt x="90" y="-30" on="1"/>
        <pt x="90" y="500" on="1"/>
        <pt x="230" y="500" on="1"/>
        <pt x="230" y="-30" on="1"/>
        <pt x="230" y="-105" on="0"/>
        <pt x="129" y="-200" on="0"/>
        <pt x="35" y="-200" on="1"/>
        <pt x="12" y="-200" on="0"/>
        <pt x="-28" y="-191" on="0"/>
        <pt x="-43" y="-185" on="1"/>
        <pt x="-61" y="-179" on="0"/>
        <pt x="-75" y="-170" on="1"/>
        <pt x="-40" y="-85" on="1"/>
        <pt x="-30" y="-85" on="1"/>
        <pt x="-23" y="-93" on="0"/>
        <pt x="-14" y="-98" on="1"/>
        <pt x="-6" y="-103" on="0"/>
        <pt x="14" y="-110" on="0"/>
      </contour>
      <contour>
        <pt x="160" y="715" on="1"/>
        <pt x="190" y="715" on="0"/>
        <pt x="235" y="670" on="0"/>
        <pt x="235" y="640" on="1"/>
        <pt x="235" y="610" on="0"/>
        <pt x="190" y="565" on="0"/>
        <pt x="160" y="565" on="1"/>
        <pt x="130" y="565" on="0"/>
        <pt x="85" y="610" on="0"/>
        <pt x="85" y="640" on="1"/>
        <pt x="85" y="670" on="0"/>
        <pt x="130" y="715" on="0"/>
      </contour>
    </TTGlyph>
    <TTGlyph name="afii10106" xMin="5" yMin="-10" xMax="780" yMax="500">
      <contour>
        <pt x="555" y="340" on="1"/>
        <pt x="617" y="340" on="0"/>
        <pt x="703" y="318" on="0"/>
        <pt x="756" y="275" on="0"/>
        <pt x="780" y="211" on="0"/>
        <pt x="780" y="170" on="1"/>
        <pt x="780" y="129" on="0"/>
        <pt x="756" y="65" on="0"/>
        <pt x="703" y="22" on="0"/>
        <pt x="617" y="0" on="0"/>
        <pt x="555" y="0" on="1"/>
        <pt x="350" y="0" on="1"/>
        <pt x="350" y="410" on="1"/>
        <pt x="240" y="410" on="1"/>
        <pt x="225" y="160" on="1"/>
        <pt x="220" y="73" on="0"/>
        <pt x="143" y="-10" on="0"/>
        <pt x="75" y="-10" on="1"/>
        <pt x="61" y="-10" on="0"/>
        <pt x="37" y="-6" on="0"/>
        <pt x="27" y="-3" on="1"/>
        <pt x="16" y="1" on="0"/>
        <pt x="5" y="5" on="1"/>
        <pt x="15" y="85" on="1"/>
        <pt x="25" y="85" on="1"/>
        <pt x="27" y="83" on="0"/>
        <pt x="31" y="82" on="1"/>
        <pt x="39" y="80" on="0"/>
        <pt x="45" y="80" on="1"/>
        <pt x="60" y="80" on="0"/>
        <pt x="87" y="115" on="0"/>
        <pt x="90" y="160" on="1"/>
        <pt x="110" y="500" on="1"/>
        <pt x="490" y="500" on="1"/>
        <pt x="490" y="340" on="1"/>
      </contour>
      <contour>
        <pt x="490" y="250" on="1"/>
        <pt x="490" y="90" on="1"/>
        <pt x="555" y="90" on="1"/>
        <pt x="597" y="90" on="0"/>
        <pt x="640" y="132" on="0"/>
        <pt x="640" y="170" on="1"/>
        <pt x="640" y="208" on="0"/>
        <pt x="597" y="250" on="0"/>
        <pt x="555" y="250" on="1"/>
      </contour>
    </TTGlyph>
    <TTGlyph name="afii10107" xMin="70" yMin="0" xMax="790" yMax="500">
      <contour>
        <pt x="565" y="320" on="1"/>
        <pt x="627" y="320" on="0"/>
        <pt x="713" y="298" on="0"/>
        <pt x="766" y="257" on="0"/>
        <pt x="790" y="197" on="0"/>
        <pt x="790" y="160" on="1"/>
        <pt x="790" y="122" on="0"/>
        <pt x="766" y="63" on="0"/>
        <pt x="713" y="22" on="0"/>
        <pt x="627" y="0" on="0"/>
        <pt x="565" y="0" on="1"/>
        <pt x="360" y="0" on="1"/>
        <pt x="360" y="230" on="1"/>
        <pt x="210" y="230" on="1"/>
        <pt x="210" y="0" on="1"/>
        <pt x="70" y="0" on="1"/>
        <pt x="70" y="500" on="1"/>
        <pt x="210" y="500" on="1"/>
        <pt x="210" y="320" on="1"/>
        <pt x="360" y="320" on="1"/>
        <pt x="360" y="500" on="1"/>
        <pt x="500" y="500" on="1"/>
        <pt x="500" y="320" on="1"/>
      </contour>
      <contour>
        <pt x="500" y="230" on="1"/>
        <pt x="500" y="90" on="1"/>
        <pt x="565" y="90" on="1"/>
        <pt x="607" y="90" on="0"/>
        <pt x="650" y="130" on="0"/>
        <pt x="650" y="160" on="1"/>
        <pt x="650" y="190" on="0"/>
        <pt x="607" y="230" on="0"/>
        <pt x="565" y="230" on="1"/>
      </contour>
    </TTGlyph>
    <TTGlyph name="afii10108" xMin="25" yMin="0" xMax="520" yMax="700">
      <contour>
        <pt x="25" y="590" on="1"/>
        <pt x="80" y="590" on="1"/>
        <pt x="80" y="660" on="1"/>
        <pt x="120" y="700" on="1"/>
        <pt x="220" y="700" on="1"/>
        <pt x="220" y="590" on="1"/>
        <pt x="345" y="590" on="1"/>
        <pt x="345" y="500" on="1"/>
        <pt x="220" y="500" on="1"/>
        <pt x="220" y="405" on="1"/>
        <pt x="232" y="417" on="0"/>
        <pt x="249" y="427" on="1"/>
        <pt x="263" y="435" on="0"/>
        <pt x="304" y="450" on="0"/>
        <pt x="330" y="450" on="1"/>
        <pt x="421" y="450" on="0"/>
        <pt x="520" y="351" on="0"/>
        <pt x="520" y="260" on="1"/>
        <pt x="520" y="0" on="1"/>
        <pt x="380" y="0" on="1"/>
        <pt x="380" y="260" on="1"/>
        <pt x="380" y="309" on="0"/>
        <pt x="339" y="355" on="0"/>
        <pt x="305" y="355" on="1"/>
        <pt x="284" y="355" on="0"/>
        <pt x="253" y="336" on="0"/>
        <pt x="242" y="325" on="1"/>
        <pt x="230" y="312" on="0"/>
        <pt x="220" y="295" on="1"/>
        <pt x="220" y="0" on="1"/>
        <pt x="80" y="0" on="1"/>
        <pt x="80" y="500" on="1"/>
        <pt x="25" y="500" on="1"/>
      </contour>
    </TTGlyph>
    <TTGlyph name="afii10109" xMin="70" yMin="-10" xMax="520" yMax="690">
      <contour>
        <pt x="400" y="690" on="1"/>
        <pt x="300" y="540" on="1"/>
        <pt x="220" y="540" on="1"/>
        <pt x="265" y="690" on="1"/>
      </contour>
      <contour>
        <pt x="425" y="325" on="1"/>
        <pt x="419" y="304" on="0"/>
        <pt x="393" y="279" on="0"/>
        <pt x="379" y="272" on="1"/>
        <pt x="363" y="264" on="0"/>
        <pt x="345" y="260" on="1"/>
        <pt x="366" y="257" on="0"/>
        <pt x="384" y="247" on="1"/>
        <pt x="399" y="239" on="0"/>
        <pt x="429" y="209" on="0"/>
        <pt x="435" y="185" on="1"/>
        <pt x="455" y="105" on="1"/>
        <pt x="458" y="94" on="0"/>
        <pt x="472" y="80" on="0"/>
        <pt x="480" y="80" on="1"/>
        <pt x="486" y="80" on="0"/>
        <pt x="494" y="82" on="1"/>
        <pt x="498" y="83" on="0"/>
        <pt x="500" y="85" on="1"/>
        <pt x="505" y="85" on="1"/>
        <pt x="520" y="5" on="1"/>
        <pt x="509" y="1" on="0"/>
        <pt x="497" y="-3" on="1"/>
        <pt x="486" y="-6" on="0"/>
        <pt x="457" y="-10" on="0"/>
        <pt x="440" y="-10" on="1"/>
        <pt x="387" y="-10" on="0"/>
        <pt x="333" y="36" on="0"/>
        <pt x="325" y="70" on="1"/>
        <pt x="300" y="170" on="1"/>
        <pt x="295" y="189" on="0"/>
        <pt x="273" y="210" on="0"/>
        <pt x="250" y="210" on="1"/>
        <pt x="210" y="210" on="1"/>
        <pt x="210" y="0" on="1"/>
        <pt x="70" y="0" on="1"/>
        <pt x="70" y="500" on="1"/>
        <pt x="210" y="500" on="1"/>
        <pt x="210" y="300" on="1"/>
        <pt x="240" y="300" on="1"/>
        <pt x="263" y="300" on="0"/>
        <pt x="285" y="321" on="0"/>
        <pt x="290" y="340" on="1"/>
        <pt x="315" y="430" on="1"/>
        <pt x="324" y="464" on="0"/>
        <pt x="377" y="510" on="0"/>
        <pt x="430" y="510" on="1"/>
        <pt x="447" y="510" on="0"/>
        <pt x="476" y="505" on="0"/>
        <pt x="487" y="502" on="1"/>
        <pt x="499" y="498" on="0"/>
        <pt x="510" y="495" on="1"/>
        <pt x="495" y="415" on="1"/>
        <pt x="490" y="415" on="1"/>
        <pt x="488" y="416" on="0"/>
        <pt x="484" y="417" on="1"/>
        <pt x="481" y="418" on="0"/>
        <pt x="474" y="420" on="0"/>
        <pt x="470" y="420" on="1"/>
        <pt x="462" y="420" on="0"/>
        <pt x="448" y="406" on="0"/>
        <pt x="445" y="395" on="1"/>
      </contour>
    </TTGlyph>
    <TTGlyph name="afii10110" xMin="10" yMin="-210" xMax="495" yMax="675">
      <contour>
        <pt x="355" y="500" on="1"/>
        <pt x="495" y="500" on="1"/>
        <pt x="330" y="-50" on="1"/>
        <pt x="307" y="-125" on="0"/>
        <pt x="217" y="-210" on="0"/>
        <pt x="145" y="-210" on="1"/>
        <pt x="122" y="-210" on="0"/>
        <pt x="82" y="-201" on="0"/>
        <pt x="67" y="-195" on="1"/>
        <pt x="49" y="-189" on="0"/>
        <pt x="35" y="-180" on="1"/>
        <pt x="70" y="-95" on="1"/>
        <pt x="80" y="-95" on="1"/>
        <pt x="87" y="-103" on="0"/>
        <pt x="96" y="-108" on="1"/>
        <pt x="104" y="-113" on="0"/>
        <pt x="124" y="-120" on="0"/>
        <pt x="135" y="-120" on="1"/>
        <pt x="182" y="-120" on="0"/>
        <pt x="201" y="-50" on="1"/>
        <pt x="215" y="0" on="1"/>
        <pt x="175" y="0" on="1"/>
        <pt x="10" y="500" on="1"/>
        <pt x="150" y="500" on="1"/>
        <pt x="250" y="175" on="1"/>
        <pt x="252" y="167" on="0"/>
        <pt x="255" y="148" on="0"/>
        <pt x="256" y="140" on="1"/>
        <pt x="257" y="130" on="0"/>
        <pt x="258" y="120" on="1"/>
        <pt x="262" y="120" on="1"/>
        <pt x="263" y="130" on="0"/>
        <pt x="264" y="140" on="1"/>
        <pt x="265" y="148" on="0"/>
        <pt x="268" y="167" on="0"/>
        <pt x="270" y="175" on="1"/>
      </contour>
      <contour>
        <pt x="255" y="605" on="1"/>
        <pt x="278" y="605" on="0"/>
        <pt x="305" y="637" on="0"/>
        <pt x="305" y="675" on="1"/>
        <pt x="415" y="675" on="1"/>
        <pt x="415" y="607" on="0"/>
        <pt x="338" y="535" on="0"/>
        <pt x="255" y="535" on="1"/>
        <pt x="172" y="535" on="0"/>
        <pt x="95" y="607" on="0"/>
        <pt x="95" y="675" on="1"/>
        <pt x="205" y="675" on="1"/>
        <pt x="205" y="637" on="0"/>
        <pt x="232" y="605" on="0"/>
      </contour>
    </TTGlyph>
    <TTGlyph name="afii10145" xMin="85" yMin="-150" xMax="575" yMax="700">
      <contour>
        <pt x="85" y="0" on="1"/>
        <pt x="85" y="700" on="1"/>
        <pt x="225" y="700" on="1"/>
        <pt x="225" y="90" on="1"/>
        <pt x="435" y="90" on="1"/>
        <pt x="435" y="700" on="1"/>
        <pt x="575" y="700" on="1"/>
        <pt x="575" y="0" on="1"/>
        <pt x="395" y="0" on="1"/>
        <pt x="380" y="-150" on="1"/>
        <pt x="280" y="-150" on="1"/>
        <pt x="265" y="0" on="1"/>
      </contour>
    </TTGlyph>
    <TTGlyph name="afii10193" xMin="70" yMin="-140" xMax="510" yMax="500">
      <contour>
        <pt x="70" y="0" on="1"/>
        <pt x="70" y="500" on="1"/>
        <pt x="210" y="500" on="1"/>
        <pt x="210" y="90" on="1"/>
        <pt x="370" y="90" on="1"/>
        <pt x="370" y="500" on="1"/>
        <pt x="510" y="500" on="1"/>
        <pt x="510" y="0" on="1"/>
        <pt x="355" y="0" on="1"/>
        <pt x="340" y="-140" on="1"/>
        <pt x="240" y="-140" on="1"/>
        <pt x="225" y="0" on="1"/>
      </contour>
    </TTGlyph>
    <TTGlyph name="afii61352" xMin="85" yMin="0" xMax="980" yMax="710">
      <contour>
        <pt x="655" y="300" on="1"/>
        <pt x="955" y="300" on="1"/>
        <pt x="955" y="210" on="1"/>
        <pt x="655" y="210" on="1"/>
      </contour>
      <contour>
        <pt x="410" y="310" on="1"/>
        <pt x="415" y="299" on="0"/>
        <pt x="424" y="275" on="0"/>
        <pt x="428" y="266" on="1"/>
        <pt x="432" y="255" on="0"/>
        <pt x="436" y="245" on="1"/>
        <pt x="440" y="245" on="1"/>
        <pt x="438" y="255" on="0"/>
        <pt x="437" y="266" on="1"/>
        <pt x="436" y="275" on="0"/>
        <pt x="435" y="299" on="0"/>
        <pt x="435" y="310" on="1"/>
        <pt x="435" y="700" on="1"/>
        <pt x="575" y="700" on="1"/>
        <pt x="575" y="0" on="1"/>
        <pt x="425" y="0" on="1"/>
        <pt x="250" y="390" on="1"/>
        <pt x="245" y="401" on="0"/>
        <pt x="236" y="424" on="0"/>
        <pt x="232" y="434" on="1"/>
        <pt x="228" y="445" on="0"/>
        <pt x="224" y="455" on="1"/>
        <pt x="220" y="455" on="1"/>
        <pt x="221" y="445" on="0"/>
        <pt x="222" y="434" on="1"/>
        <pt x="223" y="424" on="0"/>
        <pt x="225" y="401" on="0"/>
        <pt x="225" y="390" on="1"/>
        <pt x="225" y="0" on="1"/>
        <pt x="85" y="0" on="1"/>
        <pt x="85" y="700" on="1"/>
        <pt x="235" y="700" on="1"/>
      </contour>
      <contour>
        <pt x="805" y="350" on="1"/>
        <pt x="767" y="350" on="0"/>
        <pt x="703" y="377" on="0"/>
        <pt x="657" y="425" on="0"/>
        <pt x="630" y="491" on="0"/>
        <pt x="630" y="530" on="1"/>
        <pt x="630" y="569" on="0"/>
        <pt x="657" y="635" on="0"/>
        <pt x="703" y="683" on="0"/>
        <pt x="767" y="710" on="0"/>
        <pt x="805" y="710" on="1"/>
        <pt x="842" y="710" on="0"/>
        <pt x="907" y="683" on="0"/>
        <pt x="953" y="635" on="0"/>
        <pt x="980" y="569" on="0"/>
        <pt x="980" y="530" on="1"/>
        <pt x="980" y="491" on="0"/>
        <pt x="953" y="425" on="0"/>
        <pt x="907" y="377" on="0"/>
        <pt x="842" y="350" on="0"/>
      </contour>
      <contour>
        <pt x="805" y="430" on="1"/>
        <pt x="827" y="430" on="0"/>
        <pt x="860" y="474" on="0"/>
        <pt x="860" y="530" on="1"/>
        <pt x="860" y="586" on="0"/>
        <pt x="827" y="630" on="0"/>
        <pt x="805" y="630" on="1"/>
        <pt x="782" y="630" on="0"/>
        <pt x="750" y="586" on="0"/>
        <pt x="750" y="530" on="1"/>
        <pt x="750" y="474" on="0"/>
        <pt x="782" y="430" on="0"/>
      </contour>
    </TTGlyph>
    <TTGlyph name="agrave" xMin="40" yMin="-10" xMax="475" yMax="700">
      <component glyphName=".ttfautohint" x="40" y="0" flags="0x1000"/>
      <component glyphName="a" x="0" y="0" flags="0x1204"/>
      <component glyphName="grave" x="132" y="0" flags="0x1004"/>
    </TTGlyph>
    <TTGlyph name="amacron" xMin="40" yMin="-10" xMax="475" yMax="660">
      <component glyphName=".ttfautohint" x="40" y="0" flags="0x1000"/>
      <component glyphName="a" x="0" y="0" flags="0x1204"/>
      <component glyphName="macron" x="125" y="0" flags="0x1004"/>
    </TTGlyph>
</ttFont>
